<svg width="720" height="720" xmlns="http://www.w3.org/2000/svg" xmlns:xlink="http://www.w3.org/1999/xlink" overflow="hidden"><defs><clipPath id="clip0"><rect x="0" y="0" width="720" height="720"/></clipPath><radialGradient cx="6858000" cy="0.5" r="9698676" fx="6858000" fy="0" gradientUnits="userSpaceOnUse" spreadMethod="pad" id="fill1" gradientTransform="scale(0.000104987 0.000104987)"><stop offset="0" stop-color="#E9F3FD"/><stop offset="0.59" stop-color="#F1FCF7"/><stop offset="1" stop-color="#EEF1FD"/></radialGradient><linearGradient x1="643.943" y1="261.263" x2="315.057" y2="442.737" gradientUnits="userSpaceOnUse" spreadMethod="reflect" id="fill2"><stop offset="0" stop-color="#3EADFE"/><stop offset="0.5" stop-color="#3493FE"/><stop offset="1" stop-color="#2A7AFF"/></linearGradient><linearGradient x1="336.061" y1="354.58" x2="86.9393" y2="441.42" gradientUnits="userSpaceOnUse" spreadMethod="reflect" id="fill3"><stop offset="0" stop-color="#01B3FF"/><stop offset="0.5" stop-color="#2DCFFC"/><stop offset="1" stop-color="#59ECFA"/></linearGradient><linearGradient x1="156.592" y1="323.863" x2="546.408" y2="406.137" gradientUnits="userSpaceOnUse" spreadMethod="reflect" id="fill4"><stop offset="0" stop-color="#023BFF" stop-opacity="0.819608"/><stop offset="0.88041" stop-color="#2D86FF" stop-opacity="0.756863"/><stop offset="1" stop-color="#2D86FF" stop-opacity="0.756863"/></linearGradient></defs><g clip-path="url(#clip0)"><rect x="0" y="0" width="720" height="720" fill="#FFFFFF"/><path d="M0 360C-4.58328e-14 161.177 161.177-4.58328e-14 360-9.16656e-14 558.823-1.83331e-13 720 161.177 720 360 720 558.823 558.823 720 360 720 161.177 720-2.29164e-13 558.823 0 360Z" fill="url(#fill1)" fill-rule="evenodd"/><path d="M547.437 183.893C588.784 200.57 608.791 247.636 592.126 289.017 592.112 289.048 592.103 289.08 592.088 289.112L516.819 475.359C500.078 516.787 452.973 536.812 411.559 520.108 370.216 503.428 350.209 456.361 366.874 414.982 366.883 414.953 366.898 414.92 366.912 414.886L442.181 228.64C458.922 187.212 506.028 167.187 547.437 183.893Z" fill="url(#fill2)" fill-rule="evenodd"/><path d="M189.939 254 126.798 432.585C111.838 474.889 133.027 521.665 174.126 537.061 215.219 552.461 260.656 530.647 275.611 488.343L301 416.539 211.696 322.652C196.76 306.95 188.636 285.694 189.176 263.726 189.257 260.402 189.515 257.159 189.939 254Z" fill="url(#fill3)" fill-rule="evenodd"/><path d="M496.303 397.464C511.87 413.741 520.036 435.653 518.894 458.081 515.225 529.975 426.768 562.562 376.864 510.398L206.698 332.534C191.126 316.261 182.959 294.349 184.106 271.92 187.771 200.024 276.232 167.439 326.137 219.602L496.303 397.464Z" fill="url(#fill4)" fill-rule="evenodd"/></g></svg>