<svg id="Layer_1" data-name="Layer 1" xmlns="http://www.w3.org/2000/svg" xmlns:xlink="http://www.w3.org/1999/xlink" viewBox="0 0 1031 144">
<defs>
<style>.cls-1,.cls-4{isolation:isolate;}.cls-1{font-size:123px;fill:#0e5397;font-family:SegoeUI, Segoe UI;letter-spacing:-0.01em;}.cls-2{fill:url(#linear-gradient);}.cls-3{fill:url(#linear-gradient-2);}.cls-4{opacity:0.41;fill:url(#radial-gradient);}.cls-5{fill:url(#radial-gradient-2);}.cls-6{fill:url(#radial-gradient-3);}</style>
<linearGradient id="linear-gradient" x1="43.83" y1="-1130.27" x2="142.38" y2="-1130.27" gradientTransform="matrix(1, 0, 0, -1, -4.63, -1030.92)" gradientUnits="userSpaceOnUse">
<stop offset="0" stop-color="#0c59a4"/>
<stop offset="1" stop-color="#114a8b"/>
</linearGradient>
<linearGradient id="linear-gradient-2" x1="95.89" y1="-1087.43" x2="34.26" y2="-1154.56" gradientTransform="matrix(1, 0, 0, -1, -4.63, -1030.92)" gradientUnits="userSpaceOnUse">
<stop offset="0" stop-color="#1b9de2"/>
<stop offset="0.16" stop-color="#1595df"/>
<stop offset="0.67" stop-color="#0680d7"/>
<stop offset="1" stop-color="#0078d4"/>
</linearGradient>
<radialGradient id="radial-gradient" cx="-1050.1" cy="563.85" r="79.25" gradientTransform="matrix(0.15, -0.99, -0.8, -0.12, 654.39, -860.5)" gradientUnits="userSpaceOnUse">
<stop offset="0.76" stop-opacity="0"/>
<stop offset="0.95" stop-opacity="0.5"/>
<stop offset="1"/>
</radialGradient>
<radialGradient id="radial-gradient-2" cx="1972.59" cy="325.78" r="112" gradientTransform="matrix(-0.04, 1, 2.13, 0.08, -593.97, -1971.11)" gradientUnits="userSpaceOnUse">
<stop offset="0" stop-color="#35c1f1"/>
<stop offset="0.11" stop-color="#34c1ed"/>
<stop offset="0.23" stop-color="#2fc2df"/>
<stop offset="0.31" stop-color="#2bc3d2"/>
<stop offset="0.67" stop-color="#36c752"/>
</radialGradient>
<radialGradient id="radial-gradient-3" cx="1962.45" cy="-654.03" r="53.86" gradientTransform="matrix(0.28, 0.96, 0.78, -0.23, 100.21, -1990.22)" gradientUnits="userSpaceOnUse">
<stop offset="0" stop-color="#66eb6e"/>
<stop offset="1" stop-color="#66eb6e" stop-opacity="0"/>
</radialGradient>
</defs>
<title>Microsoft Edge</title>
<g id="LogoText">
<text class="cls-1" transform="translate(189.5 113.53)">Microsoft Edge</text>
</g>
<g id="LogoImage">
<path class="cls-2" d="M134.6,106.8a42.86,42.86,0,0,1-5.8,2.6,56.49,56.49,0,0,1-19.9,3.6c-26.2,0-49-18-49-41.1A17.36,17.36,0,0,1,69,56.8c-23.7,1-29.8,25.7-29.8,40.1,0,40.9,37.7,45,45.8,45a60.32,60.32,0,0,0,14.9-2.5l.7-.2A71.36,71.36,0,0,0,137.4,110a2.28,2.28,0,0,0-.7-3.1A1.79,1.79,0,0,0,134.6,106.8Z"/>
<path class="cls-3" d="M65.2,134.9a45.7,45.7,0,0,1-12.6-11.8A44.74,44.74,0,0,1,69,56.7a18.33,18.33,0,0,1,8.6-2.2A17.8,17.8,0,0,1,95.3,72c0-.1,13.5-44-44.3-44C26.8,28,6.8,51,6.8,71.2a72.11,72.11,0,0,0,6.7,31A70.74,70.74,0,0,0,100,139.3a41.86,41.86,0,0,1-34.8-4.4Z"/>
<path class="cls-4" d="M65.2,134.9a45.7,45.7,0,0,1-12.6-11.8A44.74,44.74,0,0,1,69,56.7a18.33,18.33,0,0,1,8.6-2.2A17.8,17.8,0,0,1,95.3,72c0-.1,13.5-44-44.3-44C26.8,28,6.8,51,6.8,71.2a72.11,72.11,0,0,0,6.7,31A70.74,70.74,0,0,0,100,139.3a41.86,41.86,0,0,1-34.8-4.4Z"/>
<path class="cls-5" d="M91,83.7c-.4.6-1.8,1.4-1.8,3.1,0,1.4.9,2.8,2.6,4,8,5.5,23,4.8,23,4.8A32.53,32.53,0,0,0,131.5,91a33.92,33.92,0,0,0,16.8-29.3A49,49,0,0,0,142,37.4C130.4,14.5,105.1,1.3,77.5,1.3A70.87,70.87,0,0,0,6.7,71.2C7,51,27.1,34.7,51,34.7c1.9,0,13,.2,23.2,5.6A40.22,40.22,0,0,1,91.3,56.5c3.4,5.9,4,13.4,4,16.3S93.8,80.1,91,83.7Z"/>
<path class="cls-6" d="M91,83.7c-.4.6-1.8,1.4-1.8,3.1,0,1.4.9,2.8,2.6,4,8,5.5,23,4.8,23,4.8A32.53,32.53,0,0,0,131.5,91a33.92,33.92,0,0,0,16.8-29.3A49,49,0,0,0,142,37.4C130.4,14.5,105.1,1.3,77.5,1.3A70.87,70.87,0,0,0,6.7,71.2C7,51,27.1,34.7,51,34.7c1.9,0,13,.2,23.2,5.6A40.22,40.22,0,0,1,91.3,56.5c3.4,5.9,4,13.4,4,16.3S93.8,80.1,91,83.7Z"/>
</g>
</svg>