<svg xmlns="http://www.w3.org/2000/svg" xmlns:xlink="http://www.w3.org/1999/xlink" id="body_1" preserveAspectRatio="xMinYMin meet" viewBox="0 0 888 925"><defs><clipPath id="1"><path id="" clip-rule="evenodd" transform="matrix(1 0 0 1 0 0)" d="M0 694L0 -0.5599976L0 -0.5599976L666.84 -0.5599976L666.84 -0.5599976L666.84 694L666.84 694L0 694z" /></clipPath><clipPath id="2"><path id="" clip-rule="evenodd" transform="matrix(1 0 0 1 0 0)" d="M9.937E-06 694L666.84 694L666.84 694L666.84 -0.5599976L666.84 -0.5599976L9.937E-06 -0.5599976z" /></clipPath><clipPath id="3"><path id="" clip-rule="evenodd" transform="matrix(1 0 0 1 0 0)" d="M9.937E-06 694L666.84 694L666.84 694L666.84 -0.5599976L666.84 -0.5599976L9.937E-06 -0.5599976z" /></clipPath><clipPath id="4"><path id="" clip-rule="evenodd" transform="matrix(1 0 0 1 0 0)" d="M9.937E-06 694L666.84 694L666.84 694L666.84 -0.5599976L666.84 -0.5599976L9.937E-06 -0.5599976z" /></clipPath><clipPath id="5"><path id="" clip-rule="evenodd" transform="matrix(1 0 0 1 0 0)" d="M71.424 466.91L601.294 466.91L601.294 466.91L601.294 104.46L601.294 104.46L71.424 104.46z" /></clipPath><clipPath id="6"><path id="" clip-rule="evenodd" transform="matrix(1 0 0 1 0 0)" d="M71.424 466.91L601.294 466.91L601.294 466.91L601.294 104.46L601.294 104.46L71.424 104.46z" /></clipPath><clipPath id="7"><path id="" clip-rule="evenodd" transform="matrix(1 0 0 1 0 0)" d="M0 693.9997L666.84 693.9997L666.84 693.9997L666.84 -0.5603027L666.84 -0.5603027L0 -0.5603027z" /></clipPath><clipPath id="8"><path id="" clip-rule="evenodd" transform="matrix(1 0 0 1 0 0)" d="M-1.19E-07 693.9998L666.84 693.9998L666.84 693.9998L666.84 -0.5602417L666.84 -0.5602417L-1.19E-07 -0.5602417z" /></clipPath><clipPath id="9"><path id="" clip-rule="evenodd" transform="matrix(1 0 0 1 0 0)" d="M9.937E-06 47.28998L441.5 47.28998L441.5 47.28998L441.5 -0.5599976L441.5 -0.5599976L9.937E-06 -0.5599976z" /></clipPath><clipPath id="10"><path id="" clip-rule="evenodd" transform="matrix(1 0 0 1 0 0)" d="M442.63 40.96002L652.77 40.96002L652.77 40.96002L652.77 2.080017L652.77 2.080017L442.63 2.080017z" /></clipPath><clipPath id="11"><path id="" clip-rule="evenodd" transform="matrix(1 0 0 1 0 0)" d="M442.63 40.96002L652.77 40.96002L652.77 40.96002L652.77 2.080017L652.77 2.080017L442.63 2.080017z" /></clipPath><clipPath id="12"><path id="" clip-rule="evenodd" transform="matrix(1 0 0 1 0 0)" d="M442.63 40.96002L652.77 40.96002L652.77 40.96002L652.77 2.080017L652.77 2.080017L442.63 2.080017z" /></clipPath><clipPath id="13"><path id="" clip-rule="evenodd" transform="matrix(1 0 0 1 0 0)" d="M201.5 230.13L465.31 230.13L465.31 230.13L465.31 137.106L465.31 137.106L201.5 137.106z" /></clipPath><clipPath id="14"><path id="" clip-rule="evenodd" transform="matrix(1 0 0 1 0 0)" d="M201.5 230.13L465.31 230.13L465.31 230.13L465.31 137.106L465.31 137.106L201.5 137.106z" /></clipPath><clipPath id="15"><path id="" clip-rule="evenodd" transform="matrix(1 0 0 1 0 0)" d="M201.5 230.13L465.31 230.13L465.31 230.13L465.31 137.106L465.31 137.106L201.5 137.106z" /></clipPath><clipPath id="16"><path id="" clip-rule="evenodd" transform="matrix(1 0 0 1 0 0)" d="M201.5 230.13L465.31 230.13L465.31 230.13L465.31 137.106L465.31 137.106L201.5 137.106z" /></clipPath><clipPath id="17"><path id="" clip-rule="evenodd" transform="matrix(1 0 0 1 0 0)" d="M201.5 230.13L465.31 230.13L465.31 230.13L465.31 137.106L465.31 137.106L201.5 137.106z" /></clipPath><clipPath id="18"><path id="" clip-rule="evenodd" transform="matrix(1 0 0 1 0 0)" d="M201.5 230.13L465.31 230.13L465.31 230.13L465.31 137.106L465.31 137.106L201.5 137.106z" /></clipPath><clipPath id="19"><path id="" clip-rule="evenodd" transform="matrix(1 0 0 1 0 0)" d="M201.5 230.13L465.31 230.13L465.31 230.13L465.31 137.106L465.31 137.106L201.5 137.106z" /></clipPath><clipPath id="20"><path id="" clip-rule="evenodd" transform="matrix(1 0 0 1 0 0)" d="M201.5 230.13L465.31 230.13L465.31 230.13L465.31 137.106L465.31 137.106L201.5 137.106z" /></clipPath><clipPath id="21"><path id="" clip-rule="evenodd" transform="matrix(1 0 0 1 0 0)" d="M201.5 230.13L465.31 230.13L465.31 230.13L465.31 137.106L465.31 137.106L201.5 137.106z" /></clipPath><clipPath id="22"><path id="" clip-rule="evenodd" transform="matrix(1 0 0 1 0 0)" d="M64.56 343.65L608.26 343.65L608.26 343.65L608.26 239.13L608.26 239.13L64.56 239.13z" /></clipPath><clipPath id="23"><path id="" clip-rule="evenodd" transform="matrix(1 0 0 1 0 0)" d="M64.56 343.65L608.26 343.65L608.26 343.65L608.26 239.13L608.26 239.13L64.56 239.13z" /></clipPath><clipPath id="24"><path id="" clip-rule="evenodd" transform="matrix(1 0 0 1 0 0)" d="M64.56 343.65L608.26 343.65L608.26 343.65L608.26 239.13L608.26 239.13L64.56 239.13z" /></clipPath><clipPath id="25"><path id="" clip-rule="evenodd" transform="matrix(1 0 0 1 0 0)" d="M64.56 343.65L608.26 343.65L608.26 343.65L608.26 239.13L608.26 239.13L64.56 239.13z" /></clipPath><clipPath id="26"><path id="" clip-rule="evenodd" transform="matrix(1 0 0 1 0 0)" d="M64.56 343.65L608.26 343.65L608.26 343.65L608.26 239.13L608.26 239.13L64.56 239.13z" /></clipPath><clipPath id="27"><path id="" clip-rule="evenodd" transform="matrix(1 0 0 1 0 0)" d="M64.56 343.65L608.26 343.65L608.26 343.65L608.26 239.13L608.26 239.13L64.56 239.13z" /></clipPath><clipPath id="28"><path id="" clip-rule="evenodd" transform="matrix(1 0 0 1 0 0)" d="M64.56 343.65L608.26 343.65L608.26 343.65L608.26 239.13L608.26 239.13L64.56 239.13z" /></clipPath><clipPath id="29"><path id="" clip-rule="evenodd" transform="matrix(1 0 0 1 0 0)" d="M64.56 343.65L608.26 343.65L608.26 343.65L608.26 239.13L608.26 239.13L64.56 239.13z" /></clipPath><clipPath id="30"><path id="" clip-rule="evenodd" transform="matrix(1 0 0 1 0 0)" d="M64.56 343.65L608.26 343.65L608.26 343.65L608.26 239.13L608.26 239.13L64.56 239.13z" /></clipPath><clipPath id="31"><path id="" clip-rule="evenodd" transform="matrix(1 0 0 1 0 0)" d="M64.56 343.65L608.26 343.65L608.26 343.65L608.26 239.13L608.26 239.13L64.56 239.13z" /></clipPath><clipPath id="32"><path id="" clip-rule="evenodd" transform="matrix(1 0 0 1 0 0)" d="M64.56 343.65L608.26 343.65L608.26 343.65L608.26 239.13L608.26 239.13L64.56 239.13z" /></clipPath><clipPath id="33"><path id="" clip-rule="evenodd" transform="matrix(1 0 0 1 0 0)" d="M64.56 343.65L608.26 343.65L608.26 343.65L608.26 239.13L608.26 239.13L64.56 239.13z" /></clipPath><clipPath id="34"><path id="" clip-rule="evenodd" transform="matrix(1 0 0 1 0 0)" d="M64.56 343.65L608.26 343.65L608.26 343.65L608.26 239.13L608.26 239.13L64.56 239.13z" /></clipPath><clipPath id="35"><path id="" clip-rule="evenodd" transform="matrix(1 0 0 1 0 0)" d="M64.56 343.65L608.26 343.65L608.26 343.65L608.26 239.13L608.26 239.13L64.56 239.13z" /></clipPath><clipPath id="36"><path id="" clip-rule="evenodd" transform="matrix(1 0 0 1 0 0)" d="M257.69 413.87L409.03 413.87L409.03 413.87L409.03 367.55L409.03 367.55L257.69 367.55z" /></clipPath><clipPath id="37"><path id="" clip-rule="evenodd" transform="matrix(1 0 0 1 0 0)" d="M257.69 413.87L409.03 413.87L409.03 413.87L409.03 367.55L409.03 367.55L257.69 367.55z" /></clipPath><clipPath id="38"><path id="" clip-rule="evenodd" transform="matrix(1 0 0 1 0 0)" d="M257.69 413.87L409.03 413.87L409.03 413.87L409.03 367.55L409.03 367.55L257.69 367.55z" /></clipPath><clipPath id="39"><path id="" clip-rule="evenodd" transform="matrix(1 0 0 1 0 0)" d="M0 693.9999L666.84 693.9999L666.84 693.9999L666.84 -0.5601196L666.84 -0.5601196L0 -0.5601196z" /></clipPath><clipPath id="40"><path id="" clip-rule="evenodd" transform="matrix(1 0 0 1 0 0)" d="M9.937E-06 694L666.84 694L666.84 694L666.84 -0.5599976L666.84 -0.5599976L9.937E-06 -0.5599976z" /></clipPath><clipPath id="41"><path id="" clip-rule="evenodd" transform="matrix(1 0 0 1 0 0)" d="M9.937E-06 694L666.84 694L666.84 694L666.84 -0.5599976L666.84 -0.5599976L9.937E-06 -0.5599976z" /></clipPath><clipPath id="42"><path id="" clip-rule="evenodd" transform="matrix(1 0 0 1 0 0)" d="M9.937E-06 694L666.84 694L666.84 694L666.84 -0.5599976L666.84 -0.5599976L9.937E-06 -0.5599976z" /></clipPath><clipPath id="43"><path id="" clip-rule="evenodd" transform="matrix(1 0 0 1 0 0)" d="M9.937E-06 694L666.84 694L666.84 694L666.84 -0.5599976L666.84 -0.5599976L9.937E-06 -0.5599976z" /></clipPath><clipPath id="44"><path id="" clip-rule="evenodd" transform="matrix(1 0 0 1 0 0)" d="M9.937E-06 694L666.84 694L666.84 694L666.84 -0.5599976L666.84 -0.5599976L9.937E-06 -0.5599976z" /></clipPath><clipPath id="45"><path id="" clip-rule="evenodd" transform="matrix(1 0 0 1 0 0)" d="M9.937E-06 694L666.84 694L666.84 694L666.84 -0.5599976L666.84 -0.5599976L9.937E-06 -0.5599976z" /></clipPath><clipPath id="46"><path id="" clip-rule="evenodd" transform="matrix(1 0 0 1 0 0)" d="M9.937E-06 694L666.84 694L666.84 694L666.84 -0.5599976L666.84 -0.5599976L9.937E-06 -0.5599976z" /></clipPath><clipPath id="47"><path id="" clip-rule="evenodd" transform="matrix(1 0 0 1 0 0)" d="M9.937E-06 694L666.84 694L666.84 694L666.84 -0.5599976L666.84 -0.5599976L9.937E-06 -0.5599976z" /></clipPath><clipPath id="48"><path id="" clip-rule="evenodd" transform="matrix(1 0 0 1 0 0)" d="M9.937E-06 694L666.84 694L666.84 694L666.84 -0.5599976L666.84 -0.5599976L9.937E-06 -0.5599976z" /></clipPath><clipPath id="49"><path id="" clip-rule="evenodd" transform="matrix(1 0 0 1 0 0)" d="M0.24001 689.2L665.52 689.2L665.52 689.2L665.52 582.28L665.52 582.28L0.24001 582.28z" /></clipPath><clipPath id="50"><path id="" clip-rule="evenodd" transform="matrix(1 0 0 1 0 0)" d="M0.24001 689.2L665.52 689.2L665.52 689.2L665.52 582.28L665.52 582.28L0.24001 582.28z" /></clipPath><clipPath id="51"><path id="" clip-rule="evenodd" transform="matrix(1 0 0 1 0 0)" d="M0.24001 689.2L665.52 689.2L665.52 689.2L665.52 582.28L665.52 582.28L0.24001 582.28z" /></clipPath><clipPath id="52"><path id="" clip-rule="evenodd" transform="matrix(1 0 0 1 0 0)" d="M0.24001 689.2L665.52 689.2L665.52 689.2L665.52 582.28L665.52 582.28L0.24001 582.28z" /></clipPath><clipPath id="53"><path id="" clip-rule="evenodd" transform="matrix(1 0 0 1 0 0)" d="M0.24001 689.2L665.52 689.2L665.52 689.2L665.52 582.28L665.52 582.28L0.24001 582.28z" /></clipPath><clipPath id="54"><path id="" clip-rule="evenodd" transform="matrix(1 0 0 1 0 0)" d="M0.24001 689.2L665.52 689.2L665.52 689.2L665.52 582.28L665.52 582.28L0.24001 582.28z" /></clipPath><clipPath id="55"><path id="" clip-rule="evenodd" transform="matrix(1 0 0 1 0 0)" d="M0.24001 689.2L665.52 689.2L665.52 689.2L665.52 582.28L665.52 582.28L0.24001 582.28z" /></clipPath><clipPath id="56"><path id="" clip-rule="evenodd" transform="matrix(1 0 0 1 0 0)" d="M0.24001 689.2L665.52 689.2L665.52 689.2L665.52 582.28L665.52 582.28L0.24001 582.28z" /></clipPath><clipPath id="57"><path id="" clip-rule="evenodd" transform="matrix(1 0 0 1 0 0)" d="M0.24001 689.2L665.52 689.2L665.52 689.2L665.52 582.28L665.52 582.28L0.24001 582.28z" /></clipPath><clipPath id="58"><path id="" clip-rule="evenodd" transform="matrix(1 0 0 1 0 0)" d="M0.24001 689.2L665.52 689.2L665.52 689.2L665.52 582.28L665.52 582.28L0.24001 582.28z" /></clipPath><clipPath id="59"><path id="" clip-rule="evenodd" transform="matrix(1 0 0 1 0 0)" d="M0.24001 689.2L665.52 689.2L665.52 689.2L665.52 582.28L665.52 582.28L0.24001 582.28z" /></clipPath><clipPath id="60"><path id="" clip-rule="evenodd" transform="matrix(1 0 0 1 0 0)" d="M0.24001 689.2L665.52 689.2L665.52 689.2L665.52 582.28L665.52 582.28L0.24001 582.28z" /></clipPath><clipPath id="61"><path id="" clip-rule="evenodd" transform="matrix(1 0 0 1 0 0)" d="M0.24001 689.2L665.52 689.2L665.52 689.2L665.52 582.28L665.52 582.28L0.24001 582.28z" /></clipPath><clipPath id="62"><path id="" clip-rule="evenodd" transform="matrix(1 0 0 1 0 0)" d="M3.3218 603.695L135.2418 603.695L135.2418 603.695L135.2418 578.909L135.2418 578.909L3.3218 578.909z" /></clipPath><style type="text/css"><![CDATA[
a { cursor: pointer; }
]]></style></defs><g transform="matrix(1.333333 0 0 1.333333 0 0)"><g clip-path="url(#1)"><g clip-path="url(#2)"></g><g clip-path="url(#3)"></g><g clip-path="url(#4)"></g><path id="1" transform="matrix(1 0 0 -1 0 694)" d="M64.2 576.81C 64.2 589.82 74.742 600.36 87.747 600.36L87.747 600.36L584.85 600.36C 597.86 600.36 608.4 589.82 608.4 576.81L608.4 576.81L608.4 239.91C 608.4 226.9 597.86 216.36 584.85 216.36L584.85 216.36L87.747 216.36C 74.742 216.36 64.2 226.9 64.2 239.91z" stroke="none" fill="#F2F2F2" fill-rule="evenodd" /><path id="2" transform="matrix(1 0 0 -1 0 694)" d="M64.2 576.81C 64.2 589.82 74.742 600.36 87.747 600.36L87.747 600.36L584.85 600.36C 597.86 600.36 608.4 589.82 608.4 576.81L608.4 576.81L608.4 239.91C 608.4 226.9 597.86 216.36 584.85 216.36L584.85 216.36L87.747 216.36C 74.742 216.36 64.2 226.9 64.2 239.91z" stroke="#7F7F7F" stroke-width="0.5" fill="none" /><g clip-path="url(#5)"><g clip-path="url(#6)"></g></g><g clip-path="url(#7)"><g transform="matrix(0.7192315 0 0 0.7185422 -4.08 -2.598999)"><g transform="matrix(1 0 0 1 0 0)"><image x="0" y="0" xlink:href="img_01.png" width="937" height="83" /></g></g></g><g clip-path="url(#8)"><path id="4" transform="matrix(1 0 0 -1 0 694)" d="M-0.60008 643.86L666.0499 643.86L666.0499 643.86L666.0499 695.46L666.0499 695.46L-0.60008 695.46z" stroke="none" fill="#FFFFFF" fill-rule="evenodd" /></g><g clip-path="url(#9)"><g transform="matrix(0.3272795 0 0 0.3264901 0 -2.01001)"><g transform="matrix(1 0 0 1 0 0)"><image x="0" y="0" xlink:href="img_02.png" width="1349" height="151" /></g></g></g><path id="6" transform="matrix(1 0 0 -1 0 694)" d="M436.3 683.96L436.3 650.26" stroke="#000000" stroke-width="1.5" fill="none" /><g clip-path="url(#10)"><g clip-path="url(#11)"></g><g clip-path="url(#12)"></g></g><g clip-path="url(#13)"><g clip-path="url(#14)"></g><g clip-path="url(#15)"></g><g clip-path="url(#16)"></g><g clip-path="url(#17)"></g><g clip-path="url(#18)"></g><g clip-path="url(#19)"></g><g clip-path="url(#20)"></g><g clip-path="url(#21)"></g></g><g clip-path="url(#22)"><g clip-path="url(#23)"></g><g clip-path="url(#24)"></g><g clip-path="url(#25)"></g><g clip-path="url(#26)"></g><g clip-path="url(#27)"></g><g clip-path="url(#28)"></g><g clip-path="url(#29)"></g><g clip-path="url(#30)"></g><g clip-path="url(#31)"></g><g clip-path="url(#32)"></g><g clip-path="url(#33)"></g><g clip-path="url(#34)"></g><g clip-path="url(#35)"></g></g><path id="77" transform="matrix(1 0 0 -1 0 694)" d="M254.4 323.36C 254.4 328.88 258.88 333.36 264.4 333.36L264.4 333.36L402.2 333.36C 407.72 333.36 412.2 328.88 412.2 323.36L412.2 323.36L412.2 283.36C 412.2 277.84 407.72 273.36 402.2 273.36L402.2 273.36L264.4 273.36C 258.88 273.36 254.4 277.84 254.4 283.36z" stroke="none" fill="#3366CC" fill-rule="evenodd" /><g clip-path="url(#36)"><g clip-path="url(#37)"></g><g clip-path="url(#38)"></g></g><path id="82" transform="matrix(1 0 0 -1 0 694)" d="M0 0.96008L665.75 0.96008L665.75 0.96008L665.75 115.5601L665.75 115.5601L0 115.5601z" stroke="none" fill="#3B3838" fill-rule="evenodd" /><g clip-path="url(#39)"><g transform="matrix(0.36 0 0 0.3612162 0.24 582.2799)"><g transform="matrix(1 0 0 1 0 0)"><image x="0" y="0" xlink:href="img_03.png" width="1848" height="296" /></g></g></g><g clip-path="url(#40)"></g><g clip-path="url(#41)"></g><g clip-path="url(#42)"></g><g clip-path="url(#43)"></g><g clip-path="url(#44)"></g><g clip-path="url(#45)"></g><g clip-path="url(#46)"></g><g clip-path="url(#47)"></g><g clip-path="url(#48)"></g><g clip-path="url(#49)"></g><g clip-path="url(#50)"></g><g clip-path="url(#51)"></g><g clip-path="url(#52)"></g><g clip-path="url(#53)"></g><g clip-path="url(#54)"></g><g clip-path="url(#55)"></g><g clip-path="url(#56)"></g><g clip-path="url(#57)"></g><g clip-path="url(#58)"></g><g clip-path="url(#59)"></g><g clip-path="url(#60)"></g><g clip-path="url(#61)"></g><g clip-path="url(#62)"><g transform="matrix(0.3133492 0 0 0.3137595 3.3218 578.908)"><g transform="matrix(1 0 0 1 0 0)"><image x="0" y="0" xlink:href="img_04.png" width="421" height="79" /></g></g></g></g></g></svg>