<svg width="1280" height="720" xmlns="http://www.w3.org/2000/svg" xmlns:xlink="http://www.w3.org/1999/xlink" overflow="hidden"><defs><linearGradient x1="1136.28" y1="697.894" x2="856.722" y2="366.106" gradientUnits="userSpaceOnUse" spreadMethod="reflect" id="stroke0"><stop offset="0" stop-color="#FF00FF"/><stop offset="0.52" stop-color="#FF0066"/><stop offset="1" stop-color="#FF0066"/></linearGradient><linearGradient x1="1128.17" y1="688.743" x2="865.828" y2="374.257" gradientUnits="userSpaceOnUse" spreadMethod="reflect" id="stroke1"><stop offset="0" stop-color="#FF00FF"/><stop offset="0.52" stop-color="#FF0066"/><stop offset="1" stop-color="#FF0066"/></linearGradient><linearGradient x1="1120.06" y1="680.583" x2="873.937" y2="382.418" gradientUnits="userSpaceOnUse" spreadMethod="reflect" id="stroke2"><stop offset="0" stop-color="#FF00FF"/><stop offset="0.52" stop-color="#FF0066"/><stop offset="1" stop-color="#FF0066"/></linearGradient><linearGradient x1="1112.11" y1="673.626" x2="880.892" y2="392.374" gradientUnits="userSpaceOnUse" spreadMethod="reflect" id="stroke3"><stop offset="0" stop-color="#FF00FF"/><stop offset="0.52" stop-color="#FF0066"/><stop offset="1" stop-color="#FF0066"/></linearGradient><linearGradient x1="1104.56" y1="665.047" x2="889.437" y2="400.953" gradientUnits="userSpaceOnUse" spreadMethod="reflect" id="stroke4"><stop offset="0" stop-color="#FF00FF"/><stop offset="0.52" stop-color="#FF0066"/><stop offset="1" stop-color="#FF0066"/></linearGradient><linearGradient x1="1095.83" y1="656.204" x2="898.167" y2="408.796" gradientUnits="userSpaceOnUse" spreadMethod="reflect" id="stroke5"><stop offset="0" stop-color="#FF00FF"/><stop offset="0.52" stop-color="#FF0066"/><stop offset="1" stop-color="#FF0066"/></linearGradient><linearGradient x1="1179.67" y1="641.742" x2="912.858" y2="323.551" gradientUnits="userSpaceOnUse" spreadMethod="reflect" id="stroke6"><stop offset="0" stop-color="#FF00FF"/><stop offset="0.52" stop-color="#FF0066"/><stop offset="1" stop-color="#FF0066"/></linearGradient><linearGradient x1="1173.46" y1="624.634" x2="928.979" y2="332.121" gradientUnits="userSpaceOnUse" spreadMethod="reflect" id="stroke7"><stop offset="0" stop-color="#FF00FF"/><stop offset="0.52" stop-color="#FF0066"/><stop offset="1" stop-color="#FF0066"/></linearGradient><linearGradient x1="137.392" y1="113.451" x2="215.608" y2="203.549" gradientUnits="userSpaceOnUse" spreadMethod="reflect" id="fill8"><stop offset="0" stop-color="#FF0066"/><stop offset="0.00990099" stop-color="#FF0065"/><stop offset="0.019802" stop-color="#FF0165"/><stop offset="0.029703" stop-color="#FF0265"/><stop offset="0.039604" stop-color="#FF0365"/><stop offset="0.049505" stop-color="#FF0465"/><stop offset="0.0594059" stop-color="#FF0565"/><stop offset="0.0693069" stop-color="#FF0665"/><stop offset="0.0792079" stop-color="#FF0765"/><stop offset="0.0891089" stop-color="#FF0864"/><stop offset="0.0990099" stop-color="#FF0964"/><stop offset="0.108911" stop-color="#FF0964"/><stop offset="0.118812" stop-color="#FF0A64"/><stop offset="0.128713" stop-color="#FF0B63"/><stop offset="0.138614" stop-color="#FF0C63"/><stop offset="0.148515" stop-color="#FF0D63"/><stop offset="0.158416" stop-color="#FF0E62"/><stop offset="0.168317" stop-color="#FF0E62"/><stop offset="0.178218" stop-color="#FF0F61"/><stop offset="0.188119" stop-color="#FF1061"/><stop offset="0.19802" stop-color="#FF1161"/><stop offset="0.207921" stop-color="#FF1260"/><stop offset="0.217822" stop-color="#FF1260"/><stop offset="0.227723" stop-color="#FF135F"/><stop offset="0.237624" stop-color="#FF145F"/><stop offset="0.247525" stop-color="#FF155E"/><stop offset="0.257426" stop-color="#FF155D"/><stop offset="0.267327" stop-color="#FF165D"/><stop offset="0.277228" stop-color="#FF175C"/><stop offset="0.287129" stop-color="#FF175C"/><stop offset="0.29703" stop-color="#FF185B"/><stop offset="0.306931" stop-color="#FF195A"/><stop offset="0.316832" stop-color="#FF1A5A"/><stop offset="0.326733" stop-color="#FF1A59"/><stop offset="0.336634" stop-color="#FF1B58"/><stop offset="0.346535" stop-color="#FF1C58"/><stop offset="0.356436" stop-color="#FF1C57"/><stop offset="0.366337" stop-color="#FF1D56"/><stop offset="0.376238" stop-color="#FF1D55"/><stop offset="0.386139" stop-color="#FF1E54"/><stop offset="0.39604" stop-color="#FF1F54"/><stop offset="0.405941" stop-color="#FF1F53"/><stop offset="0.415842" stop-color="#FF2052"/><stop offset="0.425743" stop-color="#FF2051"/><stop offset="0.435644" stop-color="#FF2150"/><stop offset="0.445545" stop-color="#FF224F"/><stop offset="0.455446" stop-color="#FF224E"/><stop offset="0.465347" stop-color="#FF234D"/><stop offset="0.475248" stop-color="#FF234C"/><stop offset="0.485149" stop-color="#FF244B"/><stop offset="0.49505" stop-color="#FF244A"/><stop offset="0.504951" stop-color="#FF2549"/><stop offset="0.514852" stop-color="#FF2548"/><stop offset="0.524752" stop-color="#FF2647"/><stop offset="0.534653" stop-color="#FF2646"/><stop offset="0.544554" stop-color="#FF2745"/><stop offset="0.554455" stop-color="#FF2744"/><stop offset="0.564356" stop-color="#FF2843"/><stop offset="0.574257" stop-color="#FF2841"/><stop offset="0.584158" stop-color="#FF2940"/><stop offset="0.594059" stop-color="#FF293F"/><stop offset="0.60396" stop-color="#FF2A3E"/><stop offset="0.613861" stop-color="#FF2A3D"/><stop offset="0.623762" stop-color="#FF2A3B"/><stop offset="0.633663" stop-color="#FF2B3A"/><stop offset="0.643564" stop-color="#FF2B39"/><stop offset="0.653465" stop-color="#FF2C38"/><stop offset="0.663366" stop-color="#FF2C36"/><stop offset="0.673267" stop-color="#FF2C35"/><stop offset="0.683168" stop-color="#FF2D34"/><stop offset="0.693069" stop-color="#FF2D32"/><stop offset="0.70297" stop-color="#FF2D31"/><stop offset="0.712871" stop-color="#FF2E2F"/><stop offset="0.722772" stop-color="#FF2E2E"/><stop offset="0.732673" stop-color="#FF2E2D"/><stop offset="0.742574" stop-color="#FF2E2B"/><stop offset="0.752475" stop-color="#FF2F2A"/><stop offset="0.762376" stop-color="#FF2F28"/><stop offset="0.772277" stop-color="#FF2F27"/><stop offset="0.782178" stop-color="#FF3025"/><stop offset="0.792079" stop-color="#FF3024"/><stop offset="0.80198" stop-color="#FF3022"/><stop offset="0.811881" stop-color="#FF3020"/><stop offset="0.821782" stop-color="#FF301F"/><stop offset="0.831683" stop-color="#FF311D"/><stop offset="0.841584" stop-color="#FF311C"/><stop offset="0.851485" stop-color="#FF311A"/><stop offset="0.861386" stop-color="#FF3118"/><stop offset="0.871287" stop-color="#FF3117"/><stop offset="0.881188" stop-color="#FF3215"/><stop offset="0.891089" stop-color="#FF3213"/><stop offset="0.90099" stop-color="#FF3212"/><stop offset="0.910891" stop-color="#FF3210"/><stop offset="0.920792" stop-color="#FF320E"/><stop offset="0.930693" stop-color="#FF320C"/><stop offset="0.940594" stop-color="#FF320B"/><stop offset="0.950495" stop-color="#FF3209"/><stop offset="0.960396" stop-color="#FF3207"/><stop offset="0.970297" stop-color="#FF3205"/><stop offset="0.980198" stop-color="#FF3203"/><stop offset="0.990099" stop-color="#FF3201"/><stop offset="1" stop-color="#FF3300"/></linearGradient></defs><g><rect x="0" y="0" width="1280" height="720" fill="#FFF5F5"/><path d="M286.348 412.695C291.905 391.958 313.22 379.651 333.957 385.208L737.831 493.425C758.568 498.982 770.874 520.297 765.318 541.035L765.318 541.035C759.761 561.772 738.446 574.078 717.708 568.522L313.835 460.304C293.098 454.748 280.792 433.432 286.348 412.695Z" fill="#0A59F7" fill-rule="evenodd" fill-opacity="0.0901961"/><path d="M732.911 514.59 733.235 514.686C736.427 515.723 738.282 519.091 737.404 522.371 737.222 523.049 736.525 523.451 735.847 523.27 735.169 523.088 734.767 522.391 734.949 521.714 735.494 519.68 734.287 517.59 732.253 517.045L732.253 517.045 712.616 511.783 712.361 511.724C710.411 511.34 708.469 512.53 707.947 514.478L707.947 514.478 702.685 534.116 702.626 534.37C702.242 536.321 703.432 538.263 705.381 538.785L705.381 538.785 725.018 544.047 725.273 544.106C727.223 544.489 729.165 543.3 729.687 541.351 729.869 540.673 730.565 540.271 731.243 540.453 731.921 540.634 732.323 541.331 732.142 542.009 731.234 545.398 727.75 547.41 724.36 546.501L724.36 546.501 704.723 541.239 704.399 541.144C701.207 540.107 699.352 536.738 700.23 533.458L700.23 533.458 705.492 513.821 705.588 513.497C706.625 510.305 709.993 508.449 713.273 509.328L713.273 509.328 732.911 514.59ZM730.023 522.971C730.609 522.633 731.353 522.815 731.72 523.373L731.72 523.373 731.759 523.437 735.704 530.269 735.832 530.518C736.449 531.862 735.977 533.475 734.706 534.267L734.706 534.267 734.618 534.319 727.786 538.264 727.616 538.346C727.04 538.574 726.369 538.351 726.05 537.799 725.712 537.213 725.893 536.47 726.452 536.102L726.452 536.102 726.515 536.063 732.159 532.805 718.426 529.126C717.783 528.953 717.408 528.263 717.59 527.586 717.771 526.908 718.441 526.499 719.084 526.671L719.084 526.671 732.815 530.35 729.558 524.707 729.476 524.538C729.248 523.962 729.471 523.29 730.023 522.971Z" stroke="#FFFFFF" stroke-width="0.333333" stroke-miterlimit="8" fill="#FFFFFF" fill-rule="evenodd"/><path d="M859.161 26.7933C880.362 32.4742 892.944 54.2668 887.263 75.4684 881.582 96.67 859.79 109.252 838.588 103.571 817.386 97.8902 804.805 76.0975 810.486 54.8959 816.167 33.6942 837.959 21.1123 859.161 26.7933ZM857.758 32.0281C839.448 27.1218 820.627 37.9881 815.72 56.2985 810.814 74.609 821.68 93.4298 839.991 98.3361 858.301 103.242 877.122 92.3761 882.028 74.0657 886.935 55.7552 876.068 36.9343 857.758 32.0281ZM850.978 57.33C852.424 57.7173 853.282 59.2032 852.895 60.6486L846.583 84.2054C846.195 85.6509 844.709 86.5089 843.264 86.1216 841.818 85.7343 840.96 84.2482 841.348 82.8028L847.66 59.246C848.047 57.8005 849.533 56.9427 850.978 57.33ZM854.485 44.2428C856.894 44.8884 858.324 47.3647 857.679 49.7741 857.033 52.1833 854.557 53.6132 852.147 52.9676 849.738 52.322 848.308 49.8455 848.954 47.4363 849.599 45.0269 852.076 43.5972 854.485 44.2428Z" fill="#FFFFFF" fill-rule="evenodd"/><path d="M116.022 311.272C115.897 312.662 114.76 313.72 113.403 313.781L113.028 313.773C110.711 313.565 109.033 314.465 108.019 316.592L108 316.651 108 316.651C107.884 316.902 107.777 317.163 107.678 317.435 107.276 318.572 107.024 319.987 106.922 321.688 106.525 328.343 108.807 337.872 113.496 348.32 116.082 354.082 119.175 359.61 122.507 364.629L123.949 366.747C126.767 370.788 129.725 374.45 132.67 377.578 136.886 382.041 141.032 385.344 144.736 387.196 145.849 387.754 146.87 388.165 147.803 388.434 148.439 388.607 149.056 388.721 149.649 388.775L149.786 388.802C152.087 388.955 153.677 387.949 154.643 385.867 155.284 384.484 156.924 383.884 158.306 384.525 159.688 385.166 160.289 386.806 159.648 388.188 157.592 392.621 153.921 394.605 149.416 394.276 149.331 394.281 149.244 394.278 149.156 394.27 147.492 394.121 145.734 393.647 143.913 392.883 143.369 392.659 142.82 392.408 142.267 392.131 140.12 391.056 137.887 389.601 135.614 387.804 131.118 388.329 126.451 388.031 121.814 386.789 102.191 381.531 90.5472 361.362 95.8049 341.74 97.0479 337.101 99.1241 332.908 101.83 329.278L101.727 328.49 101.727 328.49C101.529 326.978 101.411 325.53 101.374 324.151 101.265 320.302 101.779 316.951 102.995 314.33 103.055 314.2 103.124 314.078 103.2 313.962 105.178 309.98 108.707 307.846 113.52 308.278 115.037 308.414 116.158 309.754 116.022 311.272ZM103.493 337.02C102.508 338.95 101.714 341.002 101.134 343.168 96.665 359.846 106.563 376.99 123.242 381.459 125.407 382.039 127.581 382.378 129.734 382.49 128.629 381.361 127.522 380.166 126.419 378.904 122.836 374.816 119.346 370.095 116.142 364.964 110.318 355.669 105.922 345.84 103.493 337.02ZM140.853 315.731C160.475 320.989 172.12 341.158 166.862 360.78 163.984 371.52 156.639 379.87 147.363 384.366 147.052 384.232 146.724 384.079 146.381 383.907 144.883 383.158 143.271 382.114 141.587 380.804 151.037 377.509 158.747 369.748 161.533 359.352 166.002 342.673 156.104 325.529 139.425 321.06 129.031 318.275 118.455 321.07 110.88 327.609 110.592 325.509 110.493 323.594 110.594 321.907 110.617 321.517 110.649 321.15 110.69 320.807 119.223 315.036 130.12 312.855 140.853 315.731Z" fill="#FFFFFF" fill-rule="evenodd"/><path d="M1153.05 91.1168 1152.03 94.9557 1178.79 102.128C1186.19 104.109 1190.8 110.871 1189.09 117.231L1181.89 144.104C1180.19 150.464 1172.81 154.015 1165.42 152.034L1102.96 135.298C1095.57 133.317 1090.96 126.555 1092.66 120.195L1096.24 106.843C1096.24 106.842 1096.24 106.841 1096.24 106.84L1098.05 100.067 1098.05 100.071 1099.86 93.3224C1101.57 86.9617 1108.94 83.4115 1116.33 85.3921L1143.1 92.5648 1144.13 88.7259 1153.05 91.1168ZM1159.93 118.225C1159.41 118.086 1158.9 118.159 1158.51 118.386 1153.57 121.401 1146.98 122.405 1140.36 120.632 1134.17 118.972 1129.21 115.211 1126.33 110.572L1125.81 109.688C1125.59 109.26 1125.17 108.911 1124.62 108.765 1124.11 108.627 1123.59 108.7 1123.2 108.927 1118.27 111.941 1111.68 112.946 1105.06 111.173 1104.17 110.935 1103.31 110.654 1102.48 110.334L1099.36 121.988C1098.55 124.981 1100.55 128.152 1103.87 129.34L1104.5 129.539 1166.97 146.276C1170.44 147.208 1173.91 145.69 1175.02 142.857L1175.2 142.31 1178.32 130.657C1177.44 130.518 1176.55 130.33 1175.67 130.092 1169.47 128.432 1164.51 124.671 1161.63 120.032L1161.11 119.147C1160.9 118.719 1160.47 118.37 1159.93 118.225ZM1177.25 107.887 1114.79 91.1506C1111.31 90.2186 1107.84 91.7361 1106.74 94.5692L1106.56 95.1156 1104.02 104.58C1104.83 104.941 1105.69 105.246 1106.58 105.486 1112.07 106.956 1117.54 105.616 1120.96 102.42L1121.51 101.87C1122.7 100.57 1124.76 99.9928 1126.83 100.547 1128.69 101.046 1130.09 102.335 1130.62 103.838L1130.77 104.35C1131.89 109.142 1136.1 113.393 1141.89 114.945 1147.38 116.416 1152.84 115.076 1156.26 111.879L1156.82 111.33C1158 110.03 1160.06 109.452 1162.13 110.007 1163.99 110.506 1165.39 111.794 1165.92 113.298L1166.07 113.81C1167.19 118.601 1171.4 122.853 1177.19 124.405 1178.09 124.645 1178.98 124.81 1179.87 124.905L1182.4 115.438C1183.25 112.258 1180.95 108.877 1177.25 107.887ZM1154.76 66.888C1155.88 69.1305 1159.07 77.5984 1158.18 80.9234 1157.16 84.7018 1153.26 87.057 1149.62 86.0825 1145.84 85.069 1143.78 81.1155 1144.79 77.337 1145.76 73.7097 1152.91 68.0096 1154.76 66.888Z" fill="#FFFFFF" fill-rule="evenodd"/><path d="M965.116 200.354C968.237 201.191 970.56 203.808 971.018 207.007L971.018 207.007 972.387 216.563 975.59 219.766 985.176 221.135C988.272 221.577 990.823 223.764 991.745 226.732L991.745 226.732 991.832 227.032 995.391 240.271C996.231 243.399 995.122 246.725 992.573 248.722L992.573 248.722 984.968 254.675 983.801 259.03 987.41 267.989C988.579 270.893 987.962 274.2 985.849 276.484L985.849 276.484 985.625 276.717 975.923 286.403C973.637 288.686 970.209 289.386 967.211 288.182L967.211 288.182 958.225 284.573 953.849 285.746 947.886 293.337C945.954 295.797 942.782 296.912 939.75 296.223L939.75 296.223 939.448 296.148 926.173 292.591C923.051 291.755 920.729 289.137 920.271 285.938L920.271 285.938 918.901 276.381 915.697 273.178 906.112 271.81C903.017 271.369 900.465 269.182 899.543 266.213L899.543 266.213 899.456 265.914 895.897 252.674C895.057 249.547 896.166 246.22 898.716 244.224L898.716 244.224 906.32 238.269 907.486 233.914 903.879 224.956C902.709 222.053 903.327 218.745 905.439 216.461L905.439 216.461 905.663 216.229 915.365 206.542C917.651 204.26 921.079 203.56 924.077 204.764L924.077 204.764 933.062 208.371 937.438 207.199 943.402 199.609C945.334 197.149 948.506 196.034 951.538 196.723L951.538 196.723 951.841 196.797ZM963.325 207.038 950.05 203.48C949.604 203.361 949.13 203.519 948.845 203.882L948.845 203.882 942.645 211.775C941.875 212.755 940.808 213.46 939.603 213.783L939.603 213.783 934.483 215.155C933.277 215.478 931.999 215.401 930.841 214.936L930.841 214.936 921.499 211.185C921.071 211.013 920.581 211.113 920.255 211.439L920.255 211.439 910.552 221.125C910.225 221.452 910.125 221.943 910.298 222.372L910.298 222.372 914.05 231.688C914.517 232.848 914.594 234.127 914.271 235.334L914.271 235.334 912.905 240.432C912.581 241.639 911.874 242.708 910.89 243.479L910.89 243.479 902.983 249.671C902.618 249.957 902.46 250.432 902.58 250.878L902.58 250.878 906.139 264.119C906.259 264.564 906.633 264.895 907.09 264.961L907.09 264.961 917.056 266.383C918.292 266.559 919.436 267.132 920.319 268.014L920.319 268.014 924.067 271.763C924.949 272.644 925.521 273.788 925.698 275.023L925.698 275.023 927.121 284.958C927.186 285.415 927.518 285.789 927.963 285.908L927.963 285.908 941.238 289.465C941.684 289.585 942.158 289.427 942.444 289.064L942.444 289.064 948.644 281.171C949.414 280.19 950.482 279.485 951.686 279.163L951.686 279.163 956.805 277.791C958.011 277.468 959.289 277.545 960.447 278.01L960.447 278.01 969.789 281.761C970.218 281.933 970.707 281.833 971.034 281.507L971.034 281.507 980.736 271.82C981.063 271.494 981.163 271.003 980.991 270.574L980.991 270.574 977.239 261.257C976.772 260.098 976.695 258.818 977.017 257.611L977.017 257.611 978.383 252.513C978.707 251.306 979.414 250.237 980.398 249.466L980.398 249.466 988.306 243.274C988.669 242.989 988.828 242.514 988.708 242.067L988.708 242.067 985.149 228.827C985.03 228.382 984.655 228.05 984.198 227.985L984.198 227.985 974.232 226.563C972.996 226.386 971.852 225.814 970.969 224.931L970.969 224.931 967.222 221.184C966.34 220.302 965.767 219.158 965.591 217.924L965.591 217.924 964.168 207.988C964.102 207.531 963.771 207.157 963.325 207.038L963.325 207.038ZM951.016 226.423C962.091 229.39 968.664 240.773 965.697 251.846 962.729 262.919 951.346 269.49 940.272 266.523 929.197 263.555 922.625 252.173 925.592 241.1 928.559 230.027 939.942 223.456 951.016 226.423ZM949.226 233.106C941.842 231.128 934.254 235.508 932.276 242.891 930.298 250.273 934.679 257.861 942.062 259.839 949.446 261.818 957.034 257.437 959.012 250.055 960.991 242.673 956.609 235.085 949.226 233.106Z" fill="#FFFFFF" fill-rule="evenodd"/><path d="M684.854 313.781C689.801 315.107 694.13 317.585 697.632 320.85 687.087 323.283 678.2 331.313 675.203 342.495 672.207 353.678 675.889 365.076 683.804 372.456 679.14 373.532 674.151 373.514 669.204 372.188 653.075 367.866 643.503 351.288 647.825 335.159 652.147 319.031 668.725 309.459 684.854 313.781ZM712.232 321.117C728.361 325.439 737.932 342.017 733.61 358.146 729.289 374.274 712.711 383.846 696.582 379.524 691.635 378.199 687.305 375.72 683.804 372.456 687.362 371.634 690.732 370.176 693.75 368.174 685.963 363.531 681.866 354.13 684.328 344.94 686.79 335.751 695.039 329.658 704.104 329.53 702.492 326.288 700.303 323.34 697.632 320.85 702.296 319.773 707.285 319.792 712.232 321.117ZM709.787 330.242C707.887 329.733 705.978 329.504 704.104 329.53 707.271 335.897 708.217 343.401 706.232 350.81 704.247 358.218 699.675 364.243 693.75 368.174 695.359 369.134 697.127 369.89 699.027 370.399 710.116 373.371 721.514 366.79 724.486 355.701 727.457 344.611 720.876 333.213 709.787 330.242Z" fill="#FFFFFF" fill-rule="evenodd"/><path d="M421.562 285.61C423.578 286.151 424.774 288.223 424.234 290.239L423.452 293.159C421.831 299.208 415.614 302.797 409.566 301.176L404.352 299.779C400.824 298.834 397.197 300.928 396.252 304.456 396.18 304.722 396.126 304.992 396.088 305.265L394.216 318.866C393.488 324.156 388.61 327.854 383.32 327.126 382.921 327.071 382.525 326.992 382.136 326.887 376.978 325.505 373.917 320.203 375.299 315.046 375.403 314.656 375.532 314.274 375.684 313.901L380.863 301.186C382.241 297.803 380.616 293.944 377.233 292.566 376.978 292.462 376.716 292.374 376.45 292.303L371.236 290.906C365.188 289.285 361.598 283.068 363.219 277.02L364.002 274.1C364.542 272.083 366.614 270.887 368.63 271.427L421.562 285.61ZM418.269 290.597 368.988 277.392 368.695 278.487C367.884 281.511 369.679 284.62 372.703 285.43L377.917 286.827C378.412 286.96 378.898 287.123 379.372 287.316 385.654 289.875 388.672 297.042 386.113 303.325L380.934 316.039C380.871 316.194 380.818 316.352 380.775 316.513 380.203 318.647 381.469 320.84 383.603 321.411 383.764 321.454 383.928 321.488 384.093 321.51 386.281 321.811 388.299 320.282 388.6 318.094L390.472 304.493C390.542 303.985 390.643 303.483 390.776 302.988 392.532 296.436 399.267 292.548 405.819 294.303L411.033 295.7C414.057 296.511 417.166 294.716 417.976 291.692L418.269 290.597ZM423.574 251.915C428.615 253.265 431.606 258.446 430.255 263.486 430.165 263.823 430.056 264.155 429.929 264.479L422.507 281.951 416.878 280.443 424.649 262.416C424.675 262.351 424.698 262.286 424.72 262.22L424.78 262.019C425.303 260.064 424.194 258.056 422.288 257.444L422.107 257.391 374.337 244.59 374.485 245.128C374.835 246.431 375.158 247.763 375.452 249.123L375.669 250.148C376.922 256.273 377.604 262.894 375.988 269.487L370.496 268.015 370.591 267.631C371.81 261.989 371.164 256.409 370.115 251.284 369.524 248.398 368.806 245.656 367.96 243.059 367.314 241.074 368.398 238.941 370.383 238.295 371.079 238.068 371.825 238.049 372.532 238.238L423.574 251.915Z" fill="#FFFFFF" fill-rule="evenodd"/><path d="M637.017 677.596 636.604 678.493C636.51 678.69 636.414 678.886 636.317 679.081L636.603 678.491C636.453 678.804 636.3 679.114 636.143 679.422L636.317 679.081C636.14 679.437 635.958 679.789 635.772 680.137L636.143 679.422C635.93 679.841 635.71 680.255 635.483 680.663L635.484 680.663C635.216 681.145 634.939 681.62 634.654 682.087L634.865 681.739C634.689 682.035 634.508 682.328 634.325 682.618L634.325 682.617C633.807 683.438 633.262 684.234 632.69 685.008L633.05 684.512C632.803 684.857 632.552 685.198 632.295 685.534L632.69 685.008C632.458 685.323 632.221 685.634 631.979 685.941L632.295 685.534C631.953 685.981 631.602 686.42 631.243 686.85L631.979 685.941C631.649 686.362 631.31 686.776 630.964 687.182L631.243 686.85C631.036 687.1 630.825 687.346 630.612 687.589L630.964 687.182C630.694 687.499 630.419 687.811 630.14 688.119L630.612 687.589C630.297 687.949 629.975 688.304 629.648 688.652L630.14 688.119C629.89 688.395 629.635 688.668 629.377 688.937L629.377 688.937C629.063 689.264 628.744 689.586 628.419 689.902L628.416 689.905C628.07 690.241 627.716 690.575 627.356 690.901L627.355 690.901C626.65 691.54 625.922 692.153 625.175 692.739L625.526 692.461C625.205 692.719 624.879 692.972 624.55 693.22L624.551 693.219C623.105 694.308 621.59 695.298 620.015 696.182L619.647 696.383 619.647 696.383 619.154 696.651 618.067 697.206C617.753 697.361 617.437 697.511 617.119 697.658L617.871 697.302C617.465 697.499 617.057 697.688 616.645 697.871L617.119 697.658C616.789 697.809 616.458 697.956 616.125 698.099L616.125 698.098C615.558 698.341 614.987 698.57 614.409 698.786L615.353 698.42C614.964 698.576 614.573 698.727 614.18 698.871L614.409 698.786C614.027 698.929 613.642 699.067 613.255 699.198L614.18 698.871C613.785 699.017 613.386 699.156 612.986 699.289L613.255 699.198C612.785 699.358 612.313 699.51 611.837 699.652L612.986 699.289C612.528 699.441 612.067 699.585 611.604 699.721L611.837 699.652C611.482 699.758 611.126 699.859 610.768 699.956L611.604 699.721C611.148 699.854 610.691 699.98 610.23 700.097L610.23 700.097C609.599 700.258 608.964 700.403 608.324 700.533 607.801 700.639 607.276 700.735 606.748 700.821L607.533 700.685C607.163 700.753 606.792 700.816 606.42 700.873L606.748 700.821C606.305 700.893 605.861 700.957 605.415 701.014L606.42 700.873C606.018 700.934 605.614 700.99 605.209 701.039L605.415 701.014C604.972 701.07 604.528 701.12 604.083 701.161L605.209 701.039C604.687 701.104 604.161 701.157 603.634 701.2L604.083 701.161C603.611 701.205 603.138 701.241 602.664 701.268L603.634 701.2C603.255 701.232 602.874 701.258 602.493 701.278L602.664 701.268C602.262 701.292 601.859 701.309 601.455 701.32L601.453 701.32C600.978 701.333 600.498 701.338 600.017 701.333L601.008 701.33C600.532 701.337 600.056 701.336 599.578 701.327L600.017 701.333C599.572 701.329 599.126 701.318 598.679 701.299L599.578 701.327C599.158 701.318 598.737 701.304 598.315 701.282L598.679 701.299C598.265 701.282 597.85 701.258 597.435 701.227L597.436 701.227C596.902 701.188 596.367 701.138 595.832 701.076L596.836 701.178C596.378 701.138 595.919 701.089 595.46 701.032L595.832 701.076C595.452 701.033 595.071 700.984 594.689 700.929L594.69 700.93C593.107 700.703 591.521 700.379 589.938 699.955 588.472 699.562 587.047 699.093 585.665 698.553L585.669 698.55 584.455 698.058C584.432 698.048 584.41 698.038 584.387 698.028 583.127 697.482 581.904 696.878 580.721 696.219L580.72 696.222C579.559 695.571 578.437 694.869 577.358 694.117L577.357 694.119C576.576 693.572 575.816 693.002 575.08 692.407L575.425 692.683C575.085 692.415 574.75 692.141 574.421 691.863L575.08 692.407C574.789 692.172 574.503 691.934 574.221 691.692L574.421 691.863C574.128 691.616 573.84 691.365 573.556 691.111L574.221 691.692C573.904 691.421 573.592 691.145 573.284 690.865L573.286 690.867 572.464 690.097C572.402 690.037 572.34 689.977 572.279 689.917 571.672 689.324 571.086 688.715 570.521 688.089L570.522 688.09C569.931 687.435 569.363 686.762 568.818 686.073L568.992 686.291C568.738 685.974 568.488 685.653 568.244 685.329L568.818 686.073C568.566 685.753 568.318 685.429 568.075 685.102L568.244 685.329C568.031 685.046 567.822 684.759 567.616 684.471L567.616 684.471C567.45 684.238 567.286 684.003 567.125 683.766 566.763 683.234 566.414 682.695 566.079 682.148 565.033 680.443 564.115 678.662 563.333 676.82L563.459 677.111C563.272 676.68 563.092 676.246 562.919 675.808L562.918 675.807C562.418 674.534 561.982 673.233 561.611 671.909L561.641 672.017C561.518 671.58 561.402 671.14 561.293 670.698L561.611 671.909C561.463 671.38 561.326 670.846 561.2 670.31L561.293 670.698C561.205 670.34 561.121 669.979 561.043 669.618L561.2 670.31C561.09 669.846 560.989 669.379 560.896 668.91L561.043 669.618C560.954 669.207 560.871 668.794 560.795 668.38L560.896 668.91C560.833 668.592 560.774 668.272 560.719 667.952L560.795 668.38C560.698 667.855 560.612 667.326 560.536 666.796L560.719 667.952C560.623 667.4 560.539 666.845 560.467 666.288L560.536 666.796C560.481 666.41 560.431 666.022 560.388 665.634L560.467 666.288C560.414 665.883 560.368 665.476 560.328 665.069L560.328 665.068C560.194 663.714 560.129 662.345 560.135 660.968L560.136 661.444C560.132 660.91 560.139 660.375 560.157 659.838L560.135 660.968C560.138 660.486 560.149 660.003 560.168 659.519L560.157 659.838C560.169 659.442 560.189 659.046 560.214 658.649L560.168 659.519C560.189 659.026 560.218 658.532 560.257 658.037L560.214 658.649C560.247 658.117 560.291 657.585 560.346 657.052L560.346 657.051C560.396 656.564 560.456 656.076 560.524 655.588 560.533 655.529 560.541 655.471 560.549 655.415L560.524 655.588C560.582 655.181 560.645 654.775 560.715 654.367L560.549 655.415C560.619 654.93 560.699 654.444 560.787 653.958L560.787 653.959 561.027 652.75 561.027 652.75 561.255 651.745 561.255 651.745 561.515 650.724C561.922 649.205 562.41 647.731 562.974 646.304L562.972 646.301C563.174 645.797 563.384 645.296 563.603 644.802L563.538 644.944C563.626 644.744 563.715 644.545 563.806 644.346L563.603 644.802C563.76 644.449 563.92 644.1 564.086 643.754L563.806 644.346C563.991 643.944 564.181 643.545 564.378 643.15L564.086 643.754C564.306 643.293 564.534 642.838 564.77 642.389L564.768 642.389C565.171 641.627 565.594 640.881 566.039 640.152L565.824 640.506C566.008 640.198 566.196 639.893 566.387 639.591L566.039 640.152C566.333 639.671 566.636 639.197 566.949 638.732L566.948 638.733C567.184 638.381 567.425 638.034 567.67 637.692L567.291 638.229C567.529 637.884 567.773 637.545 568.021 637.209L567.67 637.692C567.936 637.322 568.207 636.957 568.485 636.597L568.021 637.209C568.245 636.907 568.473 636.609 568.704 636.314L568.485 636.597C568.796 636.193 569.115 635.795 569.44 635.405L568.704 636.314C569.106 635.803 569.518 635.303 569.942 634.814L569.44 635.405C569.685 635.111 569.935 634.82 570.188 634.534L569.942 634.814C570.14 634.586 570.341 634.36 570.543 634.136L570.188 634.534C570.534 634.142 570.887 633.758 571.247 633.381L570.543 634.136C570.808 633.844 571.077 633.557 571.351 633.273L571.247 633.381C571.571 633.041 571.901 632.708 572.237 632.38L571.351 633.273C571.672 632.938 572 632.61 572.333 632.287L572.237 632.38C572.568 632.057 572.904 631.74 573.245 631.43L572.333 632.287C572.673 631.957 573.019 631.634 573.37 631.316L573.37 631.317C574.087 630.669 574.826 630.049 575.585 629.456L575.204 629.757C575.51 629.512 575.82 629.272 576.133 629.036L576.133 629.036C577.579 627.947 579.094 626.958 580.669 626.073L581.037 625.872 581.037 625.872C582.244 625.21 583.486 624.61 584.757 624.074L584.397 624.227C584.767 624.066 585.139 623.912 585.514 623.763L584.757 624.074C585.094 623.932 585.433 623.794 585.774 623.661L585.773 623.661C586.595 623.341 587.428 623.048 588.27 622.781L588.27 622.781C588.983 622.556 589.704 622.35 590.431 622.165 590.88 622.05 591.329 621.943 591.78 621.845L590.684 622.101C591.165 621.982 591.648 621.871 592.134 621.769L591.78 621.845C592.186 621.756 592.593 621.673 593.002 621.597L592.134 621.769C592.508 621.69 592.884 621.618 593.261 621.55L593.002 621.597C593.399 621.523 593.797 621.455 594.196 621.393L594.194 621.394C594.669 621.32 595.144 621.255 595.621 621.198 595.791 621.178 595.961 621.159 596.131 621.141L595.621 621.198C596.051 621.147 596.481 621.103 596.913 621.066L596.131 621.141C596.468 621.105 596.806 621.074 597.145 621.047L596.913 621.066C597.366 621.027 597.822 620.996 598.278 620.973L597.145 621.047C597.557 621.014 597.972 620.987 598.387 620.967L598.386 620.967 599.548 620.928C599.97 620.92 600.393 620.918 600.817 620.924L600.084 620.921C600.446 620.919 600.81 620.922 601.173 620.93L600.817 620.924C601.226 620.929 601.635 620.94 602.045 620.958L601.173 620.93C601.613 620.939 602.054 620.956 602.495 620.98L602.045 620.958C602.412 620.974 602.78 620.995 603.148 621.021L603.149 621.021C603.701 621.061 604.256 621.111 604.811 621.174L604.085 621.099C604.514 621.139 604.943 621.187 605.373 621.242L604.811 621.174C605.187 621.217 605.563 621.265 605.94 621.318L605.939 621.318C607.54 621.545 609.144 621.871 610.746 622.3 612.212 622.693 613.637 623.162 615.018 623.702L615.015 623.705 616.229 624.198C616.252 624.207 616.274 624.217 616.296 624.227 617.556 624.773 618.78 625.377 619.962 626.036L619.963 626.034C621.124 626.684 622.246 627.386 623.326 628.138L623.326 628.137C624.082 628.665 624.818 629.217 625.532 629.791L625.259 629.572C625.598 629.84 625.933 630.114 626.263 630.393L625.532 629.791C625.847 630.044 626.157 630.302 626.463 630.564L626.263 630.393C626.555 630.639 626.844 630.89 627.128 631.144L626.463 630.564C626.78 630.834 627.092 631.11 627.399 631.39L627.128 631.144C627.498 631.475 627.861 631.813 628.217 632.156L628.219 632.158C628.28 632.216 628.342 632.277 628.405 632.338 628.991 632.91 629.557 633.498 630.104 634.102L630.103 634.101C630.715 634.776 631.302 635.47 631.865 636.183L631.692 635.964C631.921 636.25 632.146 636.539 632.367 636.83L631.865 636.183C632.118 636.502 632.366 636.826 632.608 637.153L632.367 636.83C632.605 637.145 632.839 637.463 633.067 637.784L633.067 637.784C633.178 637.939 633.286 638.094 633.394 638.25 633.791 638.823 634.171 639.405 634.537 639.997 635.796 642.036 636.873 644.185 637.754 646.419 638.259 647.701 638.699 649.012 639.072 650.346L638.998 650.083C639.119 650.504 639.233 650.928 639.34 651.354L639.339 651.351C639.447 651.78 639.548 652.208 639.641 652.638L639.46 651.845C639.565 652.285 639.663 652.729 639.753 653.174L639.641 652.638C639.706 652.938 639.767 653.239 639.826 653.542L639.753 653.174C639.829 653.549 639.9 653.925 639.965 654.303L639.826 653.542C639.948 654.177 640.056 654.817 640.148 655.46L639.965 654.303C640.052 654.803 640.129 655.306 640.196 655.811L640.148 655.46C640.201 655.83 640.248 656.202 640.291 656.574L640.196 655.811C640.256 656.262 640.309 656.714 640.354 657.167L640.354 657.168C640.44 658.036 640.498 658.91 640.527 659.788L640.521 659.626C640.534 659.972 640.543 660.32 640.547 660.667L640.527 659.788C640.543 660.268 640.55 660.749 640.548 661.231L640.547 660.667C640.553 661.249 640.546 661.832 640.527 662.417L640.548 661.231C640.547 661.714 640.537 662.199 640.517 662.684L640.527 662.417C640.515 662.79 640.497 663.165 640.474 663.539L640.517 662.684C640.498 663.181 640.469 663.679 640.43 664.178L640.474 663.539C640.447 663.98 640.413 664.422 640.371 664.864L640.43 664.178C640.4 664.569 640.364 664.96 640.322 665.352L640.371 664.864C640.32 665.407 640.257 665.951 640.183 666.495L640.322 665.352C640.273 665.809 640.216 666.266 640.151 666.724L640.183 666.495C640.121 666.952 640.051 667.409 639.972 667.866L640.151 666.724C640.077 667.248 639.992 667.773 639.896 668.297L639.972 667.866C639.9 668.288 639.821 668.711 639.735 669.133L639.735 669.133C639.572 669.932 639.383 670.732 639.169 671.531 638.777 672.995 638.309 674.418 637.77 675.797L637.997 675.209C637.841 675.628 637.679 676.042 637.511 676.452L637.77 675.797C637.562 676.329 637.344 676.854 637.116 677.372L637.511 676.452C637.352 676.837 637.188 677.219 637.018 677.598L637.017 677.596ZM595.14 680.542C592.281 679.775 589.412 679.287 586.564 679.06 587.264 684.454 588.764 689.671 590.97 694.552L591.357 694.661 591.357 694.661 591.743 694.756 592.068 694.526C596.29 691.449 600.086 687.761 603.308 683.55 600.727 682.319 597.999 681.308 595.14 680.542ZM581.023 678.942 580.009 678.994C577.087 679.169 574.21 679.613 571.411 680.31 574.527 685.02 578.796 688.984 583.946 691.736 582.522 687.619 581.532 683.331 581.023 678.942ZM608.165 686.218 607.509 687.082C605.035 690.287 602.258 693.213 599.232 695.83 605.073 696.024 610.752 694.726 615.806 692.209 613.49 689.972 610.935 687.961 608.165 686.218ZM582.043 659.063 566.202 654.82C564.872 661.976 565.859 669.104 568.679 675.365 572.548 674.284 576.559 673.642 580.644 673.473 580.527 668.721 580.978 663.89 582.043 659.063ZM633.061 672.735 617.221 668.49C615.73 673.202 613.705 677.611 611.232 681.668 614.682 683.857 617.834 686.419 620.645 689.284 626.216 685.277 630.635 679.597 633.061 672.735ZM611.921 667.07 587.343 660.484C586.399 664.857 586.008 669.232 586.127 673.533 589.591 673.751 593.081 674.315 596.559 675.247 600.036 676.179 603.341 677.436 606.447 678.977 608.703 675.313 610.552 671.328 611.921 667.07ZM580.039 632.971 579.902 633.066C574.394 637.073 570.027 642.717 567.621 649.523L583.461 653.769C584.953 649.056 586.978 644.645 589.452 640.587 586.002 638.399 582.85 635.837 580.039 632.971ZM614.557 648.722 614.163 648.696C610.831 648.461 607.472 647.906 604.125 647.009 600.647 646.077 597.343 644.82 594.237 643.279 591.981 646.944 590.131 650.929 588.762 655.189L613.34 661.775C614.284 657.401 614.675 653.024 614.557 648.722ZM632.005 646.89 631.483 647.036C627.777 648.027 623.942 648.622 620.04 648.783 620.156 653.535 619.706 658.368 618.64 663.196L634.48 667.438C635.812 660.281 634.825 653.152 632.005 646.89ZM609.327 627.595 608.938 627.494 608.616 627.729C604.394 630.807 600.598 634.494 597.376 638.705 599.956 639.937 602.685 640.948 605.544 641.714 608.403 642.48 611.271 642.968 614.12 643.195 613.42 637.801 611.92 632.585 609.713 627.703 609.584 627.665 609.456 627.63 609.327 627.595ZM601.452 626.425 600.723 626.406C595.142 626.341 589.723 627.633 584.878 630.046 587.193 632.284 589.749 634.294 592.519 636.037 595.154 632.495 598.155 629.276 601.452 626.425ZM616.738 630.519 617.074 631.535C618.32 635.34 619.193 639.284 619.661 643.313 622.932 643.186 626.151 642.722 629.273 641.945 626.156 637.235 621.887 633.271 616.738 630.519Z" fill="#FFFFFF" fill-rule="evenodd"/><path d="M662.48 124.685C656.825 145.787 635.136 158.309 614.034 152.655 592.933 147.001 580.41 125.311 586.064 104.21 591.719 83.1083 613.408 70.5858 634.51 76.2399 655.611 81.894 668.134 103.584 662.48 124.685Z" stroke="#FFFFFF" stroke-width="8" stroke-miterlimit="8" fill="none" fill-rule="evenodd"/><path d="M656.953 94.9353 605.726 81.2089 617.613 139.3 656.953 94.9353Z" stroke="#FFFFFF" stroke-width="8" stroke-miterlimit="8" fill="none" fill-rule="evenodd"/><path d="M1030.52 480.257C1029.49 480.837 1028.32 480.982 1027.24 480.749L1027 480.693C1025.86 480.386 1024.82 479.649 1024.18 478.557 1022.93 476.44 1023.59 473.762 1025.65 472.466L1025.84 472.348 1050.86 458.256C1052.46 457.356 1053.03 455.385 1052.2 453.776L1052.11 453.599 1037.49 428.887C1036.2 426.703 1036.94 423.923 1039.15 422.678 1040.26 422.053 1041.53 421.933 1042.68 422.245L1042.91 422.313C1043.89 422.632 1044.77 423.271 1045.37 424.183L1045.49 424.377 1061.28 451.067C1064.14 455.893 1062.57 462.012 1057.8 464.883L1057.54 465.037 1030.52 480.257Z" fill="#FFFFFF" fill-rule="evenodd"/><path d="M358.273 604.897C359.594 605.251 360.378 606.608 360.024 607.929 359.699 609.139 358.532 609.899 357.322 609.744L356.992 609.68 344.24 606.263C340.443 605.245 336.545 607.362 335.293 611.027L335.145 611.514 324.894 649.77C323.877 653.566 325.994 657.464 329.658 658.716L330.145 658.865 368.401 669.116C372.198 670.133 376.095 668.016 377.348 664.351L377.496 663.865 380.913 651.112C381.267 649.792 382.624 649.008 383.945 649.362 385.155 649.686 385.914 650.854 385.76 652.063L385.695 652.394 382.278 665.146C380.566 671.536 374.155 675.411 367.759 674.051L367.12 673.898 328.864 663.647C322.474 661.935 318.599 655.523 319.959 649.128L320.112 648.489 330.363 610.232C332.075 603.843 338.486 599.967 344.882 601.327L345.521 601.48 358.273 604.897ZM390.153 613.44C393.081 614.224 394.877 617.121 394.341 620.051L394.238 620.514 389.966 636.454C389.613 637.774 388.255 638.558 386.935 638.204 385.724 637.88 384.965 636.712 385.119 635.503L385.184 635.172 388.763 621.815 353.516 642.167C352.332 642.85 350.818 642.445 350.135 641.26 349.513 640.184 349.792 638.835 350.737 638.085L351.041 637.879 386.283 617.528 372.932 613.951C371.612 613.597 370.828 612.239 371.182 610.919 371.506 609.708 372.674 608.949 373.883 609.103L374.213 609.169 390.153 613.44Z" fill="#FFFFFF" fill-rule="evenodd"/><path d="M1113.48 680.872 1137.56 687.325 1136.3 692.037 1112.22 685.584Z" fill="#0A59F7" fill-rule="evenodd" fill-opacity="0.101961"/><path d="M1165.68 686.789C1169.55 686.241 1172.7 683.381 1173.6 679.579 1174.86 674.891 1172.86 670.98 1167.62 667.844L1163.25 665.175C1161.56 664.157 1160.39 663.138 1159.75 662.118 1159.12 661.157 1158.94 659.97 1159.25 658.865 1159.64 657.437 1160.57 656.414 1162.04 655.795 1163.53 655.177 1165.19 655.117 1167.06 655.616 1168.65 656.017 1170.09 656.871 1171.21 658.077 1172.17 659.106 1172.84 660.369 1173.17 661.74 1173.19 661.827 1173.23 661.986 1173.29 662.219 1173.51 662.15 1173.67 662.104 1173.75 662.079L1177.68 660.935C1177.75 660.914 1177.88 660.869 1178.07 660.8 1178.04 660.617 1178.02 660.484 1178.01 660.398 1177.58 658.241 1176.5 656.266 1174.92 654.732 1173.19 653.002 1170.98 651.776 1168.28 651.053 1166.2 650.457 1164.01 650.323 1161.87 650.659 1159.97 650.956 1158.19 651.786 1156.74 653.054 1155.31 654.328 1154.3 656.004 1153.83 657.864 1152.6 662.458 1154.54 666.321 1159.66 669.454L1164.38 672.316C1165.97 673.309 1167.08 674.314 1167.71 675.33 1168.33 676.294 1168.5 677.477 1168.18 678.577 1167.83 680.002 1166.78 681.154 1165.39 681.647 1163.92 682.234 1162.22 682.269 1160.3 681.754 1158.03 681.146 1156 679.837 1154.52 678.011 1153.88 677.259 1153.43 676.362 1153.22 675.397 1153.19 675.26 1153.13 674.982 1153.03 674.564 1152.66 674.647 1152.39 674.709 1152.22 674.75L1148.46 675.669C1148.4 675.686 1148.26 675.725 1148.05 675.787 1148.07 675.974 1148.09 676.114 1148.11 676.206 1148.55 678.491 1149.73 680.524 1151.65 682.306 1153.69 684.199 1156.22 685.553 1159.26 686.367 1161.35 686.97 1163.54 687.114 1165.68 686.79Z" fill="#FFFFFF" fill-rule="evenodd"/><path d="M1113.29 646.655 1112.36 646.413 1107.8 645.19 1107.66 645.153 1107.39 645.519 1096.23 661.611 1094.61 642.13C1094.6 642.076 1094.6 641.969 1094.59 641.815L1094.59 641.658 1094.14 641.535 1088.62 640.055 1088.73 640.879C1088.74 640.961 1088.75 641.025 1088.75 641.069L1091.58 667.851 1084.19 677.292C1084.11 677.392 1083.96 677.578 1083.73 677.847L1083.14 678.556 1084.19 678.848 1088.79 680.081 1112.98 647.075 1113.29 646.656Z" fill="#FFFFFF" fill-rule="evenodd"/><path d="M1077.33 637.019C1075.65 636.538 1073.87 636.502 1072.18 636.916L1071.98 636.969C1070.74 637.305 1069.6 637.924 1068.65 638.777L1068.55 638.872 1069.09 635.51 1064.61 634.311 1057.98 659.061 1063.37 660.505 1067.17 646.339C1067.67 644.466 1068.61 643.111 1070 642.261 1071.38 641.411 1072.92 641.218 1074.63 641.677 1076.22 642.102 1077.33 642.958 1077.99 644.25 1078.65 645.547 1078.75 647.082 1078.27 648.864L1074.36 663.45 1079.71 664.882 1083.89 649.273C1084.4 647.506 1084.47 645.641 1084.1 643.84 1083.75 642.206 1082.95 640.705 1081.78 639.515 1080.55 638.296 1079.01 637.434 1077.33 637.019Z" fill="#FFFFFF" fill-rule="evenodd"/><path d="M1049.77 630.085C1051.96 630.627 1053.96 631.755 1055.56 633.348 1057.08 634.904 1058.13 636.864 1058.58 638.995 1059.07 641.33 1058.99 643.75 1058.33 646.043 1057.66 648.53 1056.56 650.599 1055.03 652.252 1053.57 653.861 1051.68 655.023 1049.59 655.606 1047.41 656.186 1045.11 656.162 1042.95 655.537 1040.75 654.991 1038.74 653.862 1037.14 652.269 1035.6 650.721 1034.54 648.768 1034.08 646.639 1033.58 644.442 1033.66 642.101 1034.33 639.612 1035 637.095 1036.1 635.01 1037.64 633.357 1039.1 631.745 1041 630.583 1043.1 630.009 1045.29 629.433 1047.59 629.459 1049.77 630.084ZM1048.49 634.852C1046.49 634.316 1044.69 634.612 1043.08 635.739 1041.47 636.872 1040.33 638.641 1039.69 641.049 1039.05 643.429 1039.15 645.513 1039.98 647.299 1040.82 649.08 1042.22 650.233 1044.22 650.77 1046.2 651.298 1047.98 651 1049.59 649.872 1051.2 648.738 1052.33 646.983 1052.97 644.607 1053.61 642.198 1053.52 640.099 1052.68 638.312 1051.85 636.531 1050.46 635.381 1048.49 634.852Z" fill="#FFFFFF" fill-rule="evenodd"/><path d="M1026.87 623.502C1028.42 623.922 1029.83 624.759 1030.94 625.921 1032.07 627.121 1032.82 628.618 1033.11 630.234 1033.42 631.933 1033.36 633.681 1032.91 635.35L1032.85 635.596 1028.66 651.206 1023.32 649.773 1027.35 634.722C1027.79 633.094 1027.71 631.687 1027.12 630.492 1026.53 629.305 1025.51 628.516 1024.05 628.125 1022.46 627.699 1021.05 627.877 1019.78 628.657 1018.56 629.41 1017.72 630.594 1017.24 632.218L1017.19 632.4 1013.26 647.08 1007.91 645.647 1011.95 630.595C1012.38 628.968 1012.3 627.559 1011.69 626.36 1011.09 625.167 1010.06 624.376 1008.6 623.985 1007.05 623.568 1005.64 623.75 1004.38 624.529 1003.16 625.283 1002.31 626.466 1001.84 628.09L1001.79 628.272 997.857 642.952 992.465 641.507 999.097 616.757 1003.63 617.972 1003.06 621.251 1003.15 621.166C1004.06 620.34 1005.14 619.731 1006.32 619.384L1006.52 619.326C1008.1 618.893 1009.77 618.898 1011.34 619.34 1012.94 619.74 1014.39 620.59 1015.52 621.789 1016.52 622.875 1017.24 624.193 1017.62 625.627L1017.62 625.665C1018.65 624.611 1019.93 623.847 1021.34 623.453L1021.54 623.398C1023.15 622.979 1024.83 622.975 1026.44 623.386L1026.65 623.442 1026.87 623.502Z" fill="#FFFFFF" fill-rule="evenodd"/><path d="M994.225 614.843C992.657 614.383 990.997 614.339 989.407 614.716L989.214 614.768C988.088 615.08 987.051 615.652 986.187 616.439L986.121 616.5 986.622 613.518 981.647 612.185 975.017 636.932 980.47 638.393 984.31 624.064C984.799 622.236 985.76 620.947 987.194 620.183 988.629 619.418 990.343 619.295 992.333 619.829 992.956 619.99 993.569 620.191 994.166 620.431L994.316 620.499C994.381 620.531 994.461 620.57 994.556 620.618L994.862 620.775 995.043 620.148C995.064 620.07 995.08 620.01 995.091 619.968L996.204 615.813 996.247 615.653 996.106 615.57C995.94 615.473 995.815 615.406 995.733 615.368 995.246 615.151 994.74 614.975 994.222 614.842Z" fill="#FFFFFF" fill-rule="evenodd"/><path d="M967.558 607.698C970.648 608.526 972.898 609.98 974.305 612.058 975.683 614.097 976.015 616.522 975.311 619.32L975.259 619.52 970.814 636.109 966.281 634.894 966.721 631.909 966.613 632C965.779 632.676 964.81 633.164 963.771 633.433L963.555 633.488 963.361 633.532C961.721 633.847 960.03 633.766 958.429 633.294 955.777 632.583 953.801 631.305 952.502 629.459 951.199 627.605 950.849 625.539 951.454 623.281 951.841 621.74 952.71 620.363 953.936 619.352 955.221 618.32 956.764 617.661 958.398 617.446 960.208 617.198 962.049 617.317 963.813 617.795L964.077 617.864 969.563 619.334 969.722 618.742C970.13 617.218 970.055 615.941 969.502 614.905L969.439 614.791 969.369 614.675C968.695 613.594 967.568 612.841 965.99 612.417 964.81 612.083 963.565 612.044 962.366 612.303 961.344 612.531 960.387 612.988 959.566 613.638L959.517 613.679C959.486 613.706 959.448 613.74 959.4 613.784L959.236 613.938 959.065 614.1 958.688 613.627 958.599 613.515 956.361 610.625C956.325 610.579 956.272 610.506 956.201 610.406L956.004 610.129 956.242 609.882C956.33 609.792 956.401 609.725 956.454 609.68 957.827 608.531 959.47 607.751 961.228 607.412 963.331 607.01 965.499 607.107 967.558 607.698ZM968.218 623.356 963.124 621.991C961.567 621.574 960.217 621.6 959.076 622.071 958.026 622.448 957.23 623.321 956.951 624.401 956.642 625.421 956.86 626.529 957.534 627.355 958.228 628.249 959.274 628.884 960.672 629.26 962.47 629.742 964.026 629.584 965.354 628.792 966.639 628.025 967.519 626.825 967.997 625.181L968.046 625.003 968.402 623.673C968.44 623.535 968.357 623.393 968.219 623.356Z" fill="#FFFFFF" fill-rule="evenodd"/><path d="M933.295 588.81 927.605 587.286 918.262 622.158 923.951 623.682 928.075 608.29 945.025 612.832 940.901 628.225 946.59 629.749 955.934 594.877 950.245 593.352 946.424 607.614 929.473 603.072 933.294 588.81Z" fill="#FFFFFF" fill-rule="evenodd"/><path d="M1136.28 642.746C1126.57 640.146 1116.6 645.905 1114 655.611 1111.4 665.316 1117.16 675.292 1126.86 677.893 1136.57 680.493 1146.54 674.734 1149.14 665.028 1149.14 665.028 1149.14 665.028 1149.14 665.028 1151.75 655.323 1145.99 645.347 1136.28 642.746ZM1128.18 672.989C1121.18 671.115 1117.03 663.922 1118.9 656.925 1120.78 649.928 1127.97 645.776 1134.97 647.65 1141.96 649.525 1146.12 656.717 1144.24 663.715 1142.37 670.712 1135.17 674.864 1128.18 672.989Z" fill="#FFFFFF" fill-rule="evenodd"/><path d="M829.5 450.791C829.5 418.046 856.045 391.5 888.791 391.5L1104.21 391.5C1136.95 391.5 1163.5 418.046 1163.5 450.791L1163.5 613.209C1163.5 645.955 1136.95 672.5 1104.21 672.5L888.791 672.5C856.045 672.5 829.5 645.955 829.5 613.209Z" stroke="url(#stroke0)" stroke-width="2.66667" stroke-miterlimit="8" fill="none" fill-rule="evenodd"/><path d="M838.5 455.204C838.5 424.44 863.44 399.5 894.204 399.5L1099.8 399.5C1130.56 399.5 1155.5 424.44 1155.5 455.204L1155.5 607.796C1155.5 638.56 1130.56 663.5 1099.8 663.5L894.204 663.5C863.44 663.5 838.5 638.56 838.5 607.796Z" stroke="url(#stroke1)" stroke-width="2.66667" stroke-miterlimit="8" fill="none" fill-rule="evenodd"/><path d="M846.5 459.828C846.5 430.928 869.928 407.5 898.828 407.5L1095.17 407.5C1124.07 407.5 1147.5 430.928 1147.5 459.828L1147.5 603.172C1147.5 632.072 1124.07 655.5 1095.17 655.5L898.828 655.5C869.928 655.5 846.5 632.072 846.5 603.172Z" stroke="url(#stroke2)" stroke-width="2.66667" stroke-miterlimit="8" fill="none" fill-rule="evenodd"/><path d="M854.5 465.663C854.5 438.511 876.511 416.5 903.663 416.5L1089.34 416.5C1116.49 416.5 1138.5 438.511 1138.5 465.663L1138.5 600.337C1138.5 627.489 1116.49 649.5 1089.34 649.5L903.663 649.5C876.511 649.5 854.5 627.489 854.5 600.337Z" stroke="url(#stroke3)" stroke-width="2.66667" stroke-miterlimit="8" fill="none" fill-rule="evenodd"/><path d="M863.5 470.287C863.5 445 884 424.5 909.287 424.5L1084.71 424.5C1110 424.5 1130.5 445 1130.5 470.287L1130.5 595.713C1130.5 621 1110 641.5 1084.71 641.5L909.287 641.5C884 641.5 863.5 621 863.5 595.713Z" stroke="url(#stroke4)" stroke-width="2.66667" stroke-miterlimit="8" fill="none" fill-rule="evenodd"/><path d="M871.5 474.7C871.5 451.394 890.394 432.5 913.7 432.5L1080.3 432.5C1103.61 432.5 1122.5 451.394 1122.5 474.7L1122.5 590.3C1122.5 613.606 1103.61 632.5 1080.3 632.5L913.7 632.5C890.394 632.5 871.5 613.606 871.5 590.3Z" stroke="url(#stroke5)" stroke-width="2.66667" stroke-miterlimit="8" fill="none" fill-rule="evenodd"/><path d="M942.7 348.5 1136.04 348.5C1170.65 348.365 1206.5 385.181 1206.5 417.391L1206.5 561.105C1206.5 582.506 1196.52 601.629 1180.86 614.264L1179.17 615.5 1179.17 434.293C1179.17 401.314 1151.83 374.58 1118.1 374.58L889.063 374.58 887.5 374.657 888.331 373.57C901.254 358.259 920.812 348.5 942.7 348.5Z" stroke="url(#stroke6)" stroke-width="2.66667" stroke-miterlimit="8" fill="none" fill-rule="evenodd"/><path d="M939.925 355.5 1132.35 355.636C1169.01 355.96 1198.72 389.128 1198.09 421.253 1197.88 468.432 1198.67 515.286 1198.46 562.465 1198.46 575.438 1198.94 582.646 1187.46 598.5 1187.21 543.738 1187.31 488.292 1187.06 433.53 1186.44 386.917 1146.89 367.257 1120.15 367.46L905.5 368.038C913.427 358.757 926.498 355.5 939.925 355.5Z" stroke="url(#stroke7)" stroke-width="2.66667" stroke-miterlimit="8" fill="none" fill-rule="evenodd"/><path d="M109.5 120.813C109.5 104.624 122.624 91.5001 138.812 91.5001L215.188 91.5001C231.376 91.5001 244.5 104.624 244.5 120.813L244.5 196.188C244.5 212.376 231.376 225.5 215.188 225.5L138.812 225.5C122.624 225.5 109.5 212.376 109.5 196.188Z" stroke="#D9D9D9" stroke-width="1.33333" stroke-miterlimit="8" fill="#FFFFFF" fill-rule="evenodd"/><path d="M197.182 129.676C205.177 129.676 211.659 136.367 211.659 144.622L211.659 183.054C211.659 191.308 205.177 198 197.182 198L145.477 198C137.482 198 131 191.308 131 183.054L131 144.622C131 136.367 137.482 129.676 145.477 129.676L197.182 129.676ZM203.386 119C213.667 119 222 127.377 222 137.711L222 170.693C222 175.944 219.579 180.628 215.797 183.675L215.796 139.958C215.796 132.189 209.739 125.842 202.112 125.427L201.318 125.405 144.84 125.402C147.868 121.505 152.586 119 157.886 119L203.386 119Z" fill="url(#fill8)" fill-rule="evenodd"/><path d="M287.952 146.466C288.816 149.122 289.584 151.794 290.256 154.482L285.744 155.298C285.424 153.314 284.8 150.642 283.872 147.282ZM297.984 146.226C298.592 147.314 299.248 148.626 299.952 150.162 300.656 151.698 301.184 152.962 301.536 153.954L297.312 155.25C296.928 154.194 296.408 152.882 295.752 151.314 295.096 149.746 294.528 148.466 294.048 147.474ZM308.112 145.746C308.912 146.866 309.8 148.194 310.776 149.73 311.752 151.266 312.56 152.642 313.2 153.858L309.168 155.874C308.08 153.602 306.496 150.818 304.416 147.522ZM276.288 145.554 280.176 147.186C279.216 149.682 277.616 152.642 275.376 156.066L271.248 153.906C273.456 150.898 275.136 148.114 276.288 145.554ZM348.768 134.994 339.936 134.994 339.936 138.498C339.936 139.394 339.92 140.05 339.888 140.466L348.768 140.466ZM350.688 125.01 354.576 126.978C353.84 128.13 352.912 129.458 351.792 130.962L360.096 130.962 360.096 134.994 353.088 134.994 353.088 140.466 361.536 140.466 361.536 144.45 353.088 144.45 353.088 154.962 348.768 154.962 348.768 144.45 339.552 144.45C339.2 146.914 338.432 148.962 337.248 150.594 336.064 152.226 334.208 153.858 331.68 155.49L328.608 152.466C330.752 150.994 332.312 149.682 333.288 148.53 334.264 147.378 334.912 146.018 335.232 144.45L328.08 144.45 328.08 140.466 335.664 140.466 335.664 138.69 335.664 134.994 329.424 134.994 329.424 130.962 337.776 130.962C337.008 129.906 335.968 128.578 334.656 126.978L338.256 125.058C339.504 126.434 340.736 128.034 341.952 129.858L340.272 130.962 346.992 130.962C348.272 129.074 349.504 127.09 350.688 125.01ZM301.056 117.858 304.272 119.97C303.376 121.378 301.792 123.474 299.52 126.258L296.448 123.858C297.216 123.026 298.048 122.018 298.944 120.834 299.84 119.65 300.544 118.658 301.056 117.858ZM283.728 117.81C284.688 119.026 286.128 121.122 288.048 124.098L284.832 126.21C282.848 123.074 281.408 120.946 280.512 119.826ZM327.6 117.234 327.6 120.978 355.104 120.978 355.104 117.234ZM278.88 116.898 278.88 127.026 290.352 127.026 290.352 116.898ZM305.904 116.898 294.384 116.898 294.384 127.026 305.904 127.026ZM323.04 113.298 359.664 113.298 359.664 124.818 327.6 124.818 327.6 129.522C327.6 135.634 327.176 140.674 326.328 144.642 325.48 148.61 324.224 152.066 322.56 155.01L318.288 152.658C319.504 150.61 320.44 148.578 321.096 146.562 321.752 144.546 322.24 142.138 322.56 139.338 322.88 136.538 323.04 132.962 323.04 128.61ZM274.704 113.202 310.08 113.202 310.08 130.722 294.384 130.722 294.384 133.842 310.992 133.842 310.992 137.538 294.384 137.538 294.384 141.042 313.68 141.042 313.68 144.786 271.152 144.786 271.152 141.042 290.352 141.042 290.352 137.538 273.792 137.538 273.792 133.842 290.352 133.842 290.352 130.722 274.704 130.722Z" fill-rule="evenodd"/><path d="M392.06 449.096C392.382 449.955 392.725 450.963 393.088 452.121 393.452 453.278 393.734 454.304 393.937 455.197L390.992 455.8C390.684 454.149 390.144 452.083 389.374 449.602ZM414.408 447.663 413.804 449.919C413.649 450.496 413.526 450.916 413.433 451.178L419.152 452.711 420.096 449.187ZM385.455 447.657C385.659 448.463 385.855 449.421 386.044 450.531 386.232 451.642 386.354 452.547 386.409 453.247L383.466 453.352C383.4 452.606 383.292 451.671 383.14 450.549 382.988 449.426 382.843 448.503 382.705 447.782ZM376.186 445.902 378.954 446.081C379.052 447.94 379.085 449.793 379.054 451.64L376.008 451.387C376.144 450.054 376.203 448.226 376.186 445.902ZM371.6 443.481 373.822 445.203C372.773 446.644 371.232 448.274 369.199 450.093L366.914 447.989C368.854 446.433 370.417 444.931 371.6 443.481ZM415.041 440.975C415.607 442.076 416.124 443.319 416.593 444.703L415.32 445.124 419.648 446.284C420.798 445.289 421.933 444.224 423.055 443.089L425.219 445.027C424.546 445.642 423.719 446.337 422.739 447.112L428.086 448.545 427.39 451.141 422.878 449.932 421.934 453.456 427.374 454.914 426.686 457.479 421.246 456.021 419.432 462.791 416.65 462.045 418.464 455.276 412.53 453.686C411.878 455.212 411.03 456.398 409.986 457.245 408.942 458.091 407.465 458.822 405.555 459.437L404.099 456.959C405.734 456.381 406.965 455.806 407.792 455.232 408.619 454.659 409.271 453.895 409.748 452.94L405.142 451.706 405.829 449.141 410.713 450.449 411.02 449.306 411.657 446.926 407.639 445.849 408.335 443.253 413.713 444.694C413.401 443.881 412.96 442.847 412.391 441.59ZM409.529 434.098 408.883 436.509 426.594 441.255 427.24 438.844ZM407.272 430.776 430.856 437.096 428.868 444.514 408.22 438.982 407.409 442.011C406.354 445.947 405.211 449.119 403.981 451.528 402.75 453.937 401.345 455.945 399.765 457.554L397.42 455.302C398.557 454.193 399.51 453.046 400.28 451.861 401.051 450.676 401.78 449.21 402.47 447.462 403.159 445.714 403.879 443.439 404.63 440.637ZM392.328 429.919 394.035 431.834C393.215 432.587 391.833 433.663 389.89 435.064L388.326 432.988C388.964 432.585 389.673 432.079 390.455 431.471 391.236 430.864 391.86 430.346 392.328 429.919ZM388.198 428.15 386.45 434.672 393.868 436.66 395.616 430.138ZM381.178 426.899C381.587 427.848 382.152 429.446 382.875 431.693L380.44 432.498C379.703 430.137 379.143 428.518 378.759 427.642ZM378.214 425.475 376.466 431.997 383.854 433.977 385.601 427.455ZM376.162 422.374 398.943 428.478 395.92 439.76 385.812 437.052 385.274 439.061 395.969 441.927 395.331 444.307 384.636 441.441 384.032 443.698 396.457 447.027 395.811 449.438 368.425 442.1 369.071 439.689 381.435 443.002 382.04 440.746 371.376 437.888 372.014 435.508 382.677 438.366 383.216 436.357 373.139 433.656ZM322.477 416.007 321.806 418.511 331.604 421.136 332.275 418.632ZM355.545 415.492 358.451 416.27 355.552 427.089 362.383 428.919 364.545 420.852 367.419 421.622 364.495 432.533 354.79 429.932 351.974 440.442 359.701 442.512 361.921 434.228 364.826 435.007 361.497 447.432 358.591 446.654 358.956 445.294 337.752 439.612 340.7 428.609 343.637 429.395 341.434 437.617 349.068 439.663 351.884 429.154 342.21 426.561 345.133 415.65 348.008 416.421 345.846 424.488 352.646 426.31ZM309.231 414.379 315.66 416.102 312.919 426.333C313.548 428.025 314.335 429.313 315.28 430.195 316.225 431.078 317.647 431.807 319.547 432.383 321.606 433.023 323.934 433.69 326.53 434.386 329.147 435.087 331.497 435.673 333.58 436.142L332.233 438.697C330.068 438.205 327.646 437.6 324.967 436.883 322.535 436.231 320.352 435.602 318.416 434.995 316.357 434.355 314.778 433.573 313.678 432.648 312.579 431.724 311.645 430.387 310.878 428.635L306.316 432.183 304.891 429.217 310.176 425.565 312.181 418.085 308.502 417.099ZM323.81 411.03 323.115 413.627 332.913 416.252 333.609 413.656ZM321.846 407.854 336.868 411.879 333.547 424.273C333.739 424.215 334.033 424.106 334.429 423.947L335.267 426.258C333.242 426.975 331.31 427.55 329.471 427.985L333.39 432.646 331.36 434.289C327.523 429.484 324.592 425.916 322.567 423.584L324.315 422.131C324.315 422.131 325.282 423.218 327.217 425.393L327.849 426.126C329.492 425.683 331.365 425.08 333.468 424.319L321.135 421.014 319.363 427.629C321.533 427.526 323.451 427.454 325.118 427.415L324.917 430.144C322.206 430.124 319.89 430.155 317.968 430.237 317.228 430.281 316.551 430.332 315.94 430.389L315.504 427.688C315.962 427.546 316.279 427.393 316.455 427.231 316.631 427.068 316.758 426.842 316.835 426.554ZM314.637 404.961C315.172 405.767 315.816 406.845 316.569 408.196 317.323 409.546 317.902 410.662 318.306 411.543L315.641 413.082C315.257 412.206 314.696 411.067 313.956 409.665 313.216 408.263 312.609 407.212 312.134 406.51Z" fill="#FFFFFF" fill-rule="evenodd"/><path d="M310.715 203.056 310.714 203.056 310.773 203.222 310.773 203.222ZM383.268 201.251C383.79 201.251 384.214 201.453 384.537 201.858 384.861 202.263 385.023 202.889 385.023 203.735 385.023 204.959 384.704 205.967 384.065 206.759 383.426 207.551 382.585 208.046 381.541 208.244L381.54 206.975C382.764 206.597 383.412 205.724 383.484 204.356 383.431 204.374 383.349 204.383 383.241 204.383 382.791 204.383 382.436 204.23 382.175 203.924 381.914 203.618 381.783 203.249 381.783 202.817 381.783 202.367 381.923 201.993 382.202 201.696 382.481 201.399 382.836 201.251 383.268 201.251ZM303.591 200.657C303.951 202.709 304.185 204.212 304.293 205.166L302.484 205.355C302.322 203.753 302.142 202.268 301.944 200.9ZM299.056 200.441 300.757 200.819C300.576 201.629 300.351 202.538 300.082 203.546 299.811 204.554 299.56 205.373 299.326 206.003L297.517 205.409C297.787 204.707 298.07 203.883 298.367 202.938 298.664 201.994 298.894 201.161 299.056 200.441ZM306.615 200.225C307.047 201.719 307.416 203.15 307.722 204.518L306.021 204.869C305.697 203.375 305.337 201.944 304.941 200.576ZM479.199 198.335 464.781 198.335 464.781 202.142 479.199 202.142ZM279.264 198.308 273.838 198.308 273.838 199.901 279.264 199.901ZM273.837 195.122 273.837 196.715 279.264 196.715 279.264 195.122ZM289.254 194.798 289.254 197.768 292.089 197.768 292.089 194.798ZM337.774 194.123 339.934 194.123 339.934 201.116C339.934 201.818 340.055 202.309 340.298 202.587 340.541 202.867 340.96 203.024 341.553 203.06 342.309 203.096 342.823 203.114 343.092 203.114 343.363 203.114 343.875 203.096 344.632 203.06 345.351 203.006 345.837 202.858 346.089 202.615 346.341 202.372 346.476 201.881 346.494 201.143 346.549 199.901 346.576 198.866 346.576 198.038L348.708 198.443 348.547 202.061C348.51 202.835 348.384 203.429 348.168 203.843 347.953 204.257 347.615 204.559 347.156 204.747 346.697 204.937 346.035 205.058 345.172 205.112 344.397 205.166 343.669 205.193 342.985 205.193 342.319 205.193 341.589 205.166 340.797 205.112 339.717 205.04 338.943 204.766 338.475 204.289 338.008 203.812 337.773 202.952 337.773 201.71ZM356.836 194.069 356.835 197.633 362.938 197.633 362.938 194.069ZM365.098 194.069 365.098 197.633 371.281 197.633 371.281 194.069ZM281.181 193.448 281.181 203.195C281.181 204.023 281.028 204.617 280.722 204.977 280.416 205.337 279.93 205.535 279.264 205.571 278.652 205.607 278.031 205.58 277.401 205.49L276.996 203.789C277.41 203.879 277.905 203.924 278.481 203.924 278.787 203.924 278.994 203.829 279.103 203.64 279.21 203.451 279.264 203.141 279.264 202.709L279.264 201.467 273.837 201.467 273.837 205.706 271.92 205.706 271.92 193.448ZM464.781 192.53 464.781 196.229 479.199 196.229 479.199 192.53ZM354.648 192.179 373.522 192.179 373.522 199.469 356.728 199.469C356.566 200.621 356.215 201.723 355.675 202.776 355.134 203.829 354.325 205.022 353.245 206.354L351.517 205.031C352.362 204.005 352.997 203.123 353.42 202.385 353.843 201.647 354.149 200.868 354.338 200.049 354.527 199.23 354.631 198.218 354.648 197.012ZM289.254 189.992 289.254 192.962 292.089 192.962 292.089 189.992ZM492.213 188.453C491.709 191.423 491.151 193.916 490.539 195.932 490.899 196.184 491.709 196.796 492.97 197.768L493.536 198.2C494.22 197.048 494.738 195.734 495.089 194.258 495.44 192.782 495.741 190.847 495.993 188.453ZM452.766 187.913 447.933 187.913C447.879 188.039 447.78 188.228 447.636 188.48 448.032 191.738 448.95 194.573 450.39 196.985 451.038 195.779 451.551 194.442 451.93 192.975 452.307 191.508 452.586 189.821 452.766 187.913ZM420.124 187.697 419.746 188.588C420.052 190.334 420.466 191.913 420.987 193.326 421.509 194.739 422.185 196.058 423.012 197.282 423.769 196.022 424.34 194.636 424.727 193.124 425.114 191.612 425.398 189.803 425.578 187.697ZM464.781 186.671 464.781 190.478 479.199 190.478 479.199 186.671ZM502.311 186.671 502.311 200.981 507.603 200.981 507.603 186.671ZM307.317 185.375 308.641 186.05C308.389 186.626 307.795 187.787 306.859 189.533L305.509 188.75C305.976 188.03 306.579 186.905 307.317 185.375ZM301.944 185.321C302.79 187.013 303.348 188.147 303.618 188.723L302.214 189.452C301.674 188.264 301.116 187.112 300.541 185.996ZM500.232 184.538 509.655 184.538 509.655 205.328 507.603 205.328 507.603 203.195 502.311 203.195 502.311 205.49 500.232 205.49ZM300.459 184.484 300.459 190.289 303.753 190.289 303.753 184.484ZM305.4 184.484 305.4 190.289 308.694 190.289 308.694 184.484ZM347.143 182.972 347.143 184.997 337.071 184.997 337.044 186.077C337.027 186.455 337.017 186.833 337.018 187.211 337.018 187.589 337.009 187.913 336.99 188.183 336.972 188.777 336.91 189.596 336.802 190.64L348.709 190.64 348.708 192.665 336.532 192.665C336.027 195.545 335.024 198.029 333.521 200.117 332.018 202.205 329.728 204.176 326.649 206.03L325.354 204.032C328.108 202.43 330.173 200.738 331.55 198.956 332.927 197.174 333.858 195.077 334.345 192.665L325.219 192.665 325.219 190.64 334.669 190.64C334.741 190.028 334.813 189.164 334.885 188.048 334.903 187.778 334.911 187.458 334.911 187.089 334.911 186.72 334.921 186.347 334.938 185.969L334.966 184.997 326.757 184.997 326.757 182.972ZM298.785 182.702 310.341 182.702 310.341 192.071 305.454 192.071 305.454 193.961 310.26 193.961 310.26 195.77 305.454 195.77 305.454 197.687 310.638 197.444 310.665 199.199C309.657 199.235 305.724 199.433 298.866 199.793L298.245 199.82 298.164 198.011C298.866 198.011 300.711 197.93 303.699 197.768L303.699 195.77 298.542 195.77 298.542 193.961 303.699 193.961 303.699 192.071 298.785 192.071ZM319.143 182.351C319.521 182.981 319.971 183.755 320.493 184.673 321.015 185.591 321.412 186.32 321.681 186.86L319.926 187.778C319.08 186.14 318.27 184.628 317.496 183.242ZM412.293 181.46 414.399 181.46 414.399 205.922 412.293 205.922 412.293 198.389C410.331 199.217 409.062 199.766 408.486 200.036 407.946 200.27 407.487 200.513 407.109 200.765L406.191 198.767C406.497 198.551 406.695 198.366 406.785 198.214 406.875 198.06 406.92 197.84 406.92 197.552L406.92 184.484 408.999 184.484 408.999 197.444C409.431 197.282 410.07 197.03 410.916 196.688L412.293 196.148ZM439.104 181.352C439.267 181.748 439.496 182.328 439.793 183.093 440.09 183.859 440.382 184.637 440.671 185.429L444.585 185.429 444.585 187.616 437.781 187.616 437.7 189.749 437.673 190.937 437.673 191.396 443.236 191.396C443.217 192.818 443.164 194.582 443.073 196.688 442.983 198.794 442.884 200.432 442.776 201.602 442.65 202.844 442.371 203.713 441.939 204.208 441.507 204.702 440.779 204.95 439.752 204.95 438.816 204.95 438.015 204.905 437.349 204.815L436.89 202.709C437.826 202.853 438.528 202.925 438.996 202.925 439.59 202.925 440.013 202.776 440.265 202.48 440.517 202.183 440.688 201.647 440.779 200.873 441.048 198.659 441.183 196.166 441.183 193.394L437.592 193.394C437.503 195.536 437.349 197.273 437.134 198.605 436.917 199.937 436.576 201.148 436.107 202.237 435.639 203.326 434.955 204.563 434.056 205.949L432.111 204.707C433.065 203.321 433.772 202.052 434.231 200.9 434.69 199.748 435.014 198.416 435.203 196.904 435.392 195.392 435.522 193.295 435.594 190.613 435.63 190.217 435.648 189.425 435.648 188.237 435.667 188.093 435.675 187.886 435.675 187.616L433.029 187.616 433.029 185.429 438.348 185.429C438.096 184.727 437.844 184.047 437.592 183.391 437.34 182.734 437.142 182.234 436.998 181.892ZM275.511 181.298 277.483 181.298 277.482 183.485 281.829 183.485 281.829 185.186 277.483 185.186 277.482 186.806 281.181 186.806 281.181 188.48 277.483 188.48 277.483 190.154 282.127 190.154 282.126 191.801 270.517 191.801 270.517 190.154 275.512 190.154 275.512 188.48 271.57 188.48 271.569 186.806 275.511 186.806 275.511 185.186 270.975 185.186 270.975 183.485 275.512 183.485ZM316.497 181.298 316.497 189.128 321.708 189.128 321.708 191.234 316.848 191.234C317.064 194.042 317.649 196.508 318.603 198.632 319.557 200.756 320.889 202.691 322.599 204.437L321.141 206.138C319.773 204.572 318.671 202.983 317.834 201.372 316.997 199.761 316.371 197.948 315.957 195.932 315.579 197.948 315.003 199.766 314.229 201.386 313.455 203.006 312.492 204.527 311.34 205.949L309.828 204.572 310.577 203.292 309.181 203.789C308.784 202.475 308.406 201.332 308.046 200.36L309.558 199.793 310.715 203.056 313.19 198.821C313.973 196.625 314.436 194.096 314.58 191.234L311.205 191.234 311.205 189.128 314.634 189.128 314.634 189.101 314.634 181.298ZM447.987 181.271 450.201 181.595C449.823 183.107 449.4 184.466 448.932 185.672L457.032 185.672 457.032 187.913 454.899 187.913C454.629 190.289 454.251 192.359 453.766 194.123 453.279 195.887 452.604 197.498 451.74 198.956 453.252 200.846 455.178 202.556 457.518 204.086L456.168 206.057C453.9 204.527 451.992 202.781 450.444 200.819 449.058 202.601 447.141 204.365 444.693 206.111L443.127 204.302C445.791 202.538 447.789 200.756 449.121 198.956 447.681 196.67 446.664 194.033 446.07 191.045 445.512 191.801 445.206 192.215 445.152 192.287L443.694 190.721C444.702 189.407 445.58 187.935 446.327 186.306 447.074 184.677 447.627 182.999 447.987 181.271ZM419.773 181.217 422.014 181.568C421.726 182.864 421.357 184.214 420.907 185.618L429.979 185.618 429.979 187.697 427.711 187.697C427.441 190.235 427.054 192.395 426.55 194.177 426.046 195.959 425.308 197.579 424.336 199.037 425.884 200.855 427.945 202.574 430.519 204.194L429.195 206.057C426.64 204.401 424.57 202.637 422.986 200.765 421.492 202.511 419.323 204.293 416.479 206.111L415.264 204.221C418.072 202.529 420.214 200.819 421.69 199.091 420.214 196.931 419.098 194.366 418.342 191.396 417.909 192.17 417.388 192.998 416.776 193.88L415.21 192.179C416.2 190.775 417.131 189.033 418.004 186.954 418.877 184.875 419.467 182.963 419.773 181.217ZM490.89 181.217 493.077 181.46C492.933 182.9 492.753 184.511 492.537 186.293L498.099 186.293 498.099 188.318C497.811 191.054 497.451 193.272 497.019 194.973 496.587 196.674 495.966 198.182 495.156 199.496 495.984 200.162 497.28 201.251 499.044 202.763L497.694 204.707C496.164 203.321 494.877 202.187 493.833 201.305 492.609 202.745 490.728 204.392 488.19 206.246L486.49 204.653C487.84 203.735 488.974 202.907 489.891 202.169 490.809 201.431 491.583 200.693 492.214 199.955 490.521 198.587 489.153 197.534 488.109 196.796 488.937 193.88 489.576 191.099 490.026 188.453L487.002 188.453 487.002 186.293 490.35 186.293C490.584 184.493 490.764 182.801 490.89 181.217ZM362.856 181.109 365.071 181.109 365.07 184.079 376.005 184.079 376.005 185.942 365.07 185.942 365.07 188.318 374.034 188.318 374.034 190.154 353.973 190.154 353.973 188.318 362.856 188.318 362.856 185.942 351.922 185.942 351.921 184.079 362.856 184.079ZM286.878 181.055 288.66 181.73C288.264 182.414 287.904 182.981 287.58 183.431L292.44 183.431 292.44 185.024 290.361 188.102 293.979 188.102 293.979 192.962 295.68 192.962 295.68 194.798 293.979 194.798 293.979 199.631 289.254 199.631 289.254 202.628C289.254 203.672 289.079 204.414 288.728 204.855 288.377 205.296 287.805 205.535 287.013 205.571 286.833 205.589 286.572 205.598 286.23 205.598 285.564 205.598 284.844 205.553 284.07 205.463L283.719 203.573C284.583 203.699 285.438 203.753 286.284 203.735 286.644 203.717 286.901 203.577 287.054 203.316 287.207 203.055 287.283 202.646 287.283 202.088L287.283 199.631 283.125 199.631 283.125 197.768 287.283 197.768 287.283 194.798 282.342 194.798 282.342 192.962 287.283 192.962 287.283 189.992 283.476 189.992 283.476 188.102 288.093 188.102 290.064 185.24 286.122 185.24C285.33 186.086 284.44 186.878 283.449 187.616L282.234 186.185C283.206 185.483 284.088 184.686 284.88 183.795 285.672 182.904 286.339 181.991 286.878 181.055ZM470.451 180.974 473.043 181.352C472.773 182.288 472.359 183.359 471.801 184.565L481.413 184.565 481.413 205.841 479.2 205.841 479.199 204.221 464.781 204.221 464.781 205.922 462.568 205.922 462.567 184.565 469.128 184.565C469.65 183.341 470.091 182.144 470.451 180.974Z" fill-rule="evenodd"/><path d="M207.252 68.948C211.488 70.083 214.002 74.4371 212.867 78.6731 211.732 82.909 207.378 85.4228 203.142 84.2878 198.906 83.1528 196.392 78.7987 197.527 74.5627 198.662 70.3268 203.016 67.813 207.252 68.948ZM257.655 82.4533C261.891 83.5883 264.405 87.9424 263.27 92.1783 262.135 96.4143 257.78 98.9281 253.545 97.7931 249.309 96.6581 246.795 92.304 247.93 88.068 249.065 83.8321 253.419 81.3183 257.655 82.4533ZM220.17 20.7371C224.406 21.8721 226.92 26.2262 225.785 30.4622 224.65 34.6981 220.296 37.2119 216.06 36.0769 211.824 34.9419 209.31 30.5878 210.445 26.3518 211.58 22.1159 215.934 19.6021 220.17 20.7371ZM270.573 34.2424C274.809 35.3774 277.323 39.7315 276.188 43.9674 275.053 48.2034 270.699 50.7172 266.463 49.5822 262.227 48.4472 259.713 44.0931 260.848 39.8571 261.983 35.6212 266.337 33.1074 270.573 34.2424Z" fill="#FFFFFF" fill-rule="evenodd"/><path d="M113.194 534.827 127.531 559.66 127.61 559.807C128.2 561.001 127.768 562.464 126.599 563.139 125.429 563.815 123.946 563.457 123.207 562.349L123.119 562.207 106.234 532.962 113.194 534.827ZM142.036 505.526C142.711 506.696 142.354 508.179 141.246 508.918L141.104 509.006 112.11 525.745 166.865 540.417C168.175 540.768 168.972 542.079 168.701 543.391L168.666 543.537C168.315 544.847 167.004 545.644 165.692 545.372L165.546 545.338 106.832 529.605C105.962 529.372 105.22 528.803 104.769 528.023 103.863 526.452 104.353 524.459 105.854 523.48L106.013 523.383 138.556 504.594C139.775 503.89 141.332 504.308 142.036 505.526Z" fill="#FFFFFF" fill-rule="evenodd"/></g></svg>