<svg width="5523" height="1686" xmlns="http://www.w3.org/2000/svg" xmlns:xlink="http://www.w3.org/1999/xlink" xml:space="preserve" overflow="hidden"><defs><clipPath id="clip0"><rect x="432" y="2007" width="5523" height="1686"/></clipPath></defs><g clip-path="url(#clip0)" transform="translate(-432 -2007)"><path d="M4912.95 3116.51C4899.63 3116.51 4874.79 3118.93 4838.44 3123.77 4810.43 3128.08 4794.01 3132.66 4789.16 3137.5 4784.31 3142.35 4787.28 3152.31 4798.05 3167.38 4805.59 3179.23 4817.16 3200.23 4832.78 3230.38 4848.4 3260.53 4858.36 3277.22 4862.67 3280.45 4864.82 3283.68 4875.86 3282.87 4895.79 3278.03 4915.71 3273.18 4925.68 3269.14 4925.68 3265.91 4925.68 3262.68 4921.37 3255.68 4912.75 3244.92 4906.29 3237.38 4903.06 3233.34 4903.06 3232.8 4903.06 3232.26 4905.75 3232.53 4911.14 3233.61 4926.22 3238.99 4933.75 3210.46 4933.75 3148 4933.75 3129.7 4929.99 3119.47 4922.45 3117.31 4920.56 3116.77 4917.4 3116.51 4912.95 3116.51ZM4995.95 2794.27C4988.95 2793.19 4971.99 2801.27 4945.06 2818.5 4920.29 2834.65 4901.71 2844.88 4889.33 2849.19 4876.94 2853.49 4870.75 2858.07 4870.75 2862.92 4870.75 2867.76 4863.75 2871.8 4849.75 2875.03 4830.36 2879.34 4801.28 2902.49 4762.5 2944.48 4750.66 2957.41 4743.66 2967.1 4741.5 2973.56 4739.35 2980.02 4739.35 2991.33 4741.5 3007.48 4744.73 3022.55 4747.69 3032.78 4750.39 3038.17 4753.08 3043.55 4758.2 3047.32 4765.73 3049.47 4778.66 3052.7 4792.39 3050.28 4806.93 3042.2 4821.47 3034.13 4839.24 3026.86 4860.25 3020.4 4881.25 3013.94 4904.67 3005.86 4930.52 2996.17L4969.3 2980.02 4982.22 2920.26C4991.92 2880.41 4998.38 2849.72 5001.61 2828.19 5004.84 2806.65 5002.96 2795.35 4995.95 2794.27ZM5134.35 2746.9C5120.85 2746.98 5113.76 2747.7 5113.08 2749.04 5113.08 2750.12 5111.47 2775.96 5108.24 2826.57 5106.08 2867.49 5106.89 2890.91 5110.66 2896.84 5114.43 2902.76 5131.39 2908.95 5161.55 2915.41 5215.4 2925.1 5246.1 2941.79 5253.64 2965.48 5259.02 2982.71 5247.71 2996.17 5219.71 3005.86 5201.4 3011.25 5192.25 3016.09 5192.25 3020.4 5192.25 3024.71 5173.94 3033.86 5137.32 3047.86 5074.85 3072.62 5043.61 3104.93 5043.61 3144.77 5043.61 3157.69 5038.77 3169.54 5029.07 3180.31 5014 3195.38 5000.8 3210.73 4989.49 3226.34 4978.18 3241.95 4973.61 3250.84 4975.76 3252.99 4977.91 3255.15 4987.07 3251.91 5003.22 3243.3 5018.3 3235.76 5037.15 3231.99 5059.77 3231.99 5082.39 3231.99 5100.7 3235.76 5114.7 3243.3 5128.7 3251.91 5138.93 3255.41 5145.4 3253.8 5151.86 3252.18 5157.78 3245.45 5163.17 3233.61 5169.63 3219.61 5182.55 3198.07 5201.94 3169 5231.02 3124.85 5258.22 3052.17 5283.53 2950.94 5308.84 2849.72 5315.03 2789.42 5302.11 2770.04 5297.8 2762.5 5280.03 2757.12 5248.79 2753.89 5227.25 2750.66 5199.52 2748.5 5165.59 2747.43 5152.87 2747.02 5142.45 2746.85 5134.35 2746.9ZM5041.22 2437.94C5048.2 2438.86 5057.08 2446.73 5067.85 2461.53 5075.39 2472.3 5081.31 2484.15 5085.62 2497.07 5094.23 2521.83 5098.54 2548.22 5098.54 2576.21 5098.54 2604.21 5100.16 2631.67 5103.39 2658.59 5105.54 2676.9 5107.7 2688.2 5109.85 2692.51 5112.01 2696.82 5116.85 2697.89 5124.39 2695.74 5135.16 2692.51 5161.55 2690.89 5203.56 2690.89 5268.18 2690.89 5316.65 2702.74 5348.96 2726.43 5356.5 2732.89 5367.27 2739.35 5381.27 2745.81 5395.27 2752.27 5405.23 2761.16 5411.16 2772.46 5417.08 2783.77 5425.43 2796.96 5436.2 2812.04 5444.81 2821.73 5449.93 2832.76 5451.55 2845.15 5453.16 2857.53 5453.43 2886.87 5452.35 2933.18 5448.05 3183 5374.81 3377.36 5232.64 3516.27 5205.71 3542.12 5189.02 3556.92 5182.55 3560.69 5176.09 3564.46 5168.55 3563.11 5159.94 3556.65 5150.24 3550.19 5139.2 3539.96 5126.82 3525.96 5114.43 3511.97 5107.7 3501.2 5106.62 3493.66 5105.54 3488.28 5098.81 3478.31 5086.43 3463.78 5074.04 3449.24 5067.58 3439.01 5067.04 3433.09 5066.5 3427.17 5060.31 3417.21 5048.46 3403.21L5032.3 3382.21 4966.07 3393.52C4920.83 3401.05 4892.83 3408.59 4882.06 3416.13 4869.13 3423.67 4858.09 3426.9 4848.94 3425.82 4839.78 3424.74 4826.59 3418.82 4809.35 3408.05 4787.81 3395.13 4774.62 3388.67 4769.77 3388.67 4764.93 3388.67 4762.5 3386.52 4762.5 3382.21 4762.5 3377.9 4750.39 3359.33 4726.15 3326.48 4701.92 3293.64 4686.03 3273.99 4678.49 3267.53 4672.03 3262.14 4659.65 3246.53 4641.34 3220.69 4628.41 3203.46 4620.6 3190.81 4617.91 3182.73 4615.22 3174.65 4614.95 3161.46 4617.1 3143.16 4620.33 3115.16 4619.26 3092.28 4613.87 3074.51 4608.49 3056.74 4604.45 3036.01 4601.75 3012.32 4599.06 2988.63 4595.02 2969.52 4589.64 2954.98 4584.25 2940.45 4581.56 2924.02 4581.56 2905.72 4581.56 2891.72 4581.02 2884.18 4579.94 2883.11 4578.87 2882.03 4574.02 2884.72 4565.4 2891.18 4555.71 2900.87 4550.86 2908.95 4550.86 2915.41 4550.86 2921.87 4546.82 2926.45 4538.75 2929.14 4530.67 2931.83 4526.63 2936.95 4526.63 2944.48 4526.63 2952.02 4522.86 2959.02 4515.32 2965.48 4507.78 2971.94 4505.63 2977.6 4508.86 2982.44 4512.09 2987.29 4507.78 3003.17 4495.93 3030.09 4485.16 3058.09 4477.62 3076.93 4473.32 3086.62 4467.93 3097.39 4460.93 3113.27 4452.31 3134.27 4443.7 3155.27 4438.85 3178.15 4437.77 3202.92 4434.54 3235.22 4415.69 3288.53 4381.23 3362.83 4372.61 3380.06 4369.92 3394.86 4373.15 3407.25 4376.38 3419.63 4374.23 3429.05 4366.69 3435.51 4359.15 3441.97 4355.38 3448.7 4355.38 3455.7 4355.38 3462.7 4349.99 3476.16 4339.22 3496.08 4328.45 3516 4323.07 3531.89 4323.07 3543.73 4323.07 3554.5 4317.41 3562.31 4306.1 3567.15 4294.79 3572 4282.14 3572.27 4268.14 3567.96 4239.06 3557.19 4211.59 3525.96 4185.74 3474.28L4163.13 3432.28 4174.44 3336.98C4183.05 3246.53 4190.59 3189.46 4197.05 3165.77 4203.51 3144.23 4206.75 3113.54 4206.75 3073.7 4206.75 3046.78 4205.13 3026.86 4201.9 3013.94 4198.67 3001.02 4191.13 2982.71 4179.28 2959.02 4163.13 2926.72 4152.89 2901.14 4148.59 2882.3 4144.28 2863.45 4145.35 2845.42 4151.82 2828.19 4157.2 2809.88 4173.9 2789.96 4201.9 2768.43 4214.82 2757.66 4221.29 2755.5 4221.29 2761.96 4221.29 2767.35 4216.17 2773.54 4205.94 2780.54 4195.71 2787.54 4188.97 2798.58 4185.74 2813.65 4184.67 2823.34 4186.01 2831.96 4189.78 2839.49 4193.55 2847.03 4201.9 2858.34 4214.82 2873.41 4233.13 2891.72 4251.44 2920.26 4269.75 2959.02 4288.06 2997.79 4300.99 3035.47 4308.53 3072.09 4313.91 3097.93 4315.26 3140.73 4312.57 3200.5 4309.87 3260.26 4310.14 3298.22 4313.37 3314.37L4319.84 3336.98 4348.92 3290.14C4368.3 3258.91 4380.69 3235.49 4386.07 3219.88 4391.46 3204.27 4397.92 3188.92 4405.46 3173.85 4413 3157.69 4425.93 3127.54 4444.24 3083.39 4463.62 3039.24 4489.74 2985.67 4522.59 2922.68 4555.44 2859.69 4574.02 2820.11 4578.33 2803.96 4581.56 2788.88 4588.83 2774.62 4600.14 2761.16 4611.45 2747.7 4622.49 2739.89 4633.26 2737.74 4642.95 2735.58 4656.95 2738.81 4675.26 2747.43 4693.57 2756.04 4708.11 2766.27 4718.88 2778.12 4728.58 2788.88 4733.15 2807.19 4732.62 2833.03 4732.08 2858.88 4733.96 2871.8 4738.27 2871.8 4742.58 2871.8 4751.73 2865.88 4765.73 2854.03 4781.89 2841.11 4803.16 2825.77 4829.55 2808 4855.94 2790.23 4872.63 2779.73 4879.63 2776.5 4886.63 2773.27 4911.14 2762.5 4953.14 2744.2L5014.53 2716.74 5017.76 2666.67C5019.92 2634.36 5021.53 2590.75 5022.61 2535.83 5023.69 2480.92 5026.38 2450.23 5030.69 2443.77 5033.52 2439.32 5037.03 2437.38 5041.22 2437.94ZM4267.81 2402.1C4276.65 2402.55 4287.52 2404.6 4300.45 2408.23 4334.92 2417.92 4363.46 2433 4386.07 2453.46 4399 2466.38 4410.04 2482.8 4419.19 2502.72 4428.35 2522.64 4432.93 2540.68 4432.93 2556.83 4432.93 2585.9 4409.23 2599.36 4361.84 2597.21 4333.84 2596.13 4316.61 2597.21 4310.14 2600.44 4306.91 2602.59 4302.6 2598.83 4297.22 2589.13 4291.83 2579.44 4286.99 2567.6 4282.68 2553.6 4278.37 2539.6 4276.22 2527.76 4276.22 2518.06 4276.22 2508.37 4269.75 2490.34 4256.83 2463.96 4243.9 2437.57 4238.52 2420.61 4240.67 2413.08 4244.04 2405 4253.08 2401.34 4267.81 2402.1Z" fill="#FFFFFF" fill-rule="evenodd"/><path d="M2340.59 2258.2C2338.77 2258.2 2336.65 2258.47 2334.22 2259.01 2328.84 2260.09 2315.37 2264.4 2293.82 2271.94 2265.81 2280.55 2249.65 2289.71 2245.35 2299.4 2236.73 2324.17 2233.49 2357.02 2235.65 2397.94L2238.88 2409.25C2244.27 2406.02 2246.96 2400.63 2246.96 2393.1 2246.96 2385.56 2249.12 2381.79 2253.43 2381.79 2257.73 2381.79 2272.01 2366.44 2296.25 2335.75 2320.49 2305.05 2332.61 2286.74 2332.61 2280.82 2332.61 2274.9 2335.3 2271.94 2340.69 2271.94 2346.07 2271.94 2348.77 2269.78 2348.77 2265.47 2348.77 2260.63 2346.04 2258.2 2340.59 2258.2ZM2504.71 2225.09C2509.56 2225.09 2510.36 2229.13 2507.13 2237.2 2503.9 2245.28 2501.48 2249.32 2499.86 2249.32 2498.24 2249.32 2497.44 2245.28 2497.44 2237.2 2497.44 2229.13 2499.86 2225.09 2504.71 2225.09ZM2198.48 2007C2207.1 2007 2214.37 2009.69 2220.3 2015.08 2226.22 2020.46 2234.57 2031.77 2245.35 2049 2262.58 2078.08 2273.62 2092.62 2278.47 2092.62 2283.32 2092.62 2284.94 2095.58 2283.32 2101.5 2281.7 2107.43 2286.28 2113.35 2297.06 2119.27 2307.83 2125.2 2319.68 2132.2 2332.61 2140.28 2345.54 2148.35 2364.39 2155.62 2389.17 2162.08 2407.48 2167.47 2419.6 2169.35 2425.53 2167.74 2431.45 2166.12 2443.57 2158.32 2461.89 2144.31 2485.59 2124.93 2503.9 2116.85 2516.83 2120.08L2536.22 2123.31 2520.06 2163.7C2509.29 2189.55 2506.05 2205.7 2510.36 2212.16 2512.52 2215.39 2512.52 2217.01 2510.36 2217.01 2508.21 2215.93 2505.52 2213.78 2502.28 2210.55 2496.9 2206.24 2493.13 2204.62 2490.97 2205.7 2488.82 2206.78 2486.66 2211.63 2484.51 2220.24 2481.28 2234.24 2475.89 2244.2 2468.35 2250.13 2460.81 2256.05 2458.65 2261.17 2461.89 2265.47 2465.12 2269.78 2464.04 2271.94 2458.65 2271.94 2452.19 2271.94 2436.03 2292.13 2410.17 2332.52 2384.32 2372.9 2371.39 2399.02 2371.39 2410.86 2371.39 2417.33 2367.62 2421.9 2360.08 2424.6 2352.54 2427.29 2342.3 2442.1 2329.38 2469.02L2309.98 2507.79 2334.22 2502.95C2380.55 2493.25 2411.25 2476.02 2426.33 2451.25 2437.11 2434.02 2442.49 2420.83 2442.49 2411.67 2442.49 2402.52 2444.65 2393.63 2448.96 2385.02 2457.58 2368.86 2466.19 2346.79 2474.81 2318.78 2483.43 2290.78 2486.66 2274.09 2484.51 2268.7 2481.28 2261.17 2483.43 2257.4 2490.97 2257.4 2506.05 2257.4 2513.06 2297.24 2511.98 2376.94 2510.9 2411.4 2511.71 2433.48 2514.4 2443.17 2517.1 2452.87 2525.99 2468.48 2541.07 2490.02 2562.61 2520.18 2571.23 2540.64 2566.92 2551.41 2560.46 2568.64 2535.68 2572.41 2492.59 2562.72 2478.58 2559.49 2452.19 2561.1 2413.41 2567.56 2374.62 2574.03 2336.38 2582.64 2298.67 2593.41 2272.82 2600.95 2251.54 2611.99 2234.84 2626.53 2218.14 2641.07 2203.33 2660.72 2190.4 2685.49 2183.94 2699.49 2166.7 2727.5 2138.69 2769.5 2108.53 2812.58 2097.21 2834.65 2104.76 2835.73 2106.91 2835.73 2111.76 2833.58 2119.3 2829.27 2149.46 2813.11 2194.17 2793.19 2253.43 2769.5 2332.07 2737.19 2374.08 2717.8 2379.47 2711.34 2390.24 2698.42 2409.37 2690.88 2436.84 2688.72 2464.31 2686.57 2490.97 2691.42 2516.83 2703.26 2568.54 2726.96 2568.54 2745.8 2516.83 2759.8 2503.9 2763.04 2487.74 2766.8 2468.35 2771.11 2422.02 2778.65 2395.9 2785.11 2389.97 2790.5 2384.05 2795.88 2378.93 2798.04 2374.62 2796.96 2360.62 2793.73 2343.38 2801.27 2322.91 2819.58 2312.14 2828.19 2302.17 2844.08 2293.02 2867.23 2283.86 2890.39 2277.66 2914.35 2274.43 2939.12L2269.58 2981.12 2324.53 2979.51C2364.39 2976.28 2392.67 2978.7 2409.37 2986.78 2426.06 2994.85 2441.95 3012.35 2457.04 3039.28 2467.81 3059.74 2474.54 3076.17 2477.24 3088.55 2479.93 3100.94 2481.28 3121.67 2481.28 3150.75 2480.2 3268.14 2459.73 3355.91 2419.87 3414.06 2408.02 3432.37 2402.09 3443.14 2402.09 3446.37 2402.09 3449.6 2392.94 3457.14 2374.62 3468.99 2340.15 3493.76 2301.37 3485.68 2258.27 3444.76 2216.26 3403.83 2192.02 3383.37 2185.55 3383.37 2181.25 3383.37 2166.16 3377.45 2140.31 3365.6 2091.83 3341.91 2056.28 3329.52 2033.65 3328.45 2026.11 3328.45 2018.03 3322.52 2009.41 3310.68L1996.49 3291.29 2041.73 3286.44C2070.82 3282.14 2094.52 3276.75 2112.84 3270.29 2137.61 3260.6 2194.17 3253.6 2282.51 3249.29 2309.45 3248.21 2326.68 3243.9 2334.22 3236.36 2340.69 3230.98 2346.88 3221.02 2352.81 3206.48 2358.73 3191.94 2363.85 3175.79 2368.16 3158.02 2372.47 3140.24 2375.43 3123.01 2377.05 3106.32 2378.66 3089.63 2378.93 3075.63 2377.85 3064.32 2376.78 3053.01 2373.55 3047.36 2368.16 3047.36 2355.23 3047.36 2329.11 3057.59 2289.78 3078.05 2250.46 3098.51 2229.72 3112.51 2227.57 3120.05 2225.41 3128.67 2216.8 3132.98 2201.71 3132.98 2184.48 3132.98 2170.74 3124.09 2160.51 3106.32 2150.27 3088.55 2145.16 3065.13 2145.16 3036.05 2145.16 3015.58 2147.04 2999.7 2150.81 2988.39 2154.58 2977.08 2165.62 2957.97 2183.94 2931.04 2218.41 2879.35 2229.72 2853.5 2217.87 2853.5 2215.72 2853.5 2213.03 2854.58 2209.79 2856.73 2200.1 2859.96 2185.28 2865.08 2165.35 2872.08 2145.42 2879.08 2114.99 2894.43 2074.05 2918.12 2033.11 2941.81 2009.95 2953.66 2004.57 2953.66 1999.18 2953.66 1980.6 2969.81 1948.81 3002.12 1917.03 3034.43 1901.14 3053.82 1901.14 3060.28 1901.14 3067.82 1897.91 3071.59 1891.45 3071.59 1884.98 3071.59 1876.64 3078.59 1866.4 3092.59 1856.17 3106.59 1845.39 3119.51 1834.08 3131.36 1822.77 3143.21 1813.34 3154.51 1805.8 3165.28 1793.95 3181.44 1760.55 3217.25 1705.61 3272.71 1650.67 3328.18 1615.66 3360.75 1600.57 3370.45 1581.18 3383.37 1567.99 3389.83 1560.98 3389.83 1553.98 3389.83 1543.48 3383.91 1529.47 3372.06 1515.47 3359.14 1510.08 3346.22 1513.31 3333.29 1516.54 3320.37 1515.47 3313.91 1510.08 3313.91 1504.69 3313.91 1502 3303.68 1502 3283.21 1502 3269.21 1504.42 3258.71 1509.27 3251.71 1514.12 3244.71 1525.7 3233.13 1544.02 3216.98 1570.95 3192.21 1586.3 3179.82 1590.07 3179.82 1593.84 3179.82 1595.73 3177.4 1595.73 3172.55 1595.73 3167.71 1607.04 3153.98 1629.66 3131.36 1721.23 3039.82 1779.41 2977.35 1804.19 2943.97 1866.67 2864.27 1915.15 2805.58 1949.62 2767.88 1970.09 2746.34 1980.33 2733.15 1980.33 2728.3 1980.33 2723.46 1984.1 2719.42 1991.64 2716.19 1999.18 2712.96 2002.95 2707.03 2002.95 2698.42 2002.95 2689.8 1997.29 2687.11 1985.98 2690.34 1974.67 2693.57 1949.08 2696.8 1909.22 2700.03 1884.45 2702.19 1866.13 2702.46 1854.28 2700.84 1842.43 2699.22 1827.35 2694.65 1809.03 2687.11 1782.1 2676.34 1768.64 2669.07 1768.64 2665.3 1768.64 2661.53 1766.48 2648.88 1762.17 2627.34 1761.09 2620.87 1760.29 2615.22 1759.75 2610.37 1759.21 2605.53 1758.94 2601.49 1758.94 2598.26 1758.94 2595.03 1759.48 2593.41 1760.55 2593.41 1763.79 2593.41 1770.79 2591.8 1781.56 2588.57 1789.1 2587.49 1793.68 2587.22 1795.3 2587.76 1796.91 2588.3 1797.18 2590.72 1796.11 2595.03 1792.87 2602.57 1796.64 2612.8 1807.42 2625.72L1821.96 2645.11 1902.76 2630.57C1955.55 2621.95 1984.91 2615.22 1990.83 2610.37 1996.76 2605.53 2010.49 2601.49 2032.04 2598.26 2050.35 2595.03 2068.93 2587.76 2087.79 2576.45 2106.64 2565.14 2117.15 2555.18 2119.3 2546.56 2121.45 2537.95 2115.53 2530.41 2101.52 2523.95 2091.83 2518.56 2085.63 2511.56 2082.94 2502.95 2080.25 2494.33 2082.13 2486.79 2088.6 2480.33 2091.83 2476.02 2096.68 2458.52 2103.14 2427.83 2109.6 2397.13 2112.84 2375.33 2112.84 2362.4 2112.84 2354.86 2110.95 2349.75 2107.18 2347.05 2103.41 2344.36 2095.6 2341.94 2083.75 2339.78 2027.73 2329.02 1986.25 2299.94 1959.32 2252.55 1948.55 2234.24 1941.81 2220.78 1939.12 2212.16 1936.43 2203.55 1936.7 2193.85 1939.93 2183.09 1943.16 2172.32 1946.93 2165.58 1951.24 2162.89 1955.55 2160.2 1965.78 2158.85 1981.94 2158.85 2005.64 2159.93 2023.96 2167.47 2036.89 2181.47 2049.81 2195.47 2061.66 2202.47 2072.44 2202.47 2084.29 2202.47 2099.37 2198.16 2117.68 2189.55 2136 2180.93 2147.31 2172.85 2151.62 2165.32 2157.01 2152.39 2162.39 2130.04 2167.78 2098.27 2173.17 2066.5 2174.78 2045.77 2172.63 2036.08 2169.4 2023.15 2169.4 2015.08 2172.63 2011.85 2175.86 2008.62 2184.48 2007 2198.48 2007Z" fill="#FFFFFF" fill-rule="evenodd"/><path d="M5746.7 3371.44C5765.79 3371.44 5791.73 3376.02 5824.52 3385.17 5846.02 3391.62 5861.35 3398.08 5870.49 3404.54 5879.63 3411 5889.03 3421.76 5898.71 3436.83 5916.99 3466.97 5912.15 3501.41 5884.2 3540.16 5873.44 3554.15 5856.24 3561.42 5832.58 3561.95 5808.93 3562.49 5792.26 3564.91 5782.59 3569.22 5772.91 3573.52 5768.07 3570.03 5768.07 3558.72 5768.07 3547.42 5764.31 3541.77 5756.78 3541.77 5750.33 3541.77 5745.22 3536.39 5741.46 3525.63 5737.7 3514.86 5735.81 3501.95 5735.81 3486.88 5734.74 3473.96 5728.82 3462.12 5718.07 3451.36 5699.79 3433.06 5697.11 3411 5710.01 3385.17 5715.38 3376.02 5727.62 3371.44 5746.7 3371.44ZM5794.68 2565C5798.45 2565 5801.94 2567.69 5805.17 2573.07 5808.39 2578.45 5818.61 2580.61 5835.81 2579.53 5858.39 2578.45 5873.17 2578.72 5880.16 2580.34 5887.15 2581.95 5890.65 2585.99 5890.65 2592.45 5890.65 2599.98 5896.02 2604.82 5906.78 2606.98 5931.51 2613.44 5947.1 2650.03 5953.55 2716.76 5956.77 2752.28 5954.62 2770.04 5947.1 2770.04 5939.57 2770.04 5927.21 2777.58 5910 2792.64 5898.17 2803.41 5890.65 2815.25 5887.42 2828.16 5884.2 2841.08 5879.9 2876.06 5874.52 2933.11 5866.99 3012.75 5863.23 3082.18 5863.23 3141.38 5862.15 3180.12 5860.81 3205.42 5859.2 3217.26 5857.58 3229.1 5853.01 3238.78 5845.49 3246.32 5833.66 3258.16 5821.3 3261.39 5808.39 3256.01 5775.06 3242.01 5752.48 3235.56 5740.65 3236.63 5735.28 3237.71 5732.05 3235.82 5730.98 3230.98 5729.9 3226.14 5730.44 3214.03 5732.59 3194.65 5734.74 3165.59 5738.23 3141.91 5743.07 3123.62 5747.91 3105.32 5747.91 3091.6 5743.07 3082.45 5738.23 3073.3 5738.23 3055 5743.07 3027.55 5747.91 3000.11 5751.67 2941.45 5754.36 2851.57 5757.05 2761.7 5760.28 2710.57 5764.04 2698.2 5767.8 2685.82 5766.46 2679.63 5760.01 2679.63 5750.33 2679.63 5740.12 2658.64 5729.36 2616.66 5726.14 2603.75 5729.09 2597.29 5738.23 2597.29 5747.37 2597.29 5751.94 2594.33 5751.94 2588.41 5751.94 2582.49 5757.86 2577.38 5769.68 2573.07 5782.59 2567.69 5790.92 2565 5794.68 2565Z" fill="#FFFFFF" fill-rule="evenodd"/><path d="M2967.33 2454C3096.76 2465.04 3161.47 2507.09 3161.47 2580.16 3166.73 2580.16 3169.36 2590.41 3169.36 2610.91L3169.36 2662.95 3176.46 2662.95C3230.66 2632.99 3280.38 2618.01 3325.62 2618.01 3391.39 2618.01 3428.75 2672.68 3437.69 2782.02L3437.69 2841.94C3497.14 2856.66 3532.13 2864.02 3542.65 2864.02L3534.76 2901.08C3589.48 2936.83 3616.84 2976.78 3616.84 3020.94L3639.72 3020.94C3739.16 2914.75 3788.88 2825.39 3788.88 2752.84 3694.71 2777.02 3634.99 2789.11 3609.74 2789.11L3520.56 2782.02 3520.56 2752.84C3577.38 2705.01 3694.18 2650.07 3870.96 2588.05 3903.58 2578.06 3925.94 2573.06 3938.04 2573.06L3953.04 2573.06C4023.01 2573.06 4058 2610.39 4058 2685.03 4058 2705.01 4013.02 2767.3 3923.05 2871.91 3893.06 2901.87 3878.06 2926.58 3878.06 2946.03L3878.06 2968.89 3885.95 2968.89C3965.93 2968.89 4005.91 2996.23 4005.91 3050.9L4005.91 3058C4005.91 3064.3 3988.29 3081.65 3953.04 3110.04L3863.86 3102.94 3743.9 3102.94C3701.81 3102.94 3654.46 3127.91 3601.84 3177.85L3594.74 3177.85C3557.39 3177.85 3512.4 3140.53 3459.79 3065.88 3459.79 3050.64 3457.42 3043.01 3452.68 3043.01 3462.68 3012.52 3467.68 2992.81 3467.68 2983.88 3467.68 2971.26 3457.68 2936.3 3437.69 2879L3423.48 2879C3372.98 3100.31 3317.99 3284.3 3258.54 3430.96 3234.87 3465.65 3212.51 3483 3191.46 3483 3136.22 3483 3074.13 3433.59 3005.21 3334.76L2997.32 3259.85 2990.21 3259.85C2900.77 3344.49 2828.43 3386.8 2773.18 3386.8L2758.19 3386.8 2758.19 3378.92C2758.19 3365.78 2807.91 3286.14 2907.35 3140 2952.07 3059.05 2974.43 2994.39 2974.43 2946.03L2967.33 2946.03C2897.88 2971.26 2840.79 2983.88 2796.07 2983.88L2788.18 2983.88C2742.93 2948.66 2713.21 2931.05 2699 2931.05L2699 2908.97C2824.22 2869.02 2911.29 2829.07 2960.22 2789.11 3014.42 2761.78 3041.51 2744.43 3041.51 2737.07L3041.51 2677.94C3041.51 2599.08 3016.78 2539.42 2967.33 2498.94L2967.33 2454ZM3266.43 2744.96C3186.46 2774.4 3146.48 2821.44 3146.48 2886.1 3141.74 2887.68 3106.75 2989.92 3041.51 3192.83 3069.92 3242.24 3102.54 3266.95 3139.37 3266.95 3164.1 3266.95 3203.82 3147.62 3258.54 2908.97 3273.8 2838.53 3281.43 2788.85 3281.43 2759.94 3281.43 2749.95 3276.43 2744.96 3266.43 2744.96Z" fill="#FFFFFF" fill-rule="evenodd"/><path d="M866.939 3210.16C866.085 3210.42 865.263 3211.21 864.473 3212.53 864.473 3213.58 863.947 3214.63 862.895 3215.68 856.581 3232.51 857.634 3243.03 866.052 3247.24 868.156 3248.29 870.787 3247.77 873.944 3245.66 880.257 3241.45 880.783 3233.56 875.522 3221.99 872.365 3213.31 869.504 3209.37 866.939 3210.16ZM984.429 3116.27C972.855 3117.32 958.386 3120.48 941.024 3125.74 923.662 3131 913.403 3134.68 910.246 3136.79 904.985 3140.99 894.989 3145.2 880.257 3149.41 870.787 3151.51 864.999 3153.88 862.895 3156.51 860.791 3159.14 860.791 3164.66 862.895 3173.08 866.052 3184.65 871.839 3195.69 880.257 3206.21 888.675 3216.73 896.041 3221.99 902.354 3221.99 911.824 3221.99 928.66 3209.63 952.862 3184.91 977.063 3160.19 989.165 3143.1 989.165 3133.63 989.165 3121.01 987.586 3115.22 984.429 3116.27ZM1275.24 2911.54C1261.3 2911.8 1242.76 2913.25 1219.61 2915.88 1164.89 2922.19 1108.07 2940.6 1049.14 2971.1 1019.68 2985.83 1002.05 2993.2 996.267 2993.2 990.48 2993.2 964.963 3003.72 919.716 3024.75 894.462 3037.38 877.1 3046.84 867.63 3053.16 858.16 3059.47 854.477 3064.73 856.581 3068.94 859.738 3076.3 861.843 3083.14 862.895 3089.45 864.999 3106.28 876.048 3107.33 896.041 3092.6 911.824 3082.08 923.399 3076.82 930.765 3076.82 938.13 3076.82 942.866 3073.67 944.97 3067.36 947.075 3061.05 962.595 3062.1 991.532 3070.51 1020.47 3078.93 1040.2 3088.4 1050.72 3098.92 1059.14 3108.38 1064.93 3122.58 1068.08 3141.52 1071.24 3160.45 1070.19 3175.71 1064.93 3187.28 1059.67 3197.8 1051.25 3209.37 1039.67 3221.99 1028.1 3234.62 1019.68 3248.55 1014.42 3263.81 1009.16 3279.06 1004.95 3290.9 1001.79 3299.31 997.582 3308.78 1009.16 3324.56 1036.52 3346.65 1063.87 3368.74 1095.44 3389.25 1131.22 3408.19 1166.99 3427.12 1193.83 3436.59 1211.71 3436.59 1221.18 3436.59 1232.23 3419.23 1244.86 3384.52 1257.49 3349.8 1264.85 3315.62 1266.96 3281.95 1270.11 3247.24 1274.32 3215.16 1279.58 3185.7 1289.05 3132.05 1298 3066.31 1306.42 2988.46 1307.47 2973.73 1310.1 2962.16 1314.31 2953.75 1321.67 2934.81 1317.99 2921.66 1303.26 2914.3 1298.52 2912.2 1289.19 2911.28 1275.24 2911.54ZM995.527 2562.23C993.521 2562.23 991.4 2562.29 989.165 2562.43 971.276 2563.48 950.231 2567.95 926.03 2575.84 901.828 2583.73 884.992 2591.88 875.522 2600.3 845.007 2629.75 821.857 2668.67 806.074 2717.06 797.656 2743.36 798.182 2756.51 807.652 2756.51 816.07 2756.51 821.068 2754.4 822.647 2750.2 824.225 2745.99 843.954 2728.63 881.835 2698.13 912.35 2674.98 943.129 2649.21 974.17 2620.81 1005.21 2592.41 1020.73 2576.1 1020.73 2571.89 1017.97 2565.45 1009.57 2562.23 995.527 2562.23ZM764.247 2260.26C752.146 2260.78 725.051 2263.15 682.961 2267.36 648.237 2270.51 623.246 2274.98 607.988 2280.77 592.73 2286.55 583.523 2294.71 580.367 2305.23 574.053 2325.21 585.102 2340.47 613.513 2350.99 622.983 2355.19 649.552 2354.14 693.22 2347.83 736.888 2341.52 762.931 2335.21 771.349 2328.89 776.611 2324.69 800.286 2315.75 842.376 2302.07 884.466 2288.39 909.194 2281.56 916.559 2281.56 921.821 2281.56 924.714 2281.03 925.241 2279.98 925.767 2278.93 923.925 2276.3 919.716 2272.09 914.455 2266.83 894.989 2263.94 861.317 2263.41 827.645 2262.89 807.126 2264.73 799.76 2268.93 794.499 2272.09 790.29 2271.04 787.133 2265.78 783.976 2261.57 776.348 2259.73 764.247 2260.26ZM1121.16 2185.9C1118.92 2186.55 1117.01 2188.99 1115.43 2193.19 1113.33 2198.45 1112.54 2202.92 1113.07 2206.61 1113.59 2210.29 1115.43 2212.13 1118.59 2212.13 1121.75 2212.13 1124.9 2210.55 1128.06 2207.4 1134.37 2201.08 1134.64 2195.03 1128.85 2189.25 1125.96 2186.36 1123.39 2185.24 1121.16 2185.9ZM922.873 2007C955.493 2007 977.327 2010.94 988.375 2018.83 999.424 2026.72 1004.95 2028.83 1004.95 2025.15 1004.95 2021.46 1012.58 2026.99 1027.83 2041.71 1043.09 2056.44 1050.72 2066.7 1050.72 2072.48 1050.72 2078.27 1055.46 2085.37 1064.93 2093.79 1074.4 2102.2 1082.81 2114.82 1090.18 2131.66 1101.75 2160.06 1113.86 2174.26 1126.48 2174.26 1131.74 2174.26 1143.06 2179.26 1160.42 2189.25 1177.78 2199.24 1200.67 2206.87 1229.08 2212.13 1279.58 2221.6 1308 2240.01 1314.31 2267.36 1319.57 2287.34 1314.83 2302.33 1300.1 2312.33 1285.37 2322.32 1261.17 2327.32 1227.5 2327.32 1206.45 2327.32 1176.2 2334.94 1136.74 2350.2 1097.28 2365.45 1067.56 2380.97 1047.56 2396.74 989.691 2439.87 955.493 2471.96 944.97 2493 940.761 2500.36 939.183 2505.09 940.235 2507.2 941.287 2509.3 946.022 2511.41 954.44 2513.51 968.12 2515.61 986.534 2514.04 1009.68 2508.78 1025.47 2504.57 1037.04 2503.25 1044.41 2504.83 1051.77 2506.41 1062.82 2510.88 1077.55 2518.24 1117.54 2539.28 1127.01 2568.21 1105.96 2605.03 1093.34 2627.12 1073.61 2649.47 1046.78 2672.09 1019.94 2694.71 997.056 2708.65 978.116 2713.91 968.646 2716.01 959.964 2719.69 952.073 2724.95 944.181 2730.21 938.92 2735.47 936.289 2740.73 933.658 2745.99 934.448 2750.2 938.657 2753.35 944.97 2758.61 954.967 2762.82 968.646 2765.98 990.743 2771.24 1005.47 2782.28 1012.84 2799.11 1018.1 2810.68 1014.42 2816.47 1001.79 2816.47 993.373 2816.47 984.693 2819.1 975.748 2824.36 966.804 2829.62 931.817 2843.82 870.787 2866.96 809.756 2890.11 777.137 2903.78 772.928 2907.99 766.614 2914.3 757.933 2916.93 746.885 2915.88 735.836 2914.83 727.681 2911.14 722.42 2904.83 714.002 2895.36 701.638 2892.21 685.328 2895.36 669.018 2898.52 653.498 2907.46 638.766 2922.19 632.453 2928.5 626.139 2931.13 619.826 2930.08 615.617 2927.98 604.831 2934.81 587.469 2950.59 570.107 2966.37 561.426 2976.89 561.426 2982.15 561.426 2986.36 557.217 2996.35 548.799 3012.13 541.433 3024.75 537.488 3050 536.962 3087.87 536.436 3125.74 539.329 3153.62 545.643 3171.5L553.535 3192.01 604.042 3157.3C636.662 3134.16 656.654 3122.58 664.02 3122.58 671.386 3122.58 676.647 3117.59 679.804 3107.59 682.961 3097.6 686.118 3092.6 689.274 3092.6 708.215 3094.71 718.211 3092.08 719.263 3084.71 717.159 3083.66 717.948 3081.3 721.631 3077.61 725.314 3073.93 730.312 3070.51 736.625 3067.36 752.409 3061.05 760.301 3055.79 760.301 3051.58 760.301 3047.37 762.405 3046.58 766.614 3049.21 770.823 3051.84 776.348 3048.42 783.187 3038.96 790.027 3029.49 795.551 3025.81 799.76 3027.91 803.969 3030.01 817.648 3025.81 840.798 3015.29 863.947 3004.77 875.522 2997.4 875.522 2993.2 875.522 2987.94 885.518 2982.68 905.511 2977.42 925.504 2972.16 938.657 2966.37 944.97 2960.06 951.283 2953.75 957.071 2950.59 962.332 2950.59 967.593 2950.59 992.321 2939.81 1036.52 2918.24 1080.71 2896.68 1107.54 2885.11 1117.01 2883.53 1126.48 2881.95 1132.27 2879.59 1134.37 2876.43 1136.48 2874.33 1154.1 2870.38 1187.25 2864.6 1220.4 2858.81 1251.17 2854.34 1279.58 2851.18 1302.73 2849.08 1333.25 2855.92 1371.13 2871.7 1409.01 2887.48 1431.11 2902.2 1437.42 2915.88 1440.58 2924.29 1439 2957.69 1432.69 3016.08 1426.37 3074.46 1421.11 3108.38 1416.9 3117.85 1411.64 3126.27 1411.12 3145.73 1415.32 3176.23 1418.48 3206.74 1413.22 3271.96 1399.54 3371.89 1396.38 3386.62 1392.44 3404.24 1387.7 3424.75 1382.97 3445.27 1376.39 3474.46 1367.97 3512.33 1361.66 3539.68 1351.93 3570.71 1338.77 3605.43 1325.62 3640.14 1316.41 3657.5 1311.15 3657.5 1308 3658.55 1298 3660.13 1281.16 3662.23 1254.86 3665.39 1227.5 3652.76 1199.09 3624.36 1183.3 3608.58 1170.68 3596.48 1161.21 3588.07 1152.79 3581.76 1141.21 3569.92 1126.48 3552.57 1111.75 3535.21 1104.39 3525.48 1104.39 3523.37 1104.39 3521.27 1100.44 3516.27 1092.55 3508.38 1084.66 3500.49 1082.29 3494.18 1085.44 3489.45 1088.6 3484.72 1080.97 3476.56 1062.56 3464.99 1044.14 3453.42 1034.94 3443.69 1034.94 3435.8 1034.94 3427.91 1027.57 3416.87 1012.84 3402.66 998.108 3388.46 989.165 3375.58 986.008 3364.01 983.903 3353.49 977.59 3345.86 967.067 3341.13 956.545 3336.39 947.601 3337.18 940.235 3343.49 932.869 3349.8 923.399 3353.75 911.824 3355.33 900.25 3356.9 890.253 3355.59 881.835 3351.38 872.365 3346.12 867.63 3346.12 867.63 3351.38 867.63 3356.64 862.369 3359.27 851.846 3359.27 841.324 3359.27 828.434 3351.64 813.176 3336.39 797.919 3321.14 790.29 3308.78 790.29 3299.31 790.29 3290.9 787.659 3283.79 782.398 3278.01 777.137 3272.22 772.139 3258.81 767.403 3237.77 762.668 3216.73 763.984 3202.27 771.349 3194.38 778.715 3186.49 782.398 3175.71 782.398 3162.03 782.398 3148.36 786.081 3136.26 793.447 3125.74 800.812 3115.22 802.917 3107.33 799.76 3102.07 796.603 3096.81 778.452 3104.44 745.306 3124.95 712.161 3145.46 679.804 3168.87 648.237 3195.17 628.244 3212 611.408 3233.04 597.729 3258.28 584.05 3283.53 577.21 3306.15 577.21 3326.14 577.21 3346.12 575.105 3359.01 570.896 3364.79 566.688 3370.58 566.688 3400.82 570.896 3455.52 573.001 3490.24 575.631 3514.96 578.788 3529.69 581.945 3544.41 588.785 3561.77 599.307 3581.76 615.091 3613.32 622.983 3635.93 622.983 3649.61 622.983 3666.44 616.143 3679.59 602.464 3689.06 596.15 3694.31 591.415 3694.31 588.258 3689.06 585.102 3683.8 577.736 3681.17 566.161 3681.17 554.587 3681.17 542.486 3673.8 529.859 3659.07 518.284 3647.5 505.394 3629.62 491.189 3605.43 476.984 3581.23 469.881 3565.98 469.881 3559.67 469.881 3553.35 463.83 3541.26 451.729 3523.37 439.629 3505.49 435.683 3488.66 439.892 3472.88 447.258 3446.58 448.31 3435.01 443.048 3438.17 441.996 3439.22 440.418 3441.32 438.314 3444.48 434.104 3449.74 432 3451.32 432 3449.21 432 3448.16 433.052 3445 435.156 3439.74 440.418 3426.07 444.101 3340.34 446.205 3182.54 447.258 3105.75 452.256 3050.79 461.2 3017.65 470.144 2984.52 488.821 2954.27 517.232 2926.92 544.59 2898.52 577.21 2875.38 615.091 2857.49L673.491 2832.25 667.177 2803.85C662.968 2784.91 659.285 2768.08 656.128 2753.35 652.972 2738.63 657.444 2726.53 669.545 2717.06 681.645 2707.59 684.539 2702.86 678.226 2702.86 671.912 2702.86 667.177 2705.23 664.02 2709.96 660.864 2714.69 656.654 2717.06 651.393 2717.06 646.132 2717.06 657.181 2702.33 684.539 2672.88 716.106 2638.17 744.517 2597.14 769.771 2549.8 779.241 2531.92 785.818 2521.66 789.501 2519.03 793.183 2516.4 802.128 2504.31 816.333 2482.74 830.538 2461.18 841.324 2449.08 848.69 2446.45 856.055 2443.82 859.738 2439.61 859.738 2433.83 859.738 2428.04 865.526 2420.41 877.1 2410.95 894.989 2397.27 894.989 2392.01 877.1 2395.17 867.63 2397.27 852.899 2402 832.906 2409.37 732.942 2445.13 656.128 2450.92 602.464 2426.72 588.785 2421.47 578.525 2414.63 571.686 2406.21 564.846 2397.8 555.113 2380.97 542.486 2355.72 529.859 2327.32 522.756 2309.43 521.178 2302.07 519.599 2294.71 521.441 2285.24 526.702 2273.67 535.12 2258.94 545.116 2249.21 556.691 2244.48 568.266 2239.74 592.994 2236.32 630.874 2234.22 686.644 2231.06 746.622 2216.34 810.809 2190.04 874.996 2163.74 914.981 2137.97 930.765 2112.72 938.13 2101.15 931.028 2086.42 909.457 2068.54 887.886 2050.66 871.839 2045.92 861.317 2054.34 852.899 2061.7 850.794 2059.6 855.003 2048.03 856.055 2043.82 859.212 2037.51 864.473 2029.09 869.734 2018.57 875.259 2012.26 881.046 2010.16 886.833 2008.05 900.776 2007 922.873 2007Z" fill="#FFFFFF" fill-rule="evenodd"/></g></svg>