<svg width="1242" height="1242" xmlns="http://www.w3.org/2000/svg" xmlns:xlink="http://www.w3.org/1999/xlink" xml:space="preserve" overflow="hidden"><defs><clipPath id="clip0"><rect x="1029" y="410" width="1242" height="1242"/></clipPath></defs><g clip-path="url(#clip0)" transform="translate(-1029 -410)"><path d="M1428.6 491.31C1449.69 481.201 1477.3 495.372 1481.13 518.57 1485.77 542.309 1466.26 561.897 1446.98 572.007 1428.47 581.259 1411.49 593.309 1395.95 607.029 1379.59 620.298 1376.53 643.496 1377.3 663.264 1383.38 682.671 1387.25 702.619 1392.61 722.206 1399.91 743.599 1407.25 764.992 1414.37 786.475 1428.24 828.403 1436.22 873.445 1461.94 910.362 1483.29 943.4 1503.65 977.023 1523.93 1010.65 1556.63 1057.36 1591.54 1102.49 1625.24 1148.48 1656.28 1186.35 1690.51 1221.37 1723.67 1257.29 1756.42 1282.21 1787.23 1309.65 1821.42 1332.62 1841.06 1347.65 1864.26 1356.59 1885.84 1368.27 1899.17 1376.08 1913.5 1382.04 1928.59 1385.42 1949.85 1390.43 1970.57 1398.78 1992.47 1400.5 2007.38 1394.59 2021.7 1386.96 2034.95 1377.89 2050.04 1367.64 2056.34 1346.97 2074.5 1341.06 2094.36 1332.98 2118.37 1347.15 2123.6 1367.37 2127.88 1380.19 2121.62 1393.23 2114.81 1403.88 2099.32 1427.44 2076.52 1445.68 2051.3 1457.82 2032.87 1467.16 2014.22 1479.48 1992.6 1477.86 1961.92 1476.23 1932.82 1465.22 1903.23 1457.77 1865.84 1449.29 1834.53 1425.95 1799.66 1411.06 1774.8 1399.01 1749.79 1386.28 1729.93 1366.6 1679.83 1324.09 1638.44 1272.91 1594.79 1224.12 1578.84 1204.08 1558.21 1188.11 1544.33 1166.35 1524.38 1135.71 1503.88 1105.2 1479.42 1077.94 1450.99 1046.35 1433.33 1007.08 1407.84 973.367 1392.84 953.87 1384.64 930.447 1372.97 909.009 1366.93 897.32 1362.47 884.908 1358.83 872.316 1349.77 842.574 1338.15 813.69 1327.92 784.354 1318.73 763.277 1316.03 740.35 1311.35 718.01 1307.74 699.731 1299.36 682.219 1300.04 663.219 1299.68 620.073 1312.43 572.819 1348.83 546.327 1372.79 524.212 1402.03 509.724 1428.6 491.31Z" fill="#0A3BF7" fill-rule="evenodd"/><path d="M1689.96 748.359C1683.55 739.495 1694.07 725.998 1704.37 729.597 1750.57 738.82 1794.78 759.201 1830.6 789.841 1858.47 813.687 1878.65 844.642 1897.71 875.551 1925.81 920.858 1937.28 974.939 1938 1027.67 1930.46 1029.33 1920.93 1033.02 1915.51 1025.15 1908.96 997.84 1907.79 969.36 1899.02 942.5 1889.54 908.936 1870.07 879.556 1850.29 851.255 1817.73 802.889 1764.75 769.774 1707.93 757.762 1701.39 755.827 1693.12 755.513 1689.96 748.359Z" fill="#0A3BF7" fill-rule="evenodd"/><path d="M1496.76 662.689C1537.66 648.349 1579.43 632.341 1623.4 632.341 1642.99 631.98 1662.59 631.935 1682.14 632.07 1717.29 632.161 1751.75 640.413 1785.18 650.513 1821.49 661.336 1852.22 684.469 1882.31 706.61 1916.15 734.072 1948.22 764.06 1974.35 799.053 1995.21 837.653 2020.13 874.945 2031.52 917.829 2044.32 964.186 2043.82 1012.8 2042.11 1060.46 2040.4 1105.28 2027.56 1148.57 2016.03 1191.59 2001.56 1243.99 1966.83 1287.64 1929.03 1325.43 1915.02 1339.91 1897.04 1350.55 1886.28 1368 1864.7 1356.32 1841.49 1347.39 1821.85 1332.38 1865.1 1305.91 1902.59 1270.42 1931.6 1228.89 1945.66 1209.23 1954.67 1186.45 1960.66 1163.14 1969.58 1127.88 1980.12 1092.48 1980.48 1055.77 1981.07 1017.17 1983.32 977.849 1973.54 940.106 1963.32 898.529 1940.79 861.057 1914.43 827.687 1900.6 810.055 1889.34 789.944 1871.05 776.37 1835.5 749.043 1800.41 718.064 1755.9 706.656 1711.7 692.045 1664.66 693.849 1618.8 694.931 1590.01 696.193 1561.95 704.536 1535.46 715.359 1493.69 736.417 1452.24 758.468 1414.76 786.697 1407.64 765.232 1400.3 743.858 1393 722.484 1424.67 697.997 1458.51 675.45 1496.76 662.689Z" fill="#CEDFFD" fill-rule="evenodd"/><path d="M1327.79 784C1338.02 813.32 1349.66 842.19 1358.72 871.916 1336.99 895.778 1327.02 927.309 1319.13 957.983 1311.96 989.919 1305.1 1022.53 1307.72 1055.46 1311.06 1096.74 1313.13 1139.14 1329.46 1177.75 1340.37 1203.42 1353.17 1228.32 1368.01 1251.95 1385.69 1280.24 1412.52 1300.81 1437.14 1322.73 1469.38 1351.51 1511.09 1366.17 1551.45 1379.61 1596.59 1394.27 1644.02 1384.71 1689.7 1378.8 1703.91 1377.13 1717.44 1372.26 1730.2 1365.94 1750.08 1385.61 1775.11 1398.33 1800 1410.37 1747.2 1433.74 1689.21 1440.42 1632.39 1446.82 1578.23 1452.23 1524.21 1438.57 1475.65 1415.15 1427.94 1398.24 1390.74 1362.56 1355.79 1327.33 1313.18 1287.45 1291.67 1231.61 1269.98 1178.79 1228.72 1074.14 1243.73 954.464 1291.94 854.82 1299.38 828.973 1316.11 807.818 1327.79 784Z" fill="#CEDFFD" fill-rule="evenodd"/></g></svg>