<svg width="756" height="756" xmlns="http://www.w3.org/2000/svg" xmlns:xlink="http://www.w3.org/1999/xlink" overflow="hidden"><defs><filter id="fx0" x="-10%" y="-10%" width="120%" height="120%" filterUnits="userSpaceOnUse" primitiveUnits="userSpaceOnUse"><feComponentTransfer color-interpolation-filters="sRGB"><feFuncR type="discrete" tableValues="0 0"/><feFuncG type="discrete" tableValues="0 0"/><feFuncB type="discrete" tableValues="0 0"/><feFuncA type="linear" slope="0.439216" intercept="0"/></feComponentTransfer><feGaussianBlur stdDeviation="4.24011 4.22315"/></filter><filter id="fx1" x="-10%" y="-10%" width="120%" height="120%" filterUnits="userSpaceOnUse" primitiveUnits="userSpaceOnUse"><feComponentTransfer color-interpolation-filters="sRGB"><feFuncR type="discrete" tableValues="0 0"/><feFuncG type="discrete" tableValues="0 0"/><feFuncB type="discrete" tableValues="0 0"/><feFuncA type="linear" slope="0.439216" intercept="0"/></feComponentTransfer><feGaussianBlur stdDeviation="4.22315 4.23777"/></filter><clipPath id="clip2"><rect x="0" y="0" width="756" height="756"/></clipPath><clipPath id="clip3"><path d="M116 147 116 379 158.288 379 158.288 225.284 271.481 379 309 379 309 147 266.076 147 266.076 300.399 153.201 147ZM1.12653e-05 1.12653e-05 756 1.12653e-05 756 756 1.12653e-05 756Z" fill-rule="evenodd" clip-rule="evenodd"/></clipPath><clipPath id="clip4"><rect x="-2.51004" y="-2.5" width="132.028" height="149"/></clipPath><clipPath id="clip5"><rect x="0" y="0" width="125" height="144"/></clipPath><clipPath id="clip6"><path d="M501.01 418.152 527.029 418.152C551.779 418.152 570.87 424.889 584.303 438.364 597.736 451.839 604.452 470.779 604.452 495.181 604.452 520.01 597.789 539.108 584.461 552.477 571.135 565.846 551.99 572.53 527.029 572.53L501.01 572.53ZM455 379 455 612 532.423 612C555.269 612 575.789 607.385 593.981 598.154 612.173 588.923 626.558 575.501 637.134 557.888 647.712 540.275 653 519.373 653 495.181 653 470.99 647.712 450.141 637.134 432.634 626.558 415.128 612.121 401.812 593.822 392.687 575.524 383.563 555.058 379 532.423 379ZM1.12653e-05 1.12653e-05 756 1.12653e-05 756 756 1.12653e-05 756Z" fill-rule="evenodd" clip-rule="evenodd"/></clipPath><clipPath id="clip7"><rect x="-2.5" y="-2.50865" width="135" height="152.024"/></clipPath><clipPath id="clip8"><rect x="0" y="0" width="127" height="145"/></clipPath></defs><g clip-path="url(#clip2)"><rect x="0" y="0" width="756" height="756" fill="#FFFFFF"/><path d="M44.0448-83.4757 317.172-356.603C347.216-386.647 395.926-386.647 425.969-356.603L769.625-12.9474 442.099 314.579Z" fill="#FFFF00" fill-rule="evenodd"/><path d="M459.944 296.734 271.761 484.917-121.109 92.0476 67.0743-96.1354Z" fill="#FEDA0C" fill-rule="evenodd"/><path d="M286.441 470.236-10.8504 767.528-404.721 373.657-107.43 76.3661Z" fill="#FFC000" fill-rule="evenodd"/><path d="M0 0 385.939 0C428.465-1.71035e-14 462.94 34.4744 462.94 77.0008L462.94 537.367 0 537.367Z" fill="#FEAC01" fill-rule="evenodd" transform="matrix(0.707107 -0.707107 -0.707107 -0.707107 821.127 693.63)"/><path d="M836.902 673.715 648.719 861.898 270.813 483.992 458.996 295.81Z" fill="#FF8B0B" fill-rule="evenodd"/><path d="M662.054 845.873 360.293 1147.63-16.2681 771.074 285.494 469.312Z" fill="#FF5900" fill-rule="evenodd"/><g clip-path="url(#clip3)"><g clip-path="url(#clip4)" filter="url(#fx0)" transform="matrix(1.992 0 0 2 88 131)"><g clip-path="url(#clip5)" transform="translate(7.10543e-15 0)"><path d="M14.0562 14.0013 32.7314 14.0013 89.3955 90.7009 89.3955 14.0013 110.944 14.0013 110.944 130.001 92.1088 130.001 35.2853 53.1435 35.2853 130.001 14.0562 130.001 14.0562 14.0013Z" stroke="#BFBFBF" stroke-linejoin="round" stroke-miterlimit="10" fill="#FEFFFF" fill-rule="evenodd"/></g></g></g><path d="M116 147 153.201 147 266.076 300.399 266.076 147 309 147 309 379 271.481 379 158.288 225.284 158.288 379 116 379 116 147Z" stroke="#BFBFBF" stroke-width="2.00044" stroke-linejoin="round" stroke-miterlimit="10" fill="#FEFFFF" fill-rule="evenodd"/><g clip-path="url(#clip6)"><g clip-path="url(#clip7)" filter="url(#fx1)" transform="matrix(2 0 0 1.9931 427 363)"><g clip-path="url(#clip8)" transform="matrix(1 0 0 1 0 -2.84217e-14)"><path d="M14 14.0498 52.7117 14.0498C64.029 14.0498 74.2621 16.339 83.4112 20.917 92.5603 25.4951 99.7789 32.1761 105.067 40.9598 110.356 49.7434 113 60.2041 113 72.3415 113 84.4792 110.356 94.9663 105.067 103.803 99.7789 112.64 92.5865 119.375 83.4906 124.006 74.3943 128.637 64.1346 130.953 52.7117 130.953L14 130.953 14 14.0498ZM37.0049 33.6933 37.0049 111.15 50.0144 111.15C62.4951 111.15 72.0674 107.796 78.7307 101.088 85.3944 94.3809 88.7261 84.7985 88.7261 72.3415 88.7261 60.0978 85.3678 50.5953 78.6517 43.8344 71.9352 37.0738 62.3895 33.6933 50.0144 33.6933L37.0049 33.6933Z" stroke="#BFBFBF" stroke-linejoin="round" stroke-miterlimit="10" fill="#FEFFFF" fill-rule="evenodd"/></g></g></g><path d="M455 379 532.423 379C555.058 379 575.524 383.563 593.822 392.687 612.121 401.812 626.558 415.128 637.134 432.634 647.712 450.141 653 470.99 653 495.181 653 519.373 647.712 540.275 637.134 557.888 626.558 575.501 612.173 588.923 593.981 598.154 575.789 607.385 555.269 612 532.423 612L455 612 455 379ZM501.01 418.152 501.01 572.53 527.029 572.53C551.99 572.53 571.135 565.846 584.461 552.477 597.789 539.108 604.452 520.01 604.452 495.181 604.452 470.779 597.736 451.839 584.303 438.364 570.87 424.889 551.779 418.152 527.029 418.152L501.01 418.152Z" stroke="#BFBFBF" stroke-width="2.00044" stroke-linejoin="round" stroke-miterlimit="10" fill="#FEFFFF" fill-rule="evenodd"/></g></svg>