<?xml version="1.0" encoding="UTF-8" ?>
<!DOCTYPE svg PUBLIC "-//W3C//DTD SVG 1.1//EN" "http://www.w3.org/Graphics/SVG/1.1/DTD/svg11.dtd">
<svg width="1279pt" height="314pt" viewBox="0 0 1279 314" version="1.1" xmlns="http://www.w3.org/2000/svg">
<g id="#0a3bf7ff">
<path fill="#0a3bf7" opacity="1.00" d=" M 55.82 41.94 C 60.50 39.70 66.63 42.84 67.48 47.98 C 68.51 53.24 64.18 57.58 59.90 59.82 C 55.79 61.87 52.02 64.54 48.57 67.58 C 44.94 70.52 44.26 75.66 44.43 80.04 C 45.78 84.34 46.64 88.76 47.83 93.10 C 49.45 97.84 51.08 102.58 52.66 107.34 C 55.74 116.63 57.51 126.61 63.22 134.79 C 67.96 142.11 72.48 149.56 76.98 157.01 C 84.24 167.36 91.99 177.36 99.47 187.55 C 106.36 195.94 113.96 203.70 121.32 211.66 C 128.59 217.18 135.43 223.26 143.02 228.35 C 147.38 231.68 152.53 233.66 157.32 236.25 C 160.28 237.98 163.46 239.30 166.81 240.05 C 171.53 241.16 176.13 243.01 180.99 243.39 C 184.30 242.08 187.48 240.39 190.42 238.38 C 193.77 236.11 195.17 231.53 199.20 230.22 C 203.61 228.43 208.94 231.57 210.10 236.05 C 211.05 238.89 209.66 241.78 208.15 244.14 C 204.71 249.36 199.65 253.40 194.05 256.09 C 189.96 258.16 185.82 260.89 181.02 260.53 C 174.21 260.17 167.75 257.73 161.18 256.08 C 152.88 254.20 145.93 249.03 138.19 245.73 C 132.67 243.06 127.12 240.24 122.71 235.88 C 111.59 226.46 102.40 215.12 92.71 204.31 C 89.17 199.87 84.59 196.33 81.51 191.51 C 77.08 184.72 72.53 177.96 67.10 171.92 C 60.79 164.92 56.87 156.22 51.21 148.75 C 47.88 144.43 46.06 139.24 43.47 134.49 C 42.13 131.90 41.14 129.15 40.33 126.36 C 38.32 119.77 35.74 113.37 33.47 106.87 C 31.43 102.20 30.83 97.12 29.79 92.17 C 28.99 88.12 27.13 84.24 27.28 80.03 C 27.20 70.47 30.03 60.00 38.11 54.13 C 43.43 49.23 49.92 46.02 55.82 41.94 Z" />
<path fill="#0a3bf7" opacity="1.00" d=" M 1087.28 92.14 C 1093.79 89.60 1101.66 95.02 1101.82 101.96 C 1102.98 106.94 1101.54 113.16 1096.34 115.20 C 1091.08 116.17 1084.67 117.80 1080.24 113.79 C 1076.33 110.79 1075.31 105.28 1076.92 100.80 C 1078.94 96.61 1083.08 93.83 1087.28 92.14 Z" />
<path fill="#0a3bf7" opacity="1.00" d=" M 113.84 98.83 C 112.42 96.86 114.75 93.86 117.03 94.66 C 127.26 96.71 137.05 101.24 144.98 108.05 C 151.15 113.35 155.62 120.23 159.84 127.10 C 166.06 137.17 168.60 149.19 168.76 160.91 C 167.09 161.28 164.98 162.10 163.78 160.35 C 162.33 154.28 162.07 147.95 160.13 141.98 C 158.03 134.52 153.72 127.99 149.34 121.70 C 142.13 110.95 130.40 103.59 117.82 100.92 C 116.37 100.49 114.54 100.42 113.84 98.83 Z" />
</g>
<g id="#ffffffff">
<path fill="#ffffff" opacity="1.00" d=" M 540.34 71.31 C 546.39 68.36 554.59 73.19 554.77 79.95 C 555.30 86.29 553.02 92.36 552.29 98.59 C 549.87 109.14 547.89 119.80 545.08 130.25 C 543.45 134.45 537.02 135.17 534.30 131.70 C 532.01 129.39 532.78 125.95 532.62 123.04 C 532.64 114.66 531.35 106.37 531.17 98.00 C 530.98 92.00 532.03 86.04 533.42 80.23 C 534.33 76.47 536.70 72.88 540.34 71.31 Z" />
<path fill="#ffffff" opacity="1.00" d=" M 932.14 82.12 C 937.01 76.38 948.07 79.34 948.77 87.03 C 949.19 106.44 946.20 125.69 945.27 145.03 C 943.79 152.61 944.87 160.37 943.93 168.01 C 943.51 178.97 942.48 189.90 941.41 200.82 C 951.79 199.49 959.73 191.82 966.13 184.14 C 970.43 179.22 972.25 172.40 971.42 165.97 C 970.02 160.10 964.34 156.43 958.96 154.61 C 954.07 153.97 950.73 158.55 946.84 160.74 C 946.50 154.23 947.15 147.66 948.46 141.30 C 952.62 138.52 958.05 138.95 962.78 139.60 C 972.71 142.48 982.00 149.49 985.65 159.42 C 988.06 166.14 987.26 173.52 985.45 180.28 C 982.82 190.08 975.44 197.55 968.18 204.20 C 961.03 210.92 951.75 215.34 941.98 216.42 C 940.25 216.55 938.61 215.96 936.97 215.62 C 935.41 217.84 934.08 220.25 932.26 222.27 C 929.69 224.78 924.97 223.15 924.22 219.76 C 922.43 212.86 920.75 205.63 922.14 198.50 C 923.55 179.29 924.99 160.08 925.65 140.82 C 926.72 125.21 928.19 109.63 929.39 94.04 C 929.49 89.95 928.89 85.26 932.14 82.12 Z" />
<path fill="#ffffff" opacity="1.00" d=" M 712.72 91.62 C 716.50 89.28 721.94 91.32 723.54 95.38 C 725.84 101.16 725.92 107.48 726.76 113.57 C 729.28 130.93 728.64 148.52 728.59 166.00 C 728.00 176.11 731.67 185.91 731.10 196.02 C 730.74 198.73 730.38 201.44 730.37 204.18 C 732.89 202.16 733.93 198.98 735.32 196.19 C 738.79 188.79 740.34 180.73 742.77 172.97 C 746.68 160.02 751.46 147.29 753.89 133.94 C 754.92 127.91 756.85 122.10 758.37 116.19 C 759.47 121.66 761.40 126.93 762.44 132.42 C 763.13 136.58 765.62 140.59 764.50 144.92 C 762.78 152.82 760.06 160.45 758.16 168.29 C 754.73 180.79 753.14 193.87 747.69 205.74 C 745.48 212.38 741.21 218.45 735.40 222.40 C 731.54 224.45 726.68 226.60 722.45 224.30 C 715.54 221.44 710.62 214.50 710.02 207.08 C 709.27 202.05 710.83 197.06 710.54 192.02 C 710.46 185.30 708.38 178.78 708.39 172.06 C 708.31 153.45 709.24 134.78 707.49 116.23 C 707.33 111.23 705.75 106.12 707.32 101.21 C 708.40 97.73 709.12 93.43 712.72 91.62 Z" />
<path fill="#ffffff" opacity="1.00" d=" M 285.65 92.87 C 290.90 90.75 298.11 93.09 299.44 99.01 C 300.10 106.65 299.56 114.35 299.21 122.00 C 297.32 137.94 298.67 154.00 298.20 170.00 C 297.34 178.63 297.76 187.33 296.75 195.95 C 296.08 202.98 296.29 210.47 292.97 216.90 C 290.78 219.69 287.89 222.93 284.01 222.76 C 280.63 223.12 277.74 220.57 276.34 217.72 C 274.42 212.70 274.52 207.18 275.31 201.94 C 276.02 186.31 276.78 170.66 276.36 155.00 C 276.10 142.69 276.68 130.39 278.04 118.16 C 278.74 111.85 278.21 105.35 280.22 99.23 C 281.01 96.46 283.20 94.27 285.65 92.87 Z" />
<path fill="#ffffff" opacity="1.00" d=" M 425.45 93.29 C 428.94 91.26 433.79 92.90 435.20 96.70 C 436.99 101.94 436.63 107.56 436.56 113.00 C 436.74 138.14 432.28 163.00 431.22 188.08 C 430.22 193.98 430.43 199.94 430.53 205.89 C 437.12 205.30 443.31 202.79 449.77 201.54 C 469.37 197.33 485.13 179.46 486.98 159.52 C 488.29 154.50 485.15 149.99 483.87 145.33 C 482.51 140.23 478.79 136.39 475.50 132.47 C 472.13 128.53 468.84 124.50 465.23 120.78 C 462.18 117.68 457.86 116.68 454.06 114.85 C 449.37 112.92 444.33 112.06 439.51 110.50 C 439.36 105.51 438.51 100.58 437.97 95.62 C 439.81 95.02 441.72 94.45 443.67 94.98 C 450.35 96.24 457.58 95.08 463.81 98.29 C 467.11 99.92 470.48 101.46 473.55 103.51 C 478.62 108.08 484.19 112.13 488.73 117.27 C 491.96 121.02 495.80 124.36 498.05 128.86 C 501.92 136.74 507.77 144.01 508.74 153.02 C 509.61 168.67 504.35 184.41 494.72 196.72 C 485.19 208.65 472.21 219.16 456.54 220.90 C 446.17 223.29 436.03 219.26 425.98 217.31 C 423.81 217.89 422.36 220.16 420.03 220.41 C 415.68 221.13 411.35 217.45 411.23 213.07 C 409.26 197.22 411.92 181.29 412.57 165.43 C 414.93 144.55 415.56 123.49 418.85 102.71 C 419.58 98.82 421.57 94.83 425.45 93.29 Z" />
<path fill="#ffffff" opacity="1.00" d=" M 760.42 103.02 C 760.72 98.75 764.61 94.73 769.07 95.26 C 774.96 95.38 779.65 100.52 780.69 106.09 C 784.71 125.82 787.72 145.81 793.84 165.05 C 795.63 169.32 795.50 174.12 797.16 178.42 C 797.44 178.60 798.01 178.97 798.29 179.15 C 800.66 166.83 803.13 154.52 804.86 142.09 C 805.42 136.99 807.03 132.09 807.73 127.01 C 808.59 119.63 810.16 112.36 811.86 105.13 C 812.72 102.14 813.98 98.47 817.25 97.42 C 822.63 96.14 827.37 100.92 829.39 105.43 C 830.66 113.33 828.69 121.24 827.78 129.07 C 825.72 149.07 821.96 168.83 818.35 188.58 C 816.59 196.14 815.63 204.09 811.97 211.04 C 808.80 215.14 805.04 219.28 799.96 220.91 C 796.92 222.15 793.50 220.84 791.04 218.95 C 786.76 214.27 783.58 208.42 782.85 202.05 C 780.20 191.10 779.25 179.69 774.91 169.20 C 772.11 162.35 769.69 155.31 768.49 147.99 C 767.47 139.89 764.72 132.18 763.04 124.21 C 760.63 117.42 759.97 110.18 760.42 103.02 Z" />
<path fill="#ffffff" opacity="1.00" d=" M 1141.53 100.46 C 1144.22 95.54 1152.62 96.66 1153.83 102.16 C 1155.31 111.08 1153.85 120.17 1152.47 129.01 C 1150.19 138.25 1148.87 147.71 1146.08 156.82 C 1143.55 170.00 1142.78 183.48 1143.26 196.88 C 1148.73 196.61 1153.45 192.71 1159.05 193.57 C 1163.53 193.92 1166.12 198.98 1165.05 203.08 C 1164.27 210.44 1156.98 214.82 1150.45 216.56 C 1144.66 217.86 1138.73 221.07 1132.72 219.23 C 1128.92 217.29 1124.65 215.04 1123.03 210.82 C 1120.66 205.20 1120.75 198.98 1120.71 193.00 C 1120.51 181.79 1121.75 170.62 1123.01 159.50 C 1119.95 159.56 1116.49 160.13 1113.94 158.03 C 1109.73 155.28 1108.18 149.16 1111.03 144.91 C 1114.09 140.56 1119.12 138.04 1124.22 136.92 C 1125.88 136.38 1127.83 136.40 1129.27 135.28 C 1133.47 123.73 1135.61 111.32 1141.53 100.46 Z" />
<path fill="#ffffff" opacity="1.00" d=" M 361.56 107.18 C 362.41 101.22 369.44 96.31 375.24 98.85 C 378.80 100.90 381.93 104.63 381.60 108.97 C 381.31 121.99 380.03 134.96 380.18 148.00 C 379.31 166.30 380.09 184.64 379.72 202.96 C 379.57 209.15 377.37 215.53 373.02 220.02 C 367.19 225.31 357.98 221.83 353.59 216.40 C 347.70 206.79 341.79 197.17 336.71 187.10 C 334.35 182.40 331.20 178.16 327.84 174.14 C 325.47 171.15 323.94 167.54 321.10 164.92 C 315.67 159.84 312.74 152.76 307.43 147.57 C 303.82 143.98 300.49 139.36 300.76 134.03 C 301.49 123.63 302.32 113.22 302.40 102.79 C 306.10 104.90 309.00 108.18 311.02 111.91 C 314.27 118.12 319.37 123.08 322.86 129.14 C 327.35 136.80 332.89 143.75 337.73 151.19 C 342.41 158.11 348.53 163.93 352.91 171.07 C 354.97 174.30 356.71 177.73 358.58 181.08 C 359.01 156.42 359.99 131.79 361.56 107.18 Z" />
<path fill="#ffffff" opacity="1.00" d=" M 1150.18 152.10 C 1151.16 146.18 1152.51 140.33 1153.82 134.47 C 1158.30 134.71 1162.85 134.57 1167.27 135.51 C 1170.34 136.51 1171.45 140.85 1169.22 143.21 C 1167.59 144.77 1165.37 145.42 1163.41 146.42 C 1159.01 148.35 1154.79 150.72 1150.18 152.10 Z" />
<path fill="#ffffff" opacity="1.00" d=" M 1193.00 140.99 C 1201.13 135.46 1211.30 133.76 1220.97 134.55 C 1224.70 134.93 1228.68 133.97 1232.21 135.63 C 1234.82 136.72 1237.47 138.56 1238.27 141.44 C 1240.16 149.41 1243.23 157.91 1240.10 165.99 C 1237.68 171.15 1232.48 174.15 1227.52 176.45 C 1219.01 180.52 1210.29 184.24 1201.12 186.52 C 1201.39 188.55 1201.25 190.81 1202.49 192.57 C 1204.01 194.87 1206.80 195.83 1209.37 196.40 C 1215.56 197.46 1221.82 196.37 1228.05 196.36 C 1236.91 196.48 1245.48 193.83 1254.00 191.72 C 1260.26 190.53 1264.33 199.48 1259.46 203.50 C 1252.77 207.93 1245.80 212.02 1238.48 215.32 C 1228.68 219.81 1217.67 221.23 1206.99 220.55 C 1197.52 219.16 1187.96 214.68 1182.52 206.54 C 1177.05 198.16 1176.08 187.72 1176.66 177.96 C 1177.46 169.23 1179.99 160.70 1183.87 152.85 C 1185.88 148.22 1188.86 143.97 1193.00 140.99 M 1208.49 156.49 C 1205.41 160.41 1204.08 165.36 1202.27 169.94 C 1210.66 167.13 1218.82 163.48 1226.61 159.28 C 1226.55 156.59 1226.13 153.95 1225.45 151.36 C 1219.39 150.86 1212.92 152.06 1208.49 156.49 Z" />
<path fill="#ffffff" opacity="1.00" d=" M 1024.74 137.47 C 1033.66 136.07 1042.93 134.54 1051.85 136.86 C 1056.76 138.08 1057.25 145.61 1052.72 147.64 C 1044.04 152.31 1034.18 153.94 1024.82 156.69 C 1027.17 159.10 1030.53 160.01 1033.37 161.70 C 1039.91 165.50 1046.58 169.74 1050.84 176.17 C 1056.39 184.74 1057.19 196.34 1052.40 205.43 C 1048.28 213.13 1040.65 218.98 1032.00 220.47 C 1021.25 221.68 1010.03 220.46 1000.23 215.73 C 996.78 213.81 992.60 211.92 991.40 207.80 C 989.95 204.91 990.25 201.08 992.92 199.00 C 996.46 196.54 1001.00 197.47 1005.03 197.64 C 1013.21 198.21 1021.75 202.21 1029.78 198.78 C 1034.52 196.74 1035.26 189.76 1031.69 186.34 C 1025.63 180.19 1016.86 178.09 1010.18 172.81 C 1005.22 168.88 1000.20 164.69 996.92 159.21 C 994.64 153.54 997.76 146.93 1002.56 143.62 C 1009.53 140.33 1017.30 139.31 1024.74 137.47 Z" />
<path fill="#ffffff" opacity="1.00" d=" M 1081.46 136.43 C 1083.45 134.96 1086.36 135.20 1088.12 136.95 C 1092.15 139.93 1093.65 145.13 1093.65 149.95 C 1093.50 153.65 1094.65 157.31 1094.13 161.02 C 1092.33 173.26 1091.35 185.63 1091.61 198.01 C 1091.53 203.24 1091.93 209.14 1088.50 213.50 C 1086.39 216.07 1085.28 219.83 1081.85 220.98 C 1078.42 222.39 1074.36 220.54 1072.60 217.42 C 1069.63 212.13 1069.23 205.93 1069.51 200.00 C 1068.96 180.65 1070.66 161.08 1076.40 142.53 C 1077.21 139.92 1079.04 137.70 1081.46 136.43 Z" />
<path fill="#ffffff" opacity="1.00" d=" M 574.01 149.03 C 578.50 143.65 585.39 141.21 592.01 139.68 C 596.95 139.05 601.94 139.80 606.81 140.65 C 611.49 141.47 615.67 145.29 616.56 149.99 C 617.33 154.69 612.61 158.92 608.05 158.19 C 602.00 157.48 595.47 156.69 590.06 160.15 C 596.77 167.04 603.99 173.45 610.27 180.77 C 614.37 185.19 617.95 190.36 619.52 196.24 C 620.28 203.83 615.67 211.57 608.73 214.68 C 597.58 219.57 585.26 222.70 573.04 221.19 C 566.37 220.45 561.81 214.53 559.41 208.75 C 557.29 204.50 561.30 198.93 566.01 199.54 C 568.98 199.34 570.36 202.83 573.01 203.33 C 581.15 202.26 589.47 201.06 596.76 197.01 C 590.29 188.94 582.59 182.00 575.13 174.87 C 568.25 168.24 567.13 156.07 574.01 149.03 Z" />
<path fill="#ffffff" opacity="1.00" d=" M 857.40 140.61 C 863.35 138.43 869.65 140.53 875.57 141.72 C 880.54 143.20 885.70 144.86 889.74 148.25 C 893.76 151.83 896.06 158.25 893.04 163.15 C 889.38 169.39 882.76 172.88 877.26 177.25 C 870.93 181.70 865.49 187.47 858.45 190.84 C 859.42 193.37 860.45 195.87 861.66 198.30 C 872.97 201.46 885.13 199.53 895.75 194.89 C 900.04 193.72 904.47 191.83 908.99 192.63 C 911.98 193.07 914.68 195.77 914.25 198.93 C 913.59 204.66 908.23 207.99 903.88 210.92 C 892.70 216.37 880.83 222.59 868.00 221.30 C 859.58 220.34 849.74 219.06 844.73 211.28 C 839.46 202.51 835.92 192.34 836.30 182.00 C 836.21 174.59 837.91 167.31 840.10 160.29 C 841.27 156.43 842.61 152.44 845.41 149.44 C 848.83 145.83 852.49 142.06 857.40 140.61 M 859.65 161.73 C 858.36 166.07 857.44 170.54 857.12 175.06 C 864.03 169.49 871.14 164.16 878.25 158.84 C 873.55 156.68 868.19 156.23 863.11 156.87 C 861.14 157.72 860.36 159.88 859.65 161.73 Z" />
</g>
<g id="#cedffdff">
<path fill="#cedffd" opacity="1.00" d=" M 70.86 79.84 C 79.94 76.66 89.21 73.11 98.97 73.11 C 103.32 73.03 107.67 73.02 112.01 73.05 C 119.81 73.07 127.46 74.90 134.88 77.14 C 142.94 79.54 149.76 84.67 156.44 89.58 C 163.95 95.67 171.07 102.32 176.87 110.08 C 181.50 118.64 187.03 126.91 189.56 136.42 C 192.40 146.70 192.29 157.48 191.91 168.05 C 191.53 177.99 188.68 187.59 186.12 197.13 C 182.91 208.75 175.20 218.43 166.81 226.81 C 163.70 230.02 159.71 232.38 157.32 236.25 C 152.53 233.66 147.38 231.68 143.02 228.35 C 152.62 222.48 160.94 214.61 167.38 205.40 C 170.50 201.04 172.50 195.99 173.83 190.82 C 175.81 183.00 178.15 175.15 178.23 167.01 C 178.36 158.45 178.86 149.73 176.69 141.36 C 174.42 132.14 169.42 123.83 163.57 116.43 C 160.50 112.52 158.00 108.06 153.94 105.05 C 146.05 98.99 138.26 92.12 128.38 89.59 C 118.57 86.35 108.13 86.75 97.95 86.99 C 91.56 87.27 85.33 89.12 79.45 91.52 C 70.18 96.19 60.98 101.08 52.66 107.34 C 51.08 102.58 49.45 97.84 47.83 93.10 C 54.86 87.67 62.37 82.67 70.86 79.84 Z" />
<path fill="#cedffd" opacity="1.00" d=" M 33.47 106.87 C 35.74 113.37 38.32 119.77 40.33 126.36 C 35.51 131.65 33.30 138.64 31.55 145.44 C 29.96 152.52 28.44 159.75 29.02 167.05 C 29.76 176.20 30.22 185.60 33.84 194.16 C 36.26 199.85 39.10 205.37 42.39 210.61 C 46.31 216.88 52.26 221.44 57.72 226.30 C 64.87 232.68 74.12 235.93 83.07 238.91 C 93.08 242.16 103.60 240.04 113.73 238.73 C 116.88 238.36 119.88 237.28 122.71 235.88 C 127.12 240.24 132.67 243.06 138.19 245.73 C 126.48 250.91 113.62 252.39 101.02 253.81 C 89.01 255.01 77.03 251.98 66.26 246.79 C 55.68 243.04 47.43 235.13 39.68 227.32 C 30.23 218.48 25.46 206.10 20.65 194.39 C 11.50 171.19 14.83 144.66 25.52 122.57 C 27.17 116.84 30.88 112.15 33.47 106.87 Z" />
</g>
</svg>
