<svg xmlns="http://www.w3.org/2000/svg" xmlns:xlink="http://www.w3.org/1999/xlink" id="body_1" preserveAspectRatio="xMinYMin meet" viewBox="0 0 888 1115"><defs><clipPath id="1"><path id="" clip-rule="evenodd" transform="matrix(1 0 0 1 0 0)" d="M0 836L0 -0.4000244L0 -0.4000244L666.84 -0.4000244L666.84 -0.4000244L666.84 836L666.84 836L0 836z" /></clipPath><clipPath id="2"><path id="" clip-rule="evenodd" transform="matrix(1 0 0 1 0 0)" d="M9.937E-06 836L666.84 836L666.84 836L666.84 -0.4000244L666.84 -0.4000244L9.937E-06 -0.4000244z" /></clipPath><clipPath id="3"><path id="" clip-rule="evenodd" transform="matrix(1 0 0 1 0 0)" d="M9.937E-06 836L666.84 836L666.84 836L666.84 -0.4000244L666.84 -0.4000244L9.937E-06 -0.4000244z" /></clipPath><clipPath id="4"><path id="" clip-rule="evenodd" transform="matrix(1 0 0 1 0 0)" d="M9.937E-06 836L666.84 836L666.84 836L666.84 -0.4000244L666.84 -0.4000244L9.937E-06 -0.4000244z" /></clipPath><clipPath id="5"><path id="" clip-rule="evenodd" transform="matrix(1 0 0 1 0 0)" d="M120.62 345.61L546.33 345.61L546.33 345.61L546.33 279.13L546.33 279.13L120.62 279.13z" /></clipPath><clipPath id="6"><path id="" clip-rule="evenodd" transform="matrix(1 0 0 1 0 0)" d="M131.06 312.13L256.96 312.13L256.96 312.13L256.96 280.69L256.96 280.69L131.06 280.69z" /></clipPath><clipPath id="7"><path id="" clip-rule="evenodd" transform="matrix(1 0 0 1 0 0)" d="M131.06 312.13L256.96 312.13L256.96 312.13L256.96 280.69L256.96 280.69L131.06 280.69z" /></clipPath><clipPath id="8"><path id="" clip-rule="evenodd" transform="matrix(1 0 0 1 0 0)" d="M131.06 312.13L256.96 312.13L256.96 312.13L256.96 280.69L256.96 280.69L131.06 280.69z" /></clipPath><clipPath id="9"><path id="" clip-rule="evenodd" transform="matrix(1 0 0 1 0 0)" d="M257.45 312.13L535.78 312.13L535.78 312.13L535.78 280.69L535.78 280.69L257.45 280.69z" /></clipPath><clipPath id="10"><path id="" clip-rule="evenodd" transform="matrix(1 0 0 1 0 0)" d="M257.45 312.13L535.78 312.13L535.78 312.13L535.78 280.69L535.78 280.69L257.45 280.69z" /></clipPath><clipPath id="11"><path id="" clip-rule="evenodd" transform="matrix(1 0 0 1 0 0)" d="M257.45 312.13L535.78 312.13L535.78 312.13L535.78 280.69L535.78 280.69L257.45 280.69z" /></clipPath><clipPath id="12"><path id="" clip-rule="evenodd" transform="matrix(1 0 0 1 0 0)" d="M257.45 312.13L535.78 312.13L535.78 312.13L535.78 280.69L535.78 280.69L257.45 280.69z" /></clipPath><clipPath id="13"><path id="" clip-rule="evenodd" transform="matrix(1 0 0 1 0 0)" d="M257.45 312.13L535.78 312.13L535.78 312.13L535.78 280.69L535.78 280.69L257.45 280.69z" /></clipPath><clipPath id="14"><path id="" clip-rule="evenodd" transform="matrix(1 0 0 1 0 0)" d="M131.06 344.17L256.96 344.17L256.96 344.17L256.96 312.61L256.96 312.61L131.06 312.61z" /></clipPath><clipPath id="15"><path id="" clip-rule="evenodd" transform="matrix(1 0 0 1 0 0)" d="M131.06 344.17L256.96 344.17L256.96 344.17L256.96 312.61L256.96 312.61L131.06 312.61z" /></clipPath><clipPath id="16"><path id="" clip-rule="evenodd" transform="matrix(1 0 0 1 0 0)" d="M131.06 344.17L256.96 344.17L256.96 344.17L256.96 312.61L256.96 312.61L131.06 312.61z" /></clipPath><clipPath id="17"><path id="" clip-rule="evenodd" transform="matrix(1 0 0 1 0 0)" d="M257.45 344.17L535.78 344.17L535.78 344.17L535.78 312.61L535.78 312.61L257.45 312.61z" /></clipPath><clipPath id="18"><path id="" clip-rule="evenodd" transform="matrix(1 0 0 1 0 0)" d="M257.45 344.17L535.78 344.17L535.78 344.17L535.78 312.61L535.78 312.61L257.45 312.61z" /></clipPath><clipPath id="19"><path id="" clip-rule="evenodd" transform="matrix(1 0 0 1 0 0)" d="M257.45 344.17L535.78 344.17L535.78 344.17L535.78 312.61L535.78 312.61L257.45 312.61z" /></clipPath><clipPath id="20"><path id="" clip-rule="evenodd" transform="matrix(1 0 0 1 0 0)" d="M257.45 344.17L535.78 344.17L535.78 344.17L535.78 312.61L535.78 312.61L257.45 312.61z" /></clipPath><clipPath id="21"><path id="" clip-rule="evenodd" transform="matrix(1 0 0 1 0 0)" d="M257.45 344.17L535.78 344.17L535.78 344.17L535.78 312.61L535.78 312.61L257.45 312.61z" /></clipPath><clipPath id="22"><path id="" clip-rule="evenodd" transform="matrix(1 0 0 1 0 0)" d="M257.45 344.17L535.78 344.17L535.78 344.17L535.78 312.61L535.78 312.61L257.45 312.61z" /></clipPath><clipPath id="23"><path id="" clip-rule="evenodd" transform="matrix(1 0 0 1 0 0)" d="M257.45 344.17L535.78 344.17L535.78 344.17L535.78 312.61L535.78 312.61L257.45 312.61z" /></clipPath><clipPath id="24"><path id="" clip-rule="evenodd" transform="matrix(1 0 0 1 0 0)" d="M257.45 344.17L535.78 344.17L535.78 344.17L535.78 312.61L535.78 312.61L257.45 312.61z" /></clipPath><clipPath id="25"><path id="" clip-rule="evenodd" transform="matrix(1 0 0 1 0 0)" d="M257.45 344.17L535.78 344.17L535.78 344.17L535.78 312.61L535.78 312.61L257.45 312.61z" /></clipPath><clipPath id="26"><path id="" clip-rule="evenodd" transform="matrix(1 0 0 1 0 0)" d="M257.45 344.17L535.78 344.17L535.78 344.17L535.78 312.61L535.78 312.61L257.45 312.61z" /></clipPath><clipPath id="27"><path id="" clip-rule="evenodd" transform="matrix(1 0 0 1 0 0)" d="M257.45 344.17L535.78 344.17L535.78 344.17L535.78 312.61L535.78 312.61L257.45 312.61z" /></clipPath><clipPath id="28"><path id="" clip-rule="evenodd" transform="matrix(1 0 0 1 0 0)" d="M0 835.9997L666.84 835.9997L666.84 835.9997L666.84 -0.4003296L666.84 -0.4003296L0 -0.4003296z" /></clipPath><clipPath id="29"><path id="" clip-rule="evenodd" transform="matrix(1 0 0 1 0 0)" d="M-7E-09 835.9998L666.84 835.9998L666.84 835.9998L666.84 -0.4002686L666.84 -0.4002686L-7E-09 -0.4002686z" /></clipPath><clipPath id="30"><path id="" clip-rule="evenodd" transform="matrix(1 0 0 1 0 0)" d="M-6E-08 835.9999L666.84 835.9999L666.84 835.9999L666.84 -0.4001465L666.84 -0.4001465L-6E-08 -0.4001465z" /></clipPath><clipPath id="31"><path id="" clip-rule="evenodd" transform="matrix(1 0 0 1 0 0)" d="M9.937E-06 836L666.84 836L666.84 836L666.84 -0.4000244L666.84 -0.4000244L9.937E-06 -0.4000244z" /></clipPath><clipPath id="32"><path id="" clip-rule="evenodd" transform="matrix(1 0 0 1 0 0)" d="M9.937E-06 836L666.84 836L666.84 836L666.84 -0.4000244L666.84 -0.4000244L9.937E-06 -0.4000244z" /></clipPath><clipPath id="33"><path id="" clip-rule="evenodd" transform="matrix(1 0 0 1 0 0)" d="M9.937E-06 836L666.84 836L666.84 836L666.84 -0.4000244L666.84 -0.4000244L9.937E-06 -0.4000244z" /></clipPath><clipPath id="34"><path id="" clip-rule="evenodd" transform="matrix(1 0 0 1 0 0)" d="M9.937E-06 836L666.84 836L666.84 836L666.84 -0.4000244L666.84 -0.4000244L9.937E-06 -0.4000244z" /></clipPath><clipPath id="35"><path id="" clip-rule="evenodd" transform="matrix(1 0 0 1 0 0)" d="M9.937E-06 836L666.84 836L666.84 836L666.84 -0.4000244L666.84 -0.4000244L9.937E-06 -0.4000244z" /></clipPath><clipPath id="36"><path id="" clip-rule="evenodd" transform="matrix(1 0 0 1 0 0)" d="M9.937E-06 836L666.84 836L666.84 836L666.84 -0.4000244L666.84 -0.4000244L9.937E-06 -0.4000244z" /></clipPath><clipPath id="37"><path id="" clip-rule="evenodd" transform="matrix(1 0 0 1 0 0)" d="M9.937E-06 836L666.84 836L666.84 836L666.84 -0.4000244L666.84 -0.4000244L9.937E-06 -0.4000244z" /></clipPath><clipPath id="38"><path id="" clip-rule="evenodd" transform="matrix(1 0 0 1 0 0)" d="M9.937E-06 836L666.84 836L666.84 836L666.84 -0.4000244L666.84 -0.4000244L9.937E-06 -0.4000244z" /></clipPath><clipPath id="39"><path id="" clip-rule="evenodd" transform="matrix(1 0 0 1 0 0)" d="M9.937E-06 836L666.84 836L666.84 836L666.84 -0.4000244L666.84 -0.4000244L9.937E-06 -0.4000244z" /></clipPath><clipPath id="40"><path id="" clip-rule="evenodd" transform="matrix(1 0 0 1 0 0)" d="M9.937E-06 836L666.84 836L666.84 836L666.84 -0.4000244L666.84 -0.4000244L9.937E-06 -0.4000244z" /></clipPath><clipPath id="41"><path id="" clip-rule="evenodd" transform="matrix(1 0 0 1 0 0)" d="M9.937E-06 836L666.84 836L666.84 836L666.84 -0.4000244L666.84 -0.4000244L9.937E-06 -0.4000244z" /></clipPath><clipPath id="42"><path id="" clip-rule="evenodd" transform="matrix(1 0 0 1 0 0)" d="M9.937E-06 836L666.84 836L666.84 836L666.84 -0.4000244L666.84 -0.4000244L9.937E-06 -0.4000244z" /></clipPath><clipPath id="43"><path id="" clip-rule="evenodd" transform="matrix(1 0 0 1 0 0)" d="M1.08 830.6L666.36 830.6L666.36 830.6L666.36 723.68L666.36 723.68L1.08 723.68z" /></clipPath><clipPath id="44"><path id="" clip-rule="evenodd" transform="matrix(1 0 0 1 0 0)" d="M1.08 830.6L666.36 830.6L666.36 830.6L666.36 723.68L666.36 723.68L1.08 723.68z" /></clipPath><clipPath id="45"><path id="" clip-rule="evenodd" transform="matrix(1 0 0 1 0 0)" d="M1.08 830.6L666.36 830.6L666.36 830.6L666.36 723.68L666.36 723.68L1.08 723.68z" /></clipPath><clipPath id="46"><path id="" clip-rule="evenodd" transform="matrix(1 0 0 1 0 0)" d="M1.08 830.6L666.36 830.6L666.36 830.6L666.36 723.68L666.36 723.68L1.08 723.68z" /></clipPath><clipPath id="47"><path id="" clip-rule="evenodd" transform="matrix(1 0 0 1 0 0)" d="M1.08 830.6L666.36 830.6L666.36 830.6L666.36 723.68L666.36 723.68L1.08 723.68z" /></clipPath><clipPath id="48"><path id="" clip-rule="evenodd" transform="matrix(1 0 0 1 0 0)" d="M1.08 830.6L666.36 830.6L666.36 830.6L666.36 723.68L666.36 723.68L1.08 723.68z" /></clipPath><clipPath id="49"><path id="" clip-rule="evenodd" transform="matrix(1 0 0 1 0 0)" d="M1.08 830.6L666.36 830.6L666.36 830.6L666.36 723.68L666.36 723.68L1.08 723.68z" /></clipPath><clipPath id="50"><path id="" clip-rule="evenodd" transform="matrix(1 0 0 1 0 0)" d="M1.08 830.6L666.36 830.6L666.36 830.6L666.36 723.68L666.36 723.68L1.08 723.68z" /></clipPath><clipPath id="51"><path id="" clip-rule="evenodd" transform="matrix(1 0 0 1 0 0)" d="M1.08 830.6L666.36 830.6L666.36 830.6L666.36 723.68L666.36 723.68L1.08 723.68z" /></clipPath><clipPath id="52"><path id="" clip-rule="evenodd" transform="matrix(1 0 0 1 0 0)" d="M1.08 830.6L666.36 830.6L666.36 830.6L666.36 723.68L666.36 723.68L1.08 723.68z" /></clipPath><clipPath id="53"><path id="" clip-rule="evenodd" transform="matrix(1 0 0 1 0 0)" d="M4.1219 745.105L136.0419 745.105L136.0419 745.105L136.0419 720.319L136.0419 720.319L4.1219 720.319z" /></clipPath><clipPath id="54"><path id="" clip-rule="evenodd" transform="matrix(1 0 0 1 0 0)" d="M9.937E-06 47.15002L441.5 47.15002L441.5 47.15002L441.5 -0.3999634L441.5 -0.3999634L9.937E-06 -0.3999634z" /></clipPath><clipPath id="55"><path id="" clip-rule="evenodd" transform="matrix(1 0 0 1 0 0)" d="M442.63 39.32001L652.77 39.32001L652.77 39.32001L652.77 0.4400024L652.77 0.4400024L442.63 0.4400024z" /></clipPath><clipPath id="56"><path id="" clip-rule="evenodd" transform="matrix(1 0 0 1 0 0)" d="M442.63 39.32001L652.77 39.32001L652.77 39.32001L652.77 0.4400024L652.77 0.4400024L442.63 0.4400024z" /></clipPath><clipPath id="57"><path id="" clip-rule="evenodd" transform="matrix(1 0 0 1 0 0)" d="M442.63 39.32001L652.77 39.32001L652.77 39.32001L652.77 0.4400024L652.77 0.4400024L442.63 0.4400024z" /></clipPath><clipPath id="58"><path id="" clip-rule="evenodd" transform="matrix(1 0 0 1 0 0)" d="M442.63 39.32001L652.77 39.32001L652.77 39.32001L652.77 0.4400024L652.77 0.4400024L442.63 0.4400024z" /></clipPath><clipPath id="59"><path id="" clip-rule="evenodd" transform="matrix(1 0 0 1 0 0)" d="M90.144 275.89L300.284 275.89L300.284 275.89L300.284 236.986L300.284 236.986L90.144 236.986z" /></clipPath><clipPath id="60"><path id="" clip-rule="evenodd" transform="matrix(1 0 0 1 0 0)" d="M90.144 275.89L300.284 275.89L300.284 275.89L300.284 236.986L300.284 236.986L90.144 236.986z" /></clipPath><clipPath id="61"><path id="" clip-rule="evenodd" transform="matrix(1 0 0 1 0 0)" d="M90.144 275.89L300.284 275.89L300.284 275.89L300.284 236.986L300.284 236.986L90.144 236.986z" /></clipPath><clipPath id="62"><path id="" clip-rule="evenodd" transform="matrix(1 0 0 1 0 0)" d="M90.144 275.89L300.284 275.89L300.284 275.89L300.284 236.986L300.284 236.986L90.144 236.986z" /></clipPath><clipPath id="63"><path id="" clip-rule="evenodd" transform="matrix(1 0 0 1 0 0)" d="M90.144 275.89L300.284 275.89L300.284 275.89L300.284 236.986L300.284 236.986L90.144 236.986z" /></clipPath><clipPath id="64"><path id="" clip-rule="evenodd" transform="matrix(1 0 0 1 0 0)" d="M67.56 572.07L599.38 572.07L599.38 572.07L599.38 345.73L599.38 345.73L67.56 345.73z" /></clipPath><clipPath id="65"><path id="" clip-rule="evenodd" transform="matrix(1 0 0 1 0 0)" d="M67.56 572.07L599.38 572.07L599.38 572.07L599.38 345.73L599.38 345.73L67.56 345.73z" /></clipPath><clipPath id="66"><path id="" clip-rule="evenodd" transform="matrix(1 0 0 1 0 0)" d="M67.56 572.07L599.38 572.07L599.38 572.07L599.38 345.73L599.38 345.73L67.56 345.73z" /></clipPath><clipPath id="67"><path id="" clip-rule="evenodd" transform="matrix(1 0 0 1 0 0)" d="M67.56 572.07L599.38 572.07L599.38 572.07L599.38 345.73L599.38 345.73L67.56 345.73z" /></clipPath><clipPath id="68"><path id="" clip-rule="evenodd" transform="matrix(1 0 0 1 0 0)" d="M67.56 572.07L599.38 572.07L599.38 572.07L599.38 345.73L599.38 345.73L67.56 345.73z" /></clipPath><clipPath id="69"><path id="" clip-rule="evenodd" transform="matrix(1 0 0 1 0 0)" d="M67.56 572.07L599.38 572.07L599.38 572.07L599.38 345.73L599.38 345.73L67.56 345.73z" /></clipPath><clipPath id="70"><path id="" clip-rule="evenodd" transform="matrix(1 0 0 1 0 0)" d="M67.56 572.07L599.38 572.07L599.38 572.07L599.38 345.73L599.38 345.73L67.56 345.73z" /></clipPath><clipPath id="71"><path id="" clip-rule="evenodd" transform="matrix(1 0 0 1 0 0)" d="M67.56 572.07L599.38 572.07L599.38 572.07L599.38 345.73L599.38 345.73L67.56 345.73z" /></clipPath><clipPath id="72"><path id="" clip-rule="evenodd" transform="matrix(1 0 0 1 0 0)" d="M67.56 572.07L599.38 572.07L599.38 572.07L599.38 345.73L599.38 345.73L67.56 345.73z" /></clipPath><clipPath id="73"><path id="" clip-rule="evenodd" transform="matrix(1 0 0 1 0 0)" d="M67.56 572.07L599.38 572.07L599.38 572.07L599.38 345.73L599.38 345.73L67.56 345.73z" /></clipPath><clipPath id="74"><path id="" clip-rule="evenodd" transform="matrix(1 0 0 1 0 0)" d="M67.56 572.07L599.38 572.07L599.38 572.07L599.38 345.73L599.38 345.73L67.56 345.73z" /></clipPath><clipPath id="75"><path id="" clip-rule="evenodd" transform="matrix(1 0 0 1 0 0)" d="M67.56 572.07L599.38 572.07L599.38 572.07L599.38 345.73L599.38 345.73L67.56 345.73z" /></clipPath><clipPath id="76"><path id="" clip-rule="evenodd" transform="matrix(1 0 0 1 0 0)" d="M67.56 572.07L599.38 572.07L599.38 572.07L599.38 345.73L599.38 345.73L67.56 345.73z" /></clipPath><clipPath id="77"><path id="" clip-rule="evenodd" transform="matrix(1 0 0 1 0 0)" d="M67.56 572.07L599.38 572.07L599.38 572.07L599.38 345.73L599.38 345.73L67.56 345.73z" /></clipPath><clipPath id="78"><path id="" clip-rule="evenodd" transform="matrix(1 0 0 1 0 0)" d="M67.56 572.07L599.38 572.07L599.38 572.07L599.38 345.73L599.38 345.73L67.56 345.73z" /></clipPath><clipPath id="79"><path id="" clip-rule="evenodd" transform="matrix(1 0 0 1 0 0)" d="M67.56 572.07L599.38 572.07L599.38 572.07L599.38 345.73L599.38 345.73L67.56 345.73z" /></clipPath><clipPath id="80"><path id="" clip-rule="evenodd" transform="matrix(1 0 0 1 0 0)" d="M67.56 572.07L599.38 572.07L599.38 572.07L599.38 345.73L599.38 345.73L67.56 345.73z" /></clipPath><clipPath id="81"><path id="" clip-rule="evenodd" transform="matrix(1 0 0 1 0 0)" d="M67.56 572.07L599.38 572.07L599.38 572.07L599.38 345.73L599.38 345.73L67.56 345.73z" /></clipPath><clipPath id="82"><path id="" clip-rule="evenodd" transform="matrix(1 0 0 1 0 0)" d="M67.56 572.07L599.38 572.07L599.38 572.07L599.38 345.73L599.38 345.73L67.56 345.73z" /></clipPath><clipPath id="83"><path id="" clip-rule="evenodd" transform="matrix(1 0 0 1 0 0)" d="M67.56 572.07L599.38 572.07L599.38 572.07L599.38 345.73L599.38 345.73L67.56 345.73z" /></clipPath><clipPath id="84"><path id="" clip-rule="evenodd" transform="matrix(1 0 0 1 0 0)" d="M67.56 572.07L599.38 572.07L599.38 572.07L599.38 345.73L599.38 345.73L67.56 345.73z" /></clipPath><clipPath id="85"><path id="" clip-rule="evenodd" transform="matrix(1 0 0 1 0 0)" d="M67.56 572.07L599.38 572.07L599.38 572.07L599.38 345.73L599.38 345.73L67.56 345.73z" /></clipPath><clipPath id="86"><path id="" clip-rule="evenodd" transform="matrix(1 0 0 1 0 0)" d="M67.56 572.07L599.38 572.07L599.38 572.07L599.38 345.73L599.38 345.73L67.56 345.73z" /></clipPath><clipPath id="87"><path id="" clip-rule="evenodd" transform="matrix(1 0 0 1 0 0)" d="M67.56 572.07L599.38 572.07L599.38 572.07L599.38 345.73L599.38 345.73L67.56 345.73z" /></clipPath><clipPath id="88"><path id="" clip-rule="evenodd" transform="matrix(1 0 0 1 0 0)" d="M67.56 572.07L599.38 572.07L599.38 572.07L599.38 345.73L599.38 345.73L67.56 345.73z" /></clipPath><clipPath id="89"><path id="" clip-rule="evenodd" transform="matrix(1 0 0 1 0 0)" d="M67.56 572.07L599.38 572.07L599.38 572.07L599.38 345.73L599.38 345.73L67.56 345.73z" /></clipPath><clipPath id="90"><path id="" clip-rule="evenodd" transform="matrix(1 0 0 1 0 0)" d="M67.56 572.07L599.38 572.07L599.38 572.07L599.38 345.73L599.38 345.73L67.56 345.73z" /></clipPath><clipPath id="91"><path id="" clip-rule="evenodd" transform="matrix(1 0 0 1 0 0)" d="M67.56 572.07L599.38 572.07L599.38 572.07L599.38 345.73L599.38 345.73L67.56 345.73z" /></clipPath><clipPath id="92"><path id="" clip-rule="evenodd" transform="matrix(1 0 0 1 0 0)" d="M67.56 572.07L599.38 572.07L599.38 572.07L599.38 345.73L599.38 345.73L67.56 345.73z" /></clipPath><clipPath id="93"><path id="" clip-rule="evenodd" transform="matrix(1 0 0 1 0 0)" d="M67.56 572.07L599.38 572.07L599.38 572.07L599.38 345.73L599.38 345.73L67.56 345.73z" /></clipPath><clipPath id="94"><path id="" clip-rule="evenodd" transform="matrix(1 0 0 1 0 0)" d="M67.56 572.07L599.38 572.07L599.38 572.07L599.38 345.73L599.38 345.73L67.56 345.73z" /></clipPath><clipPath id="95"><path id="" clip-rule="evenodd" transform="matrix(1 0 0 1 0 0)" d="M67.56 572.07L599.38 572.07L599.38 572.07L599.38 345.73L599.38 345.73L67.56 345.73z" /></clipPath><clipPath id="96"><path id="" clip-rule="evenodd" transform="matrix(1 0 0 1 0 0)" d="M67.56 572.07L599.38 572.07L599.38 572.07L599.38 345.73L599.38 345.73L67.56 345.73z" /></clipPath><clipPath id="97"><path id="" clip-rule="evenodd" transform="matrix(1 0 0 1 0 0)" d="M67.56 572.07L599.38 572.07L599.38 572.07L599.38 345.73L599.38 345.73L67.56 345.73z" /></clipPath><clipPath id="98"><path id="" clip-rule="evenodd" transform="matrix(1 0 0 1 0 0)" d="M67.56 572.07L599.38 572.07L599.38 572.07L599.38 345.73L599.38 345.73L67.56 345.73z" /></clipPath><clipPath id="99"><path id="" clip-rule="evenodd" transform="matrix(1 0 0 1 0 0)" d="M67.56 572.07L599.38 572.07L599.38 572.07L599.38 345.73L599.38 345.73L67.56 345.73z" /></clipPath><clipPath id="100"><path id="" clip-rule="evenodd" transform="matrix(1 0 0 1 0 0)" d="M67.56 572.07L599.38 572.07L599.38 572.07L599.38 345.73L599.38 345.73L67.56 345.73z" /></clipPath><clipPath id="101"><path id="" clip-rule="evenodd" transform="matrix(1 0 0 1 0 0)" d="M67.56 572.07L599.38 572.07L599.38 572.07L599.38 345.73L599.38 345.73L67.56 345.73z" /></clipPath><clipPath id="102"><path id="" clip-rule="evenodd" transform="matrix(1 0 0 1 0 0)" d="M67.56 572.07L599.38 572.07L599.38 572.07L599.38 345.73L599.38 345.73L67.56 345.73z" /></clipPath><clipPath id="103"><path id="" clip-rule="evenodd" transform="matrix(1 0 0 1 0 0)" d="M67.56 572.07L599.38 572.07L599.38 572.07L599.38 345.73L599.38 345.73L67.56 345.73z" /></clipPath><clipPath id="104"><path id="" clip-rule="evenodd" transform="matrix(1 0 0 1 0 0)" d="M67.56 572.07L599.38 572.07L599.38 572.07L599.38 345.73L599.38 345.73L67.56 345.73z" /></clipPath><clipPath id="105"><path id="" clip-rule="evenodd" transform="matrix(1 0 0 1 0 0)" d="M67.56 572.07L599.38 572.07L599.38 572.07L599.38 345.73L599.38 345.73L67.56 345.73z" /></clipPath><clipPath id="106"><path id="" clip-rule="evenodd" transform="matrix(1 0 0 1 0 0)" d="M67.56 572.07L599.38 572.07L599.38 572.07L599.38 345.73L599.38 345.73L67.56 345.73z" /></clipPath><clipPath id="107"><path id="" clip-rule="evenodd" transform="matrix(1 0 0 1 0 0)" d="M67.56 572.07L599.38 572.07L599.38 572.07L599.38 345.73L599.38 345.73L67.56 345.73z" /></clipPath><clipPath id="108"><path id="" clip-rule="evenodd" transform="matrix(1 0 0 1 0 0)" d="M67.56 572.07L599.38 572.07L599.38 572.07L599.38 345.73L599.38 345.73L67.56 345.73z" /></clipPath><clipPath id="109"><path id="" clip-rule="evenodd" transform="matrix(1 0 0 1 0 0)" d="M67.56 572.07L599.38 572.07L599.38 572.07L599.38 345.73L599.38 345.73L67.56 345.73z" /></clipPath><clipPath id="110"><path id="" clip-rule="evenodd" transform="matrix(1 0 0 1 0 0)" d="M67.56 572.07L599.38 572.07L599.38 572.07L599.38 345.73L599.38 345.73L67.56 345.73z" /></clipPath><clipPath id="111"><path id="" clip-rule="evenodd" transform="matrix(1 0 0 1 0 0)" d="M67.56 572.07L599.38 572.07L599.38 572.07L599.38 345.73L599.38 345.73L67.56 345.73z" /></clipPath><clipPath id="112"><path id="" clip-rule="evenodd" transform="matrix(1 0 0 1 0 0)" d="M67.56 572.07L599.38 572.07L599.38 572.07L599.38 345.73L599.38 345.73L67.56 345.73z" /></clipPath><clipPath id="113"><path id="" clip-rule="evenodd" transform="matrix(1 0 0 1 0 0)" d="M67.56 572.07L599.38 572.07L599.38 572.07L599.38 345.73L599.38 345.73L67.56 345.73z" /></clipPath><clipPath id="114"><path id="" clip-rule="evenodd" transform="matrix(1 0 0 1 0 0)" d="M67.56 572.07L599.38 572.07L599.38 572.07L599.38 345.73L599.38 345.73L67.56 345.73z" /></clipPath><clipPath id="115"><path id="" clip-rule="evenodd" transform="matrix(1 0 0 1 0 0)" d="M67.56 572.07L599.38 572.07L599.38 572.07L599.38 345.73L599.38 345.73L67.56 345.73z" /></clipPath><clipPath id="116"><path id="" clip-rule="evenodd" transform="matrix(1 0 0 1 0 0)" d="M67.56 572.07L599.38 572.07L599.38 572.07L599.38 345.73L599.38 345.73L67.56 345.73z" /></clipPath><clipPath id="117"><path id="" clip-rule="evenodd" transform="matrix(1 0 0 1 0 0)" d="M67.56 572.07L599.38 572.07L599.38 572.07L599.38 345.73L599.38 345.73L67.56 345.73z" /></clipPath><clipPath id="118"><path id="" clip-rule="evenodd" transform="matrix(1 0 0 1 0 0)" d="M67.56 572.07L599.38 572.07L599.38 572.07L599.38 345.73L599.38 345.73L67.56 345.73z" /></clipPath><clipPath id="119"><path id="" clip-rule="evenodd" transform="matrix(1 0 0 1 0 0)" d="M67.56 572.07L599.38 572.07L599.38 572.07L599.38 345.73L599.38 345.73L67.56 345.73z" /></clipPath><clipPath id="120"><path id="" clip-rule="evenodd" transform="matrix(1 0 0 1 0 0)" d="M67.56 572.07L599.38 572.07L599.38 572.07L599.38 345.73L599.38 345.73L67.56 345.73z" /></clipPath><clipPath id="121"><path id="" clip-rule="evenodd" transform="matrix(1 0 0 1 0 0)" d="M67.56 572.07L599.38 572.07L599.38 572.07L599.38 345.73L599.38 345.73L67.56 345.73z" /></clipPath><clipPath id="122"><path id="" clip-rule="evenodd" transform="matrix(1 0 0 1 0 0)" d="M67.56 572.07L599.38 572.07L599.38 572.07L599.38 345.73L599.38 345.73L67.56 345.73z" /></clipPath><clipPath id="123"><path id="" clip-rule="evenodd" transform="matrix(1 0 0 1 0 0)" d="M67.56 572.07L599.38 572.07L599.38 572.07L599.38 345.73L599.38 345.73L67.56 345.73z" /></clipPath><clipPath id="124"><path id="" clip-rule="evenodd" transform="matrix(1 0 0 1 0 0)" d="M67.56 572.07L599.38 572.07L599.38 572.07L599.38 345.73L599.38 345.73L67.56 345.73z" /></clipPath><clipPath id="125"><path id="" clip-rule="evenodd" transform="matrix(1 0 0 1 0 0)" d="M67.56 572.07L599.38 572.07L599.38 572.07L599.38 345.73L599.38 345.73L67.56 345.73z" /></clipPath><clipPath id="126"><path id="" clip-rule="evenodd" transform="matrix(1 0 0 1 0 0)" d="M67.56 572.07L599.38 572.07L599.38 572.07L599.38 345.73L599.38 345.73L67.56 345.73z" /></clipPath><clipPath id="127"><path id="" clip-rule="evenodd" transform="matrix(1 0 0 1 0 0)" d="M67.56 572.07L599.38 572.07L599.38 572.07L599.38 345.73L599.38 345.73L67.56 345.73z" /></clipPath><clipPath id="128"><path id="" clip-rule="evenodd" transform="matrix(1 0 0 1 0 0)" d="M67.56 572.07L599.38 572.07L599.38 572.07L599.38 345.73L599.38 345.73L67.56 345.73z" /></clipPath><clipPath id="129"><path id="" clip-rule="evenodd" transform="matrix(1 0 0 1 0 0)" d="M67.56 572.07L599.38 572.07L599.38 572.07L599.38 345.73L599.38 345.73L67.56 345.73z" /></clipPath><clipPath id="130"><path id="" clip-rule="evenodd" transform="matrix(1 0 0 1 0 0)" d="M67.56 572.07L599.38 572.07L599.38 572.07L599.38 345.73L599.38 345.73L67.56 345.73z" /></clipPath><clipPath id="131"><path id="" clip-rule="evenodd" transform="matrix(1 0 0 1 0 0)" d="M67.56 572.07L599.38 572.07L599.38 572.07L599.38 345.73L599.38 345.73L67.56 345.73z" /></clipPath><clipPath id="132"><path id="" clip-rule="evenodd" transform="matrix(1 0 0 1 0 0)" d="M67.56 572.07L599.38 572.07L599.38 572.07L599.38 345.73L599.38 345.73L67.56 345.73z" /></clipPath><clipPath id="133"><path id="" clip-rule="evenodd" transform="matrix(1 0 0 1 0 0)" d="M67.56 572.07L599.38 572.07L599.38 572.07L599.38 345.73L599.38 345.73L67.56 345.73z" /></clipPath><clipPath id="134"><path id="" clip-rule="evenodd" transform="matrix(1 0 0 1 0 0)" d="M67.56 572.07L599.38 572.07L599.38 572.07L599.38 345.73L599.38 345.73L67.56 345.73z" /></clipPath><clipPath id="135"><path id="" clip-rule="evenodd" transform="matrix(1 0 0 1 0 0)" d="M67.56 572.07L599.38 572.07L599.38 572.07L599.38 345.73L599.38 345.73L67.56 345.73z" /></clipPath><clipPath id="136"><path id="" clip-rule="evenodd" transform="matrix(1 0 0 1 0 0)" d="M67.56 572.07L599.38 572.07L599.38 572.07L599.38 345.73L599.38 345.73L67.56 345.73z" /></clipPath><clipPath id="137"><path id="" clip-rule="evenodd" transform="matrix(1 0 0 1 0 0)" d="M67.56 572.07L599.38 572.07L599.38 572.07L599.38 345.73L599.38 345.73L67.56 345.73z" /></clipPath><clipPath id="138"><path id="" clip-rule="evenodd" transform="matrix(1 0 0 1 0 0)" d="M67.56 572.07L599.38 572.07L599.38 572.07L599.38 345.73L599.38 345.73L67.56 345.73z" /></clipPath><clipPath id="139"><path id="" clip-rule="evenodd" transform="matrix(1 0 0 1 0 0)" d="M67.56 572.07L599.38 572.07L599.38 572.07L599.38 345.73L599.38 345.73L67.56 345.73z" /></clipPath><clipPath id="140"><path id="" clip-rule="evenodd" transform="matrix(1 0 0 1 0 0)" d="M67.56 572.07L599.38 572.07L599.38 572.07L599.38 345.73L599.38 345.73L67.56 345.73z" /></clipPath><clipPath id="141"><path id="" clip-rule="evenodd" transform="matrix(1 0 0 1 0 0)" d="M67.56 572.07L599.38 572.07L599.38 572.07L599.38 345.73L599.38 345.73L67.56 345.73z" /></clipPath><clipPath id="142"><path id="" clip-rule="evenodd" transform="matrix(1 0 0 1 0 0)" d="M67.56 572.07L599.38 572.07L599.38 572.07L599.38 345.73L599.38 345.73L67.56 345.73z" /></clipPath><clipPath id="143"><path id="" clip-rule="evenodd" transform="matrix(1 0 0 1 0 0)" d="M67.56 572.07L599.38 572.07L599.38 572.07L599.38 345.73L599.38 345.73L67.56 345.73z" /></clipPath><clipPath id="144"><path id="" clip-rule="evenodd" transform="matrix(1 0 0 1 0 0)" d="M67.56 572.07L599.38 572.07L599.38 572.07L599.38 345.73L599.38 345.73L67.56 345.73z" /></clipPath><clipPath id="145"><path id="" clip-rule="evenodd" transform="matrix(1 0 0 1 0 0)" d="M67.56 572.07L599.38 572.07L599.38 572.07L599.38 345.73L599.38 345.73L67.56 345.73z" /></clipPath><clipPath id="146"><path id="" clip-rule="evenodd" transform="matrix(1 0 0 1 0 0)" d="M67.56 572.07L599.38 572.07L599.38 572.07L599.38 345.73L599.38 345.73L67.56 345.73z" /></clipPath><clipPath id="147"><path id="" clip-rule="evenodd" transform="matrix(1 0 0 1 0 0)" d="M67.56 572.07L599.38 572.07L599.38 572.07L599.38 345.73L599.38 345.73L67.56 345.73z" /></clipPath><clipPath id="148"><path id="" clip-rule="evenodd" transform="matrix(1 0 0 1 0 0)" d="M67.56 572.07L599.38 572.07L599.38 572.07L599.38 345.73L599.38 345.73L67.56 345.73z" /></clipPath><clipPath id="149"><path id="" clip-rule="evenodd" transform="matrix(1 0 0 1 0 0)" d="M67.56 572.07L599.38 572.07L599.38 572.07L599.38 345.73L599.38 345.73L67.56 345.73z" /></clipPath><clipPath id="150"><path id="" clip-rule="evenodd" transform="matrix(1 0 0 1 0 0)" d="M67.56 572.07L599.38 572.07L599.38 572.07L599.38 345.73L599.38 345.73L67.56 345.73z" /></clipPath><clipPath id="151"><path id="" clip-rule="evenodd" transform="matrix(1 0 0 1 0 0)" d="M67.56 572.07L599.38 572.07L599.38 572.07L599.38 345.73L599.38 345.73L67.56 345.73z" /></clipPath><clipPath id="152"><path id="" clip-rule="evenodd" transform="matrix(1 0 0 1 0 0)" d="M67.56 572.07L599.38 572.07L599.38 572.07L599.38 345.73L599.38 345.73L67.56 345.73z" /></clipPath><clipPath id="153"><path id="" clip-rule="evenodd" transform="matrix(1 0 0 1 0 0)" d="M67.56 572.07L599.38 572.07L599.38 572.07L599.38 345.73L599.38 345.73L67.56 345.73z" /></clipPath><clipPath id="154"><path id="" clip-rule="evenodd" transform="matrix(1 0 0 1 0 0)" d="M67.56 572.07L599.38 572.07L599.38 572.07L599.38 345.73L599.38 345.73L67.56 345.73z" /></clipPath><clipPath id="155"><path id="" clip-rule="evenodd" transform="matrix(1 0 0 1 0 0)" d="M67.56 572.07L599.38 572.07L599.38 572.07L599.38 345.73L599.38 345.73L67.56 345.73z" /></clipPath><clipPath id="156"><path id="" clip-rule="evenodd" transform="matrix(1 0 0 1 0 0)" d="M67.56 572.07L599.38 572.07L599.38 572.07L599.38 345.73L599.38 345.73L67.56 345.73z" /></clipPath><clipPath id="157"><path id="" clip-rule="evenodd" transform="matrix(1 0 0 1 0 0)" d="M67.56 572.07L599.38 572.07L599.38 572.07L599.38 345.73L599.38 345.73L67.56 345.73z" /></clipPath><clipPath id="158"><path id="" clip-rule="evenodd" transform="matrix(1 0 0 1 0 0)" d="M67.56 572.07L599.38 572.07L599.38 572.07L599.38 345.73L599.38 345.73L67.56 345.73z" /></clipPath><clipPath id="159"><path id="" clip-rule="evenodd" transform="matrix(1 0 0 1 0 0)" d="M67.56 572.07L599.38 572.07L599.38 572.07L599.38 345.73L599.38 345.73L67.56 345.73z" /></clipPath><clipPath id="160"><path id="" clip-rule="evenodd" transform="matrix(1 0 0 1 0 0)" d="M67.56 572.07L599.38 572.07L599.38 572.07L599.38 345.73L599.38 345.73L67.56 345.73z" /></clipPath><clipPath id="161"><path id="" clip-rule="evenodd" transform="matrix(1 0 0 1 0 0)" d="M67.56 572.07L599.38 572.07L599.38 572.07L599.38 345.73L599.38 345.73L67.56 345.73z" /></clipPath><clipPath id="162"><path id="" clip-rule="evenodd" transform="matrix(1 0 0 1 0 0)" d="M287.12 365.65L305.52 365.65L305.52 365.65L305.52 347.25L305.52 347.25L287.12 347.25z" /></clipPath><clipPath id="163"><path id="" clip-rule="evenodd" transform="matrix(1 0 0 1 0 0)" d="M277.7 415.65L296.1 415.65L296.1 415.65L296.1 397.25L296.1 397.25L277.7 397.25z" /></clipPath><clipPath id="164"><path id="" clip-rule="evenodd" transform="matrix(1 0 0 1 0 0)" d="M83.064 89.73999L300.404 89.73999L300.404 89.73999L300.404 50.836L300.404 50.836L83.064 50.836z" /></clipPath><clipPath id="165"><path id="" clip-rule="evenodd" transform="matrix(1 0 0 1 0 0)" d="M83.064 89.73999L300.404 89.73999L300.404 89.73999L300.404 50.836L300.404 50.836L83.064 50.836z" /></clipPath><clipPath id="166"><path id="" clip-rule="evenodd" transform="matrix(1 0 0 1 0 0)" d="M83.064 89.73999L300.404 89.73999L300.404 89.73999L300.404 50.836L300.404 50.836L83.064 50.836z" /></clipPath><clipPath id="167"><path id="" clip-rule="evenodd" transform="matrix(1 0 0 1 0 0)" d="M83.064 89.73999L300.404 89.73999L300.404 89.73999L300.404 50.836L300.404 50.836L83.064 50.836z" /></clipPath><clipPath id="168"><path id="" clip-rule="evenodd" transform="matrix(1 0 0 1 0 0)" d="M83.064 89.73999L300.404 89.73999L300.404 89.73999L300.404 50.836L300.404 50.836L83.064 50.836z" /></clipPath><clipPath id="169"><path id="" clip-rule="evenodd" transform="matrix(1 0 0 1 0 0)" d="M83.064 89.73999L300.404 89.73999L300.404 89.73999L300.404 50.836L300.404 50.836L83.064 50.836z" /></clipPath><clipPath id="170"><path id="" clip-rule="evenodd" transform="matrix(1 0 0 1 0 0)" d="M83.064 89.73999L300.404 89.73999L300.404 89.73999L300.404 50.836L300.404 50.836L83.064 50.836z" /></clipPath><clipPath id="171"><path id="" clip-rule="evenodd" transform="matrix(1 0 0 1 0 0)" d="M101.66 223.18L566.85 223.18L566.85 223.18L566.85 100.06L566.85 100.06L101.66 100.06z" /></clipPath><clipPath id="172"><path id="" clip-rule="evenodd" transform="matrix(1 0 0 1 0 0)" d="M101.66 223.18L566.85 223.18L566.85 223.18L566.85 100.06L566.85 100.06L101.66 100.06z" /></clipPath><clipPath id="173"><path id="" clip-rule="evenodd" transform="matrix(1 0 0 1 0 0)" d="M101.66 223.18L566.85 223.18L566.85 223.18L566.85 100.06L566.85 100.06L101.66 100.06z" /></clipPath><clipPath id="174"><path id="" clip-rule="evenodd" transform="matrix(1 0 0 1 0 0)" d="M101.66 223.18L566.85 223.18L566.85 223.18L566.85 100.06L566.85 100.06L101.66 100.06z" /></clipPath><clipPath id="175"><path id="" clip-rule="evenodd" transform="matrix(1 0 0 1 0 0)" d="M101.66 223.18L566.85 223.18L566.85 223.18L566.85 100.06L566.85 100.06L101.66 100.06z" /></clipPath><clipPath id="176"><path id="" clip-rule="evenodd" transform="matrix(1 0 0 1 0 0)" d="M101.66 223.18L566.85 223.18L566.85 223.18L566.85 100.06L566.85 100.06L101.66 100.06z" /></clipPath><clipPath id="177"><path id="" clip-rule="evenodd" transform="matrix(1 0 0 1 0 0)" d="M101.66 223.18L566.85 223.18L566.85 223.18L566.85 100.06L566.85 100.06L101.66 100.06z" /></clipPath><clipPath id="178"><path id="" clip-rule="evenodd" transform="matrix(1 0 0 1 0 0)" d="M101.66 223.18L566.85 223.18L566.85 223.18L566.85 100.06L566.85 100.06L101.66 100.06z" /></clipPath><clipPath id="179"><path id="" clip-rule="evenodd" transform="matrix(1 0 0 1 0 0)" d="M101.66 223.18L566.85 223.18L566.85 223.18L566.85 100.06L566.85 100.06L101.66 100.06z" /></clipPath><clipPath id="180"><path id="" clip-rule="evenodd" transform="matrix(1 0 0 1 0 0)" d="M101.66 223.18L566.85 223.18L566.85 223.18L566.85 100.06L566.85 100.06L101.66 100.06z" /></clipPath><clipPath id="181"><path id="" clip-rule="evenodd" transform="matrix(1 0 0 1 0 0)" d="M101.66 223.18L566.85 223.18L566.85 223.18L566.85 100.06L566.85 100.06L101.66 100.06z" /></clipPath><clipPath id="182"><path id="" clip-rule="evenodd" transform="matrix(1 0 0 1 0 0)" d="M101.66 223.18L566.85 223.18L566.85 223.18L566.85 100.06L566.85 100.06L101.66 100.06z" /></clipPath><clipPath id="183"><path id="" clip-rule="evenodd" transform="matrix(1 0 0 1 0 0)" d="M101.66 223.18L566.85 223.18L566.85 223.18L566.85 100.06L566.85 100.06L101.66 100.06z" /></clipPath><clipPath id="184"><path id="" clip-rule="evenodd" transform="matrix(1 0 0 1 0 0)" d="M101.66 223.18L566.85 223.18L566.85 223.18L566.85 100.06L566.85 100.06L101.66 100.06z" /></clipPath><clipPath id="185"><path id="" clip-rule="evenodd" transform="matrix(1 0 0 1 0 0)" d="M101.66 223.18L566.85 223.18L566.85 223.18L566.85 100.06L566.85 100.06L101.66 100.06z" /></clipPath><clipPath id="186"><path id="" clip-rule="evenodd" transform="matrix(1 0 0 1 0 0)" d="M101.66 223.18L566.85 223.18L566.85 223.18L566.85 100.06L566.85 100.06L101.66 100.06z" /></clipPath><clipPath id="187"><path id="" clip-rule="evenodd" transform="matrix(1 0 0 1 0 0)" d="M101.66 223.18L566.85 223.18L566.85 223.18L566.85 100.06L566.85 100.06L101.66 100.06z" /></clipPath><clipPath id="188"><path id="" clip-rule="evenodd" transform="matrix(1 0 0 1 0 0)" d="M101.66 223.18L566.85 223.18L566.85 223.18L566.85 100.06L566.85 100.06L101.66 100.06z" /></clipPath><clipPath id="189"><path id="" clip-rule="evenodd" transform="matrix(1 0 0 1 0 0)" d="M101.66 223.18L566.85 223.18L566.85 223.18L566.85 100.06L566.85 100.06L101.66 100.06z" /></clipPath><clipPath id="190"><path id="" clip-rule="evenodd" transform="matrix(1 0 0 1 0 0)" d="M101.66 223.18L566.85 223.18L566.85 223.18L566.85 100.06L566.85 100.06L101.66 100.06z" /></clipPath><clipPath id="191"><path id="" clip-rule="evenodd" transform="matrix(1 0 0 1 0 0)" d="M101.66 223.18L566.85 223.18L566.85 223.18L566.85 100.06L566.85 100.06L101.66 100.06z" /></clipPath><clipPath id="192"><path id="" clip-rule="evenodd" transform="matrix(1 0 0 1 0 0)" d="M101.66 223.18L566.85 223.18L566.85 223.18L566.85 100.06L566.85 100.06L101.66 100.06z" /></clipPath><clipPath id="193"><path id="" clip-rule="evenodd" transform="matrix(1 0 0 1 0 0)" d="M101.66 223.18L566.85 223.18L566.85 223.18L566.85 100.06L566.85 100.06L101.66 100.06z" /></clipPath><clipPath id="194"><path id="" clip-rule="evenodd" transform="matrix(1 0 0 1 0 0)" d="M101.66 223.18L566.85 223.18L566.85 223.18L566.85 100.06L566.85 100.06L101.66 100.06z" /></clipPath><clipPath id="195"><path id="" clip-rule="evenodd" transform="matrix(1 0 0 1 0 0)" d="M101.66 223.18L566.85 223.18L566.85 223.18L566.85 100.06L566.85 100.06L101.66 100.06z" /></clipPath><clipPath id="196"><path id="" clip-rule="evenodd" transform="matrix(1 0 0 1 0 0)" d="M101.66 223.18L566.85 223.18L566.85 223.18L566.85 100.06L566.85 100.06L101.66 100.06z" /></clipPath><clipPath id="197"><path id="" clip-rule="evenodd" transform="matrix(1 0 0 1 0 0)" d="M101.66 223.18L566.85 223.18L566.85 223.18L566.85 100.06L566.85 100.06L101.66 100.06z" /></clipPath><clipPath id="198"><path id="" clip-rule="evenodd" transform="matrix(1 0 0 1 0 0)" d="M101.66 223.18L566.85 223.18L566.85 223.18L566.85 100.06L566.85 100.06L101.66 100.06z" /></clipPath><clipPath id="199"><path id="" clip-rule="evenodd" transform="matrix(1 0 0 1 0 0)" d="M101.66 223.18L566.85 223.18L566.85 223.18L566.85 100.06L566.85 100.06L101.66 100.06z" /></clipPath><clipPath id="200"><path id="" clip-rule="evenodd" transform="matrix(1 0 0 1 0 0)" d="M101.66 223.18L566.85 223.18L566.85 223.18L566.85 100.06L566.85 100.06L101.66 100.06z" /></clipPath><clipPath id="201"><path id="" clip-rule="evenodd" transform="matrix(1 0 0 1 0 0)" d="M101.66 223.18L566.85 223.18L566.85 223.18L566.85 100.06L566.85 100.06L101.66 100.06z" /></clipPath><clipPath id="202"><path id="" clip-rule="evenodd" transform="matrix(1 0 0 1 0 0)" d="M101.66 223.18L566.85 223.18L566.85 223.18L566.85 100.06L566.85 100.06L101.66 100.06z" /></clipPath><clipPath id="203"><path id="" clip-rule="evenodd" transform="matrix(1 0 0 1 0 0)" d="M101.66 223.18L566.85 223.18L566.85 223.18L566.85 100.06L566.85 100.06L101.66 100.06z" /></clipPath><clipPath id="204"><path id="" clip-rule="evenodd" transform="matrix(1 0 0 1 0 0)" d="M101.66 223.18L566.85 223.18L566.85 223.18L566.85 100.06L566.85 100.06L101.66 100.06z" /></clipPath><clipPath id="205"><path id="" clip-rule="evenodd" transform="matrix(1 0 0 1 0 0)" d="M101.66 223.18L566.85 223.18L566.85 223.18L566.85 100.06L566.85 100.06L101.66 100.06z" /></clipPath><clipPath id="206"><path id="" clip-rule="evenodd" transform="matrix(1 0 0 1 0 0)" d="M101.66 223.18L566.85 223.18L566.85 223.18L566.85 100.06L566.85 100.06L101.66 100.06z" /></clipPath><clipPath id="207"><path id="" clip-rule="evenodd" transform="matrix(1 0 0 1 0 0)" d="M101.66 223.18L566.85 223.18L566.85 223.18L566.85 100.06L566.85 100.06L101.66 100.06z" /></clipPath><clipPath id="208"><path id="" clip-rule="evenodd" transform="matrix(1 0 0 1 0 0)" d="M101.66 223.18L566.85 223.18L566.85 223.18L566.85 100.06L566.85 100.06L101.66 100.06z" /></clipPath><clipPath id="209"><path id="" clip-rule="evenodd" transform="matrix(1 0 0 1 0 0)" d="M101.66 223.18L566.85 223.18L566.85 223.18L566.85 100.06L566.85 100.06L101.66 100.06z" /></clipPath><clipPath id="210"><path id="" clip-rule="evenodd" transform="matrix(1 0 0 1 0 0)" d="M101.66 223.18L566.85 223.18L566.85 223.18L566.85 100.06L566.85 100.06L101.66 100.06z" /></clipPath><clipPath id="211"><path id="" clip-rule="evenodd" transform="matrix(1 0 0 1 0 0)" d="M101.66 223.18L566.85 223.18L566.85 223.18L566.85 100.06L566.85 100.06L101.66 100.06z" /></clipPath><clipPath id="212"><path id="" clip-rule="evenodd" transform="matrix(1 0 0 1 0 0)" d="M101.66 223.18L566.85 223.18L566.85 223.18L566.85 100.06L566.85 100.06L101.66 100.06z" /></clipPath><clipPath id="213"><path id="" clip-rule="evenodd" transform="matrix(1 0 0 1 0 0)" d="M101.66 223.18L566.85 223.18L566.85 223.18L566.85 100.06L566.85 100.06L101.66 100.06z" /></clipPath><clipPath id="214"><path id="" clip-rule="evenodd" transform="matrix(1 0 0 1 0 0)" d="M101.66 223.18L566.85 223.18L566.85 223.18L566.85 100.06L566.85 100.06L101.66 100.06z" /></clipPath><clipPath id="215"><path id="" clip-rule="evenodd" transform="matrix(1 0 0 1 0 0)" d="M101.66 223.18L566.85 223.18L566.85 223.18L566.85 100.06L566.85 100.06L101.66 100.06z" /></clipPath><clipPath id="216"><path id="" clip-rule="evenodd" transform="matrix(1 0 0 1 0 0)" d="M101.66 223.18L566.85 223.18L566.85 223.18L566.85 100.06L566.85 100.06L101.66 100.06z" /></clipPath><clipPath id="217"><path id="" clip-rule="evenodd" transform="matrix(1 0 0 1 0 0)" d="M101.66 223.18L566.85 223.18L566.85 223.18L566.85 100.06L566.85 100.06L101.66 100.06z" /></clipPath><clipPath id="218"><path id="" clip-rule="evenodd" transform="matrix(1 0 0 1 0 0)" d="M101.66 223.18L566.85 223.18L566.85 223.18L566.85 100.06L566.85 100.06L101.66 100.06z" /></clipPath><clipPath id="219"><path id="" clip-rule="evenodd" transform="matrix(1 0 0 1 0 0)" d="M101.66 223.18L566.85 223.18L566.85 223.18L566.85 100.06L566.85 100.06L101.66 100.06z" /></clipPath><clipPath id="220"><path id="" clip-rule="evenodd" transform="matrix(1 0 0 1 0 0)" d="M101.66 223.18L566.85 223.18L566.85 223.18L566.85 100.06L566.85 100.06L101.66 100.06z" /></clipPath><clipPath id="221"><path id="" clip-rule="evenodd" transform="matrix(1 0 0 1 0 0)" d="M101.66 223.18L566.85 223.18L566.85 223.18L566.85 100.06L566.85 100.06L101.66 100.06z" /></clipPath><clipPath id="222"><path id="" clip-rule="evenodd" transform="matrix(1 0 0 1 0 0)" d="M101.66 223.18L566.85 223.18L566.85 223.18L566.85 100.06L566.85 100.06L101.66 100.06z" /></clipPath><clipPath id="223"><path id="" clip-rule="evenodd" transform="matrix(1 0 0 1 0 0)" d="M101.66 223.18L566.85 223.18L566.85 223.18L566.85 100.06L566.85 100.06L101.66 100.06z" /></clipPath><clipPath id="224"><path id="" clip-rule="evenodd" transform="matrix(1 0 0 1 0 0)" d="M101.66 223.18L566.85 223.18L566.85 223.18L566.85 100.06L566.85 100.06L101.66 100.06z" /></clipPath><clipPath id="225"><path id="" clip-rule="evenodd" transform="matrix(1 0 0 1 0 0)" d="M101.66 223.18L566.85 223.18L566.85 223.18L566.85 100.06L566.85 100.06L101.66 100.06z" /></clipPath><clipPath id="226"><path id="" clip-rule="evenodd" transform="matrix(1 0 0 1 0 0)" d="M101.66 223.18L566.85 223.18L566.85 223.18L566.85 100.06L566.85 100.06L101.66 100.06z" /></clipPath><clipPath id="227"><path id="" clip-rule="evenodd" transform="matrix(1 0 0 1 0 0)" d="M101.66 223.18L566.85 223.18L566.85 223.18L566.85 100.06L566.85 100.06L101.66 100.06z" /></clipPath><clipPath id="228"><path id="" clip-rule="evenodd" transform="matrix(1 0 0 1 0 0)" d="M101.66 223.18L566.85 223.18L566.85 223.18L566.85 100.06L566.85 100.06L101.66 100.06z" /></clipPath><clipPath id="229"><path id="" clip-rule="evenodd" transform="matrix(1 0 0 1 0 0)" d="M101.66 223.18L566.85 223.18L566.85 223.18L566.85 100.06L566.85 100.06L101.66 100.06z" /></clipPath><clipPath id="230"><path id="" clip-rule="evenodd" transform="matrix(1 0 0 1 0 0)" d="M101.66 223.18L566.85 223.18L566.85 223.18L566.85 100.06L566.85 100.06L101.66 100.06z" /></clipPath><clipPath id="231"><path id="" clip-rule="evenodd" transform="matrix(1 0 0 1 0 0)" d="M101.66 223.18L566.85 223.18L566.85 223.18L566.85 100.06L566.85 100.06L101.66 100.06z" /></clipPath><clipPath id="232"><path id="" clip-rule="evenodd" transform="matrix(1 0 0 1 0 0)" d="M101.66 223.18L566.85 223.18L566.85 223.18L566.85 100.06L566.85 100.06L101.66 100.06z" /></clipPath><clipPath id="233"><path id="" clip-rule="evenodd" transform="matrix(1 0 0 1 0 0)" d="M88.824 621.18L298.964 621.18L298.964 621.18L298.964 582.276L298.964 582.276L88.824 582.276z" /></clipPath><clipPath id="234"><path id="" clip-rule="evenodd" transform="matrix(1 0 0 1 0 0)" d="M88.824 621.18L298.964 621.18L298.964 621.18L298.964 582.276L298.964 582.276L88.824 582.276z" /></clipPath><clipPath id="235"><path id="" clip-rule="evenodd" transform="matrix(1 0 0 1 0 0)" d="M88.824 621.18L298.964 621.18L298.964 621.18L298.964 582.276L298.964 582.276L88.824 582.276z" /></clipPath><clipPath id="236"><path id="" clip-rule="evenodd" transform="matrix(1 0 0 1 0 0)" d="M88.824 621.18L298.964 621.18L298.964 621.18L298.964 582.276L298.964 582.276L88.824 582.276z" /></clipPath><clipPath id="237"><path id="" clip-rule="evenodd" transform="matrix(1 0 0 1 0 0)" d="M88.824 621.18L298.964 621.18L298.964 621.18L298.964 582.276L298.964 582.276L88.824 582.276z" /></clipPath><clipPath id="238"><path id="" clip-rule="evenodd" transform="matrix(1 0 0 1 0 0)" d="M68.52 715.86L600.34 715.86L600.34 715.86L600.34 630.54L600.34 630.54L68.52 630.54z" /></clipPath><clipPath id="239"><path id="" clip-rule="evenodd" transform="matrix(1 0 0 1 0 0)" d="M68.52 715.86L600.34 715.86L600.34 715.86L600.34 630.54L600.34 630.54L68.52 630.54z" /></clipPath><clipPath id="240"><path id="" clip-rule="evenodd" transform="matrix(1 0 0 1 0 0)" d="M68.52 715.86L600.34 715.86L600.34 715.86L600.34 630.54L600.34 630.54L68.52 630.54z" /></clipPath><clipPath id="241"><path id="" clip-rule="evenodd" transform="matrix(1 0 0 1 0 0)" d="M68.52 715.86L600.34 715.86L600.34 715.86L600.34 630.54L600.34 630.54L68.52 630.54z" /></clipPath><clipPath id="242"><path id="" clip-rule="evenodd" transform="matrix(1 0 0 1 0 0)" d="M68.52 715.86L600.34 715.86L600.34 715.86L600.34 630.54L600.34 630.54L68.52 630.54z" /></clipPath><clipPath id="243"><path id="" clip-rule="evenodd" transform="matrix(1 0 0 1 0 0)" d="M68.52 715.86L600.34 715.86L600.34 715.86L600.34 630.54L600.34 630.54L68.52 630.54z" /></clipPath><clipPath id="244"><path id="" clip-rule="evenodd" transform="matrix(1 0 0 1 0 0)" d="M68.52 715.86L600.34 715.86L600.34 715.86L600.34 630.54L600.34 630.54L68.52 630.54z" /></clipPath><clipPath id="245"><path id="" clip-rule="evenodd" transform="matrix(1 0 0 1 0 0)" d="M68.52 715.86L600.34 715.86L600.34 715.86L600.34 630.54L600.34 630.54L68.52 630.54z" /></clipPath><clipPath id="246"><path id="" clip-rule="evenodd" transform="matrix(1 0 0 1 0 0)" d="M68.52 715.86L600.34 715.86L600.34 715.86L600.34 630.54L600.34 630.54L68.52 630.54z" /></clipPath><clipPath id="247"><path id="" clip-rule="evenodd" transform="matrix(1 0 0 1 0 0)" d="M68.52 715.86L600.34 715.86L600.34 715.86L600.34 630.54L600.34 630.54L68.52 630.54z" /></clipPath><clipPath id="248"><path id="" clip-rule="evenodd" transform="matrix(1 0 0 1 0 0)" d="M68.52 715.86L600.34 715.86L600.34 715.86L600.34 630.54L600.34 630.54L68.52 630.54z" /></clipPath><clipPath id="249"><path id="" clip-rule="evenodd" transform="matrix(1 0 0 1 0 0)" d="M68.52 715.86L600.34 715.86L600.34 715.86L600.34 630.54L600.34 630.54L68.52 630.54z" /></clipPath><clipPath id="250"><path id="" clip-rule="evenodd" transform="matrix(1 0 0 1 0 0)" d="M68.52 715.86L600.34 715.86L600.34 715.86L600.34 630.54L600.34 630.54L68.52 630.54z" /></clipPath><clipPath id="251"><path id="" clip-rule="evenodd" transform="matrix(1 0 0 1 0 0)" d="M68.52 715.86L600.34 715.86L600.34 715.86L600.34 630.54L600.34 630.54L68.52 630.54z" /></clipPath><clipPath id="252"><path id="" clip-rule="evenodd" transform="matrix(1 0 0 1 0 0)" d="M68.52 715.86L600.34 715.86L600.34 715.86L600.34 630.54L600.34 630.54L68.52 630.54z" /></clipPath><clipPath id="253"><path id="" clip-rule="evenodd" transform="matrix(1 0 0 1 0 0)" d="M68.52 715.86L600.34 715.86L600.34 715.86L600.34 630.54L600.34 630.54L68.52 630.54z" /></clipPath><clipPath id="254"><path id="" clip-rule="evenodd" transform="matrix(1 0 0 1 0 0)" d="M68.52 715.86L600.34 715.86L600.34 715.86L600.34 630.54L600.34 630.54L68.52 630.54z" /></clipPath><clipPath id="255"><path id="" clip-rule="evenodd" transform="matrix(1 0 0 1 0 0)" d="M68.52 715.86L600.34 715.86L600.34 715.86L600.34 630.54L600.34 630.54L68.52 630.54z" /></clipPath><clipPath id="256"><path id="" clip-rule="evenodd" transform="matrix(1 0 0 1 0 0)" d="M68.52 715.86L600.34 715.86L600.34 715.86L600.34 630.54L600.34 630.54L68.52 630.54z" /></clipPath><clipPath id="257"><path id="" clip-rule="evenodd" transform="matrix(1 0 0 1 0 0)" d="M68.52 715.86L600.34 715.86L600.34 715.86L600.34 630.54L600.34 630.54L68.52 630.54z" /></clipPath><clipPath id="258"><path id="" clip-rule="evenodd" transform="matrix(1 0 0 1 0 0)" d="M68.52 715.86L600.34 715.86L600.34 715.86L600.34 630.54L600.34 630.54L68.52 630.54z" /></clipPath></defs><g transform="matrix(1.333333 0 0 1.333333 0 0)"><g clip-path="url(#1)"><g clip-path="url(#2)"></g><g clip-path="url(#3)"></g><g clip-path="url(#4)"></g><g clip-path="url(#5)"><path id="1" transform="matrix(1 0 0 -1 0 836)" d="M131.06 523.87L256.96 523.87L256.96 523.87L256.96 555.31L256.96 555.31L131.06 555.31z" stroke="none" fill="#FFF795" fill-rule="evenodd" /><g clip-path="url(#6)"><path id="2" transform="matrix(1 0 0 -1 0 836)" d="M135.74 523.87L251.8 523.87L251.8 523.87L251.8 555.31L251.8 555.31L135.74 555.31z" stroke="none" fill="#FFF795" fill-rule="evenodd" /><g clip-path="url(#7)"></g><g clip-path="url(#8)"></g></g><path id="5" transform="matrix(1 0 0 -1 0 836)" d="M257.45 523.87L535.78 523.87L535.78 523.87L535.78 555.31L535.78 555.31L257.45 555.31z" stroke="none" fill="#FFF795" fill-rule="evenodd" /><g clip-path="url(#9)"><path id="6" transform="matrix(1 0 0 -1 0 836)" d="M262.61 523.87L531.22 523.87L531.22 523.87L531.22 555.31L531.22 555.31L262.61 555.31z" stroke="none" fill="#FFF795" fill-rule="evenodd" /><g clip-path="url(#10)"></g><g clip-path="url(#11)"></g><g clip-path="url(#12)"></g><g clip-path="url(#13)"></g></g><path id="31" transform="matrix(1 0 0 -1 0 836)" d="M129.62 555.31L131.06 555.31L131.06 555.31L131.06 556.87L131.06 556.87L129.62 556.87z" stroke="none" fill="#000000" fill-rule="evenodd" /><path id="32" transform="matrix(1 0 0 -1 0 836)" d="M129.62 555.43L131.06 555.43L131.06 555.43L131.06 556.87L131.06 556.87L129.62 556.87z" stroke="none" fill="#000000" fill-rule="evenodd" /><path id="33" transform="matrix(1 0 0 -1 0 836)" d="M131.06 555.43L256.96 555.43L256.96 555.43L256.96 556.87L256.96 556.87L131.06 556.87z" stroke="none" fill="#000000" fill-rule="evenodd" /><path id="34" transform="matrix(1 0 0 -1 0 836)" d="M131.06 555.31L256.96 555.31L256.96 555.31L256.96 555.43L256.96 555.43L131.06 555.43z" stroke="none" fill="#FFF795" fill-rule="evenodd" /><path id="35" transform="matrix(1 0 0 -1 0 836)" d="M257.45 555.31L258.41 555.31L258.41 555.31L258.41 555.43L258.41 555.43L257.45 555.43z" stroke="none" fill="#FFF795" fill-rule="evenodd" /><path id="36" transform="matrix(1 0 0 -1 0 836)" d="M256.97 555.31L257.45 555.31L257.45 555.31L257.45 555.43L257.45 555.43L256.97 555.43z" stroke="none" fill="#000000" fill-rule="evenodd" /><path id="37" transform="matrix(1 0 0 -1 0 836)" d="M256.97 555.43L258.41 555.43L258.41 555.43L258.41 556.87L258.41 556.87L256.97 556.87z" stroke="none" fill="#000000" fill-rule="evenodd" /><path id="38" transform="matrix(1 0 0 -1 0 836)" d="M258.41 555.43L535.9 555.43L535.9 555.43L535.9 556.87L535.9 556.87L258.41 556.87z" stroke="none" fill="#000000" fill-rule="evenodd" /><path id="39" transform="matrix(1 0 0 -1 0 836)" d="M258.41 555.31L535.9 555.31L535.9 555.31L535.9 555.43L535.9 555.43L258.41 555.43z" stroke="none" fill="#FFF795" fill-rule="evenodd" /><path id="40" transform="matrix(1 0 0 -1 0 836)" d="M535.9 555.31L537.34 555.31L537.34 555.31L537.34 556.87L537.34 556.87L535.9 556.87z" stroke="none" fill="#000000" fill-rule="evenodd" /><path id="41" transform="matrix(1 0 0 -1 0 836)" d="M535.9 555.43L537.34 555.43L537.34 555.43L537.34 556.87L537.34 556.87L535.9 556.87z" stroke="none" fill="#000000" fill-rule="evenodd" /><path id="42" transform="matrix(1 0 0 -1 0 836)" d="M129.62 523.87L131.06 523.87L131.06 523.87L131.06 555.31L131.06 555.31L129.62 555.31z" stroke="none" fill="#000000" fill-rule="evenodd" /><path id="43" transform="matrix(1 0 0 -1 0 836)" d="M256.97 523.87L257.45 523.87L257.45 523.87L257.45 555.31L257.45 555.31L256.97 555.31z" stroke="none" fill="#000000" fill-rule="evenodd" /><path id="44" transform="matrix(1 0 0 -1 0 836)" d="M535.9 523.87L537.34 523.87L537.34 523.87L537.34 555.31L537.34 555.31L535.9 555.31z" stroke="none" fill="#000000" fill-rule="evenodd" /><path id="45" transform="matrix(1 0 0 -1 0 836)" d="M131.06 491.83L256.96 491.83L256.96 491.83L256.96 523.39L256.96 523.39L131.06 523.39z" stroke="none" fill="#FFFF00" fill-rule="evenodd" /><g clip-path="url(#14)"><path id="46" transform="matrix(1 0 0 -1 0 836)" d="M135.74 491.83L251.8 491.83L251.8 491.83L251.8 523.39L251.8 523.39L135.74 523.39z" stroke="none" fill="#FFFF00" fill-rule="evenodd" /><g clip-path="url(#15)"></g><g clip-path="url(#16)"></g></g><path id="53" transform="matrix(1 0 0 -1 0 836)" d="M257.45 491.83L535.78 491.83L535.78 491.83L535.78 523.39L535.78 523.39L257.45 523.39z" stroke="none" fill="#FFFF00" fill-rule="evenodd" /><g clip-path="url(#17)"><path id="54" transform="matrix(1 0 0 -1 0 836)" d="M262.61 491.83L531.22 491.83L531.22 491.83L531.22 523.39L531.22 523.39L262.61 523.39z" stroke="none" fill="#FFFF00" fill-rule="evenodd" /><g clip-path="url(#18)"></g><g clip-path="url(#19)"></g><g clip-path="url(#20)"></g><g clip-path="url(#21)"></g><g clip-path="url(#22)"></g><g clip-path="url(#23)"></g><g clip-path="url(#24)"></g><g clip-path="url(#25)"></g><g clip-path="url(#26)"></g><g clip-path="url(#27)"></g></g><path id="74" transform="matrix(1 0 0 -1 0 836)" d="M129.62 523.39L131.06 523.39L131.06 523.39L131.06 523.87L131.06 523.87L129.62 523.87z" stroke="none" fill="#000000" fill-rule="evenodd" /><path id="75" transform="matrix(1 0 0 -1 0 836)" d="M131.06 523.39L256.96 523.39L256.96 523.39L256.96 523.87L256.96 523.87L131.06 523.87z" stroke="none" fill="#000000" fill-rule="evenodd" /><path id="76" transform="matrix(1 0 0 -1 0 836)" d="M256.97 523.39L257.45 523.39L257.45 523.39L257.45 523.87L257.45 523.87L256.97 523.87z" stroke="none" fill="#000000" fill-rule="evenodd" /><path id="77" transform="matrix(1 0 0 -1 0 836)" d="M257.45 523.39L535.9 523.39L535.9 523.39L535.9 523.87L535.9 523.87L257.45 523.87z" stroke="none" fill="#000000" fill-rule="evenodd" /><path id="78" transform="matrix(1 0 0 -1 0 836)" d="M535.9 523.39L537.34 523.39L537.34 523.39L537.34 523.87L537.34 523.87L535.9 523.87z" stroke="none" fill="#000000" fill-rule="evenodd" /><path id="79" transform="matrix(1 0 0 -1 0 836)" d="M129.62 491.95L131.06 491.95L131.06 491.95L131.06 523.39L131.06 523.39L129.62 523.39z" stroke="none" fill="#000000" fill-rule="evenodd" /><path id="80" transform="matrix(1 0 0 -1 0 836)" d="M129.62 490.51L131.06 490.51L131.06 490.51L131.06 491.95L131.06 491.95L129.62 491.95z" stroke="none" fill="#000000" fill-rule="evenodd" /><path id="81" transform="matrix(1 0 0 -1 0 836)" d="M129.62 490.51L131.06 490.51L131.06 490.51L131.06 491.95L131.06 491.95L129.62 491.95z" stroke="none" fill="#000000" fill-rule="evenodd" /><path id="82" transform="matrix(1 0 0 -1 0 836)" d="M131.06 490.51L256.96 490.51L256.96 490.51L256.96 491.95L256.96 491.95L131.06 491.95z" stroke="none" fill="#000000" fill-rule="evenodd" /><path id="83" transform="matrix(1 0 0 -1 0 836)" d="M256.97 491.95L257.45 491.95L257.45 491.95L257.45 523.39L257.45 523.39L256.97 523.39z" stroke="none" fill="#000000" fill-rule="evenodd" /><path id="84" transform="matrix(1 0 0 -1 0 836)" d="M256.97 490.51L258.41 490.51L258.41 490.51L258.41 491.95L258.41 491.95L256.97 491.95z" stroke="none" fill="#000000" fill-rule="evenodd" /><path id="85" transform="matrix(1 0 0 -1 0 836)" d="M258.41 490.51L535.9 490.51L535.9 490.51L535.9 491.95L535.9 491.95L258.41 491.95z" stroke="none" fill="#000000" fill-rule="evenodd" /><path id="86" transform="matrix(1 0 0 -1 0 836)" d="M535.9 491.95L537.34 491.95L537.34 491.95L537.34 523.39L537.34 523.39L535.9 523.39z" stroke="none" fill="#000000" fill-rule="evenodd" /><path id="87" transform="matrix(1 0 0 -1 0 836)" d="M535.9 490.51L537.34 490.51L537.34 490.51L537.34 491.95L537.34 491.95L535.9 491.95z" stroke="none" fill="#000000" fill-rule="evenodd" /><path id="88" transform="matrix(1 0 0 -1 0 836)" d="M535.9 490.51L537.34 490.51L537.34 490.51L537.34 491.95L537.34 491.95L535.9 491.95z" stroke="none" fill="#000000" fill-rule="evenodd" /></g><g clip-path="url(#28)"><g transform="matrix(0.7202561 0 0 0.7228916 -4.08 -1.23999)"><g transform="matrix(1 0 0 1 0 0)"><image x="0" y="0" xlink:href="img_01.png" width="937" height="83" /></g></g></g><g clip-path="url(#29)"><path id="90" transform="matrix(1 0 0 -1 0 836)" d="M-0.10008 784.5L666.5499 784.5L666.5499 784.5L666.5499 836.1L666.5499 836.1L-0.10008 836.1z" stroke="none" fill="#FFFFFF" fill-rule="evenodd" /></g><path id="91" transform="matrix(1 0 0 -1 0 836)" d="M0.80008 1.55L666.5501 1.55L666.5501 1.55L666.5501 116.15L666.5501 116.15L0.80008 116.15z" stroke="none" fill="#3B3838" fill-rule="evenodd" /><g clip-path="url(#30)"><g transform="matrix(0.3601949 0 0 0.3612162 1.08 723.6799)"><g transform="matrix(1 0 0 1 0 0)"><image x="0" y="0" xlink:href="img_02.png" width="1847" height="296" /></g></g></g><g clip-path="url(#31)"></g><g clip-path="url(#32)"></g><g clip-path="url(#33)"></g><g clip-path="url(#34)"></g><g clip-path="url(#35)"></g><g clip-path="url(#36)"></g><g clip-path="url(#37)"></g><g clip-path="url(#38)"></g><g clip-path="url(#39)"></g><g clip-path="url(#40)"></g><g clip-path="url(#41)"></g><g clip-path="url(#42)"></g><g clip-path="url(#43)"></g><g clip-path="url(#44)"></g><g clip-path="url(#45)"></g><g clip-path="url(#46)"></g><g clip-path="url(#47)"></g><g clip-path="url(#48)"></g><g clip-path="url(#49)"></g><g clip-path="url(#50)"></g><g clip-path="url(#51)"></g><g clip-path="url(#52)"></g><g clip-path="url(#53)"><g transform="matrix(0.3133492 0 0 0.3137595 4.1219 720.318)"><g transform="matrix(1 0 0 1 0 0)"><image x="0" y="0" xlink:href="img_03.png" width="421" height="79" /></g></g></g><g clip-path="url(#54)"><g transform="matrix(0.3272795 0 0 0.3264901 0 -2.149963)"><g transform="matrix(1 0 0 1 0 0)"><image x="0" y="0" xlink:href="img_04.png" width="1349" height="151" /></g></g></g><path id="276" transform="matrix(1 0 0 -1 0 836)" d="M436.3 825.8L436.3 792.1" stroke="#000000" stroke-width="1.5" fill="none" /><g clip-path="url(#55)"><g clip-path="url(#56)"></g><g clip-path="url(#57)"></g><g clip-path="url(#58)"></g></g><g clip-path="url(#59)"><g clip-path="url(#60)"></g><g clip-path="url(#61)"></g><g clip-path="url(#62)"></g><g clip-path="url(#63)"></g></g><g clip-path="url(#64)"><g clip-path="url(#65)"></g><g clip-path="url(#66)"></g><g clip-path="url(#67)"></g><g clip-path="url(#68)"></g><g clip-path="url(#69)"></g><g clip-path="url(#70)"></g><g clip-path="url(#71)"></g><g clip-path="url(#72)"></g><g clip-path="url(#73)"></g><g clip-path="url(#74)"></g><g clip-path="url(#75)"></g><g clip-path="url(#76)"></g><g clip-path="url(#77)"></g><g clip-path="url(#78)"></g><g clip-path="url(#79)"></g><g clip-path="url(#80)"></g><g clip-path="url(#81)"></g><g clip-path="url(#82)"></g><g clip-path="url(#83)"></g><g clip-path="url(#84)"></g><g clip-path="url(#85)"></g><g clip-path="url(#86)"></g><g clip-path="url(#87)"></g><g clip-path="url(#88)"></g><g clip-path="url(#89)"></g><g clip-path="url(#90)"></g><g clip-path="url(#91)"></g><g clip-path="url(#92)"></g><g clip-path="url(#93)"></g><g clip-path="url(#94)"></g><g clip-path="url(#95)"></g><g clip-path="url(#96)"></g><g clip-path="url(#97)"></g><g clip-path="url(#98)"></g><g clip-path="url(#99)"></g><g clip-path="url(#100)"></g><g clip-path="url(#101)"></g><g clip-path="url(#102)"></g><g clip-path="url(#103)"></g><g clip-path="url(#104)"></g><g clip-path="url(#105)"></g><g clip-path="url(#106)"></g><g clip-path="url(#107)"></g><g clip-path="url(#108)"></g><g clip-path="url(#109)"></g><g clip-path="url(#110)"></g><g clip-path="url(#111)"></g><g clip-path="url(#112)"></g><g clip-path="url(#113)"></g><g clip-path="url(#114)"></g><g clip-path="url(#115)"></g><g clip-path="url(#116)"></g><g clip-path="url(#117)"></g><g clip-path="url(#118)"></g><g clip-path="url(#119)"></g><g clip-path="url(#120)"></g><g clip-path="url(#121)"></g><g clip-path="url(#122)"></g><g clip-path="url(#123)"></g><g clip-path="url(#124)"></g><g clip-path="url(#125)"></g><g clip-path="url(#126)"></g><g clip-path="url(#127)"></g><g clip-path="url(#128)"></g><g clip-path="url(#129)"></g><g clip-path="url(#130)"></g><g clip-path="url(#131)"></g><g clip-path="url(#132)"></g><g clip-path="url(#133)"></g><g clip-path="url(#134)"></g><g clip-path="url(#135)"></g><g clip-path="url(#136)"></g><g clip-path="url(#137)"></g><g clip-path="url(#138)"></g><g clip-path="url(#139)"></g><g clip-path="url(#140)"></g><g clip-path="url(#141)"></g><g clip-path="url(#142)"></g><g clip-path="url(#143)"></g><g clip-path="url(#144)"></g><g clip-path="url(#145)"></g><g clip-path="url(#146)"></g><g clip-path="url(#147)"></g><g clip-path="url(#148)"></g><g clip-path="url(#149)"></g><g clip-path="url(#150)"></g><g clip-path="url(#151)"></g><g clip-path="url(#152)"></g><g clip-path="url(#153)"></g><g clip-path="url(#154)"></g><g clip-path="url(#155)"></g><g clip-path="url(#156)"></g><g clip-path="url(#157)"></g><g clip-path="url(#158)"></g><g clip-path="url(#159)"></g><g clip-path="url(#160)"></g><g clip-path="url(#161)"></g></g><g clip-path="url(#162)"><g transform="matrix(0.6133333 0 0 0.6133333 287.12 347.25)"><g transform="matrix(1 0 0 1 0 0)"><image x="0" y="0" xlink:href="img_05.png" width="30" height="30" /></g></g></g><g clip-path="url(#163)"><g transform="matrix(0.6133333 0 0 0.6133333 277.7 397.25)"><g transform="matrix(1 0 0 1 0 0)"><image x="0" y="0" xlink:href="img_06.png" width="30" height="30" /></g></g></g><g clip-path="url(#164)"><g clip-path="url(#165)"></g><g clip-path="url(#166)"></g><g clip-path="url(#167)"></g><g clip-path="url(#168)"></g><g clip-path="url(#169)"></g><g clip-path="url(#170)"></g></g><path id="590" transform="matrix(1 0 0 -1 0 836)" d="M100.2 728.2C 100.2 734.94 105.66 740.4 112.4 740.4L112.4 740.4L556 740.4C 562.74 740.4 568.2 734.94 568.2 728.2L568.2 728.2L568.2 607.4C 568.2 600.66 562.74 595.2 556 595.2L556 595.2L112.4 595.2C 105.66 595.2 100.2 600.66 100.2 607.4z" stroke="none" fill="#F2F2F2" fill-rule="evenodd" /><g clip-path="url(#171)"><g clip-path="url(#172)"></g><g clip-path="url(#173)"></g><g clip-path="url(#174)"></g><g clip-path="url(#175)"></g><g clip-path="url(#176)"></g><g clip-path="url(#177)"></g><g clip-path="url(#178)"></g><g clip-path="url(#179)"></g><g clip-path="url(#180)"></g><g clip-path="url(#181)"></g><g clip-path="url(#182)"></g><g clip-path="url(#183)"></g><g clip-path="url(#184)"></g><g clip-path="url(#185)"></g><g clip-path="url(#186)"></g><g clip-path="url(#187)"></g><g clip-path="url(#188)"></g><g clip-path="url(#189)"></g><g clip-path="url(#190)"></g><g clip-path="url(#191)"></g><g clip-path="url(#192)"></g><g clip-path="url(#193)"></g><g clip-path="url(#194)"></g><g clip-path="url(#195)"></g><g clip-path="url(#196)"></g><g clip-path="url(#197)"></g><g clip-path="url(#198)"></g><g clip-path="url(#199)"></g><g clip-path="url(#200)"></g><g clip-path="url(#201)"></g><g clip-path="url(#202)"></g><g clip-path="url(#203)"></g><g clip-path="url(#204)"></g><g clip-path="url(#205)"></g><g clip-path="url(#206)"></g><g clip-path="url(#207)"></g><g clip-path="url(#208)"></g><path id="679" transform="matrix(1 0 0 -1 0 836)" d="M129.86 662.14L325.72 662.14L325.72 662.14L325.72 662.86L325.72 662.86L129.86 662.86z" stroke="none" fill="#0563C1" fill-rule="evenodd" /><g clip-path="url(#209)"></g><g clip-path="url(#210)"></g><g clip-path="url(#211)"></g><g clip-path="url(#212)"></g><g clip-path="url(#213)"></g><g clip-path="url(#214)"></g><g clip-path="url(#215)"></g><g clip-path="url(#216)"></g><g clip-path="url(#217)"></g><g clip-path="url(#218)"></g><g clip-path="url(#219)"></g><g clip-path="url(#220)"></g><g clip-path="url(#221)"></g><g clip-path="url(#222)"></g><g clip-path="url(#223)"></g><g clip-path="url(#224)"></g><g clip-path="url(#225)"></g><g clip-path="url(#226)"></g><g clip-path="url(#227)"></g><g clip-path="url(#228)"></g><g clip-path="url(#229)"></g><g clip-path="url(#230)"></g><g clip-path="url(#231)"></g><g clip-path="url(#232)"></g></g><g clip-path="url(#233)"><g clip-path="url(#234)"></g><g clip-path="url(#235)"></g><g clip-path="url(#236)"></g><g clip-path="url(#237)"></g></g><g clip-path="url(#238)"><path id="724" transform="matrix(1 0 0 -1 0 836)" d="M553.06 180.5L567.1 180.5L567.1 180.5L567.1 205.46L567.1 205.46L553.06 205.46z" stroke="none" fill="#D9D9D9" fill-rule="evenodd" /><g clip-path="url(#239)"></g><g clip-path="url(#240)"></g><g clip-path="url(#241)"></g><g clip-path="url(#242)"></g><g clip-path="url(#243)"></g><g clip-path="url(#244)"></g><g clip-path="url(#245)"></g><g clip-path="url(#246)"></g><g clip-path="url(#247)"></g><g clip-path="url(#248)"></g><g clip-path="url(#249)"></g><g clip-path="url(#250)"></g><g clip-path="url(#251)"></g><g clip-path="url(#252)"></g><g clip-path="url(#253)"></g><g clip-path="url(#254)"></g><g clip-path="url(#255)"></g><g clip-path="url(#256)"></g><g clip-path="url(#257)"></g><g clip-path="url(#258)"></g></g></g></g></svg>